<?xml version="1.0" encoding="UTF-8"?><svg id="Layer_13" xmlns="http://www.w3.org/2000/svg" viewBox="0 0 73.01 69.62"><defs><style>.cls-1{fill:#59c2e4;}.cls-2{fill:#3c3c3b;}</style></defs><rect class="cls-1" width="73.01" height="69.62" rx="19.19" ry="19.19"/><path class="cls-2" d="M39.94,23.14c-.73-.62-1.79-.94-3.17-.94-2.07,0-3.59,.82-4.56,2.47-.97,1.65-1.48,4.33-1.51,8.04,.72-1.19,1.77-2.12,3.15-2.78,1.38-.67,2.88-1,4.49-1,1.95,0,3.67,.42,5.17,1.25,1.5,.83,2.67,2.04,3.51,3.63,.84,1.59,1.26,3.5,1.26,5.72,0,2.11-.43,3.99-1.28,5.64-.85,1.65-2.11,2.93-3.75,3.85-1.65,.92-3.61,1.38-5.89,1.38-3.12,0-5.57-.68-7.35-2.05-1.78-1.37-3.03-3.27-3.73-5.72-.71-2.45-1.06-5.47-1.06-9.07,0-5.43,.94-9.54,2.83-12.32,1.89-2.78,4.87-4.17,8.94-4.17,3.15,0,5.59,.85,7.33,2.54,1.74,1.69,2.74,3.8,3.01,6.33h-5.84c-.3-1.25-.82-2.18-1.55-2.81Zm-7.03,12.29c-1.08,.92-1.62,2.26-1.62,4.01s.5,3.13,1.51,4.14c1,1.01,2.42,1.51,4.25,1.51,1.62,0,2.9-.49,3.84-1.47,.95-.98,1.42-2.3,1.42-3.96s-.46-3.09-1.37-4.1c-.91-1.01-2.25-1.51-4.02-1.51-1.59,0-2.92,.46-4,1.38Z"/></svg>