<?xml version="1.0" encoding="UTF-8"?><svg id="Layer_13" xmlns="http://www.w3.org/2000/svg" viewBox="0 0 73.01 69.62"><defs><style>.cls-1{fill:#59c2e4;}.cls-2{fill:#3c3c3b;}</style></defs><rect class="cls-1" width="73.01" height="69.62" rx="19.19" ry="19.19"/><path class="cls-2" d="M28.68,19.51c1.96-1.62,4.54-2.43,7.75-2.43,2.19,0,4.06,.38,5.62,1.14,1.56,.76,2.73,1.78,3.53,3.07,.79,1.29,1.19,2.75,1.19,4.39,0,1.87-.49,3.45-1.46,4.74-.97,1.29-2.13,2.16-3.48,2.61v.18c1.74,.54,3.09,1.49,4.07,2.85,.97,1.37,1.46,3.12,1.46,5.26,0,1.78-.41,3.37-1.24,4.77s-2.04,2.49-3.64,3.27c-1.6,.79-3.53,1.18-5.78,1.18-3.39,0-6.14-.85-8.27-2.54-2.13-1.69-3.25-4.19-3.37-7.48h6.11c.06,1.46,.56,2.62,1.51,3.5,.94,.88,2.24,1.31,3.89,1.31,1.53,0,2.7-.42,3.53-1.27s1.24-1.94,1.24-3.27c0-1.78-.57-3.06-1.71-3.83-1.14-.77-2.91-1.16-5.3-1.16h-1.3v-5.12h1.3c4.26,0,6.38-1.41,6.38-4.23,0-1.28-.38-2.27-1.15-2.99-.76-.71-1.87-1.07-3.3-1.07s-2.49,.38-3.26,1.14c-.77,.76-1.21,1.71-1.33,2.87h-6.16c.15-2.97,1.21-5.26,3.17-6.88Z"/></svg>