<?xml version="1.0" encoding="UTF-8"?><svg id="Layer_13" xmlns="http://www.w3.org/2000/svg" viewBox="0 0 73.01 69.62"><defs><style>.cls-1{fill:#59c2e4;}.cls-2{fill:#3c3c3b;}</style></defs><rect class="cls-1" width="73.01" height="69.62" rx="19.19" ry="19.19"/><path class="cls-2" d="M46.44,24.23h-14.56v7.62c.63-.77,1.53-1.4,2.7-1.89,1.17-.49,2.41-.74,3.73-.74,2.4,0,4.36,.52,5.89,1.56,1.53,1.04,2.63,2.37,3.32,3.99s1.04,3.35,1.04,5.19c0,3.42-.98,6.16-2.95,8.24-1.96,2.08-4.76,3.12-8.38,3.12-3.42,0-6.14-.85-8.18-2.54-2.04-1.69-3.19-3.9-3.46-6.64h6.11c.27,1.19,.88,2.14,1.82,2.85,.94,.71,2.15,1.07,3.62,1.07,1.77,0,3.1-.55,4-1.65s1.35-2.55,1.35-4.37-.46-3.24-1.37-4.21c-.91-.96-2.25-1.45-4.02-1.45-1.26,0-2.31,.31-3.15,.94-.84,.62-1.44,1.46-1.8,2.49h-6.02V18.75h20.31v5.48Z"/></svg>