<?xml version="1.0" encoding="UTF-8"?><svg id="Layer_13" xmlns="http://www.w3.org/2000/svg" viewBox="0 0 73.01 69.62"><defs><style>.cls-1{fill:#59c2e4;}.cls-2{fill:#3c3c3b;}</style></defs><rect class="cls-1" width="73.01" height="69.62" rx="19.19" ry="19.19"/><path class="cls-2" d="M27.97,43.27c2.88-2.38,5.17-4.36,6.88-5.95,1.71-1.59,3.13-3.24,4.27-4.97,1.14-1.72,1.71-3.42,1.71-5.08,0-1.51-.36-2.7-1.08-3.56-.72-.86-1.83-1.29-3.33-1.29s-2.65,.5-3.46,1.49c-.81,1-1.23,2.35-1.26,4.08h-6.11c.12-3.56,1.19-6.27,3.21-8.11,2.02-1.84,4.59-2.76,7.71-2.76,3.42,0,6.04,.9,7.87,2.7,1.83,1.8,2.74,4.17,2.74,7.11,0,2.32-.63,4.53-1.89,6.64-1.26,2.11-2.7,3.94-4.31,5.5s-3.73,3.44-6.34,5.63h13.26v5.17H25.63v-4.63l2.34-1.96Z"/></svg>