<svg width="110" height="75" viewBox="0 0 110 75" fill="none" xmlns="http://www.w3.org/2000/svg">
<g clip-path="url(#clip0_280_13)">
<path d="M109.458 1.77064C109.058 1.39935 108.458 1.25655 107.459 1.31367C105.147 1.42792 103.005 1.42791 100.893 1.34223C100.265 1.31367 99.6081 1.31367 98.9515 1.28511C97.6382 1.28511 96.2678 1.25655 95.0117 1.02807C89.7872 0.0855692 84.3057 -0.085794 78.2248 0.513977C70.1739 1.31367 62.6655 3.51283 55.8707 7.0829C55.3854 7.33995 55.0143 7.33995 54.5575 7.0829C53.6154 6.56881 52.6161 6.08328 51.5027 5.54063C44.5653 2.39897 37.1996 0.542538 29.6341 0.11413C25.7228 -0.114355 22.0114 -0.028673 18.6141 0.371175C17.729 0.485417 16.8155 0.599659 15.9304 0.713901C13.0755 1.08519 10.1064 1.48504 7.1373 1.31367C6.28082 1.25655 5.3958 1.28511 4.56787 1.28511C3.82559 1.28511 3.08331 1.31367 2.34103 1.28511C1.5702 1.25655 0.942123 1.45648 0.485336 1.85632C0.171295 2.08481 0 2.45609 0 2.85594V72.915C0 73.9717 0.770828 74.8571 1.77005 74.9999C1.9128 74.9999 2.05554 75.0285 2.19829 75.0285C31.7467 74.9999 61.7804 74.9999 90.815 74.9999H107.745C109.372 74.9999 109.971 74.4001 109.971 72.8293V3.45571C110 2.62746 109.829 2.11337 109.458 1.77064ZM96.7246 62.319C97.1529 61.9763 97.3813 61.4051 97.3813 60.4911C97.3813 47.6389 97.3813 34.7581 97.3813 21.9058V10.7101H100.607V65.6035C88.8451 65.7463 68.2325 65.9748 62.2943 65.9462C63.0651 65.6891 63.8645 65.4035 64.6924 65.1179C66.6623 64.4039 68.7179 63.6899 70.4023 63.2615C77.3112 61.5193 84.6483 61.0909 92.2424 61.9763C93.2131 62.0905 94.041 62.2333 94.8118 62.4618C95.6398 62.6903 96.2964 62.6332 96.7246 62.319ZM56.6987 50.0094C56.7843 37.9283 56.8985 21.3632 56.9556 11.367C56.9556 10.7101 57.1555 10.3959 57.755 10.1103C63.5219 7.25427 69.8028 5.39783 76.9686 4.39821C79.7664 4.02692 82.5071 3.827 85.2193 3.827C88.0742 3.827 90.872 4.02693 93.727 4.45533V58.549C87.1607 57.6636 80.9084 57.7208 74.6847 58.7489C68.1754 59.8342 62.2372 61.6907 56.5845 64.4039C56.613 62.8045 56.6701 57.2924 56.6987 50.0094ZM16.2159 4.16973C16.7013 4.11261 17.1581 4.02692 17.6148 3.9698C18.8139 3.79844 20.0415 3.59852 21.2406 3.62708H21.4119C25.0947 3.65564 28.9203 3.6842 32.6032 4.08405C38.4272 4.71238 49.3615 8.76798 52.559 10.0246C52.6447 10.0532 52.7303 10.0818 52.7303 10.0818C53.2157 10.2531 53.387 10.5387 53.387 11.1956C53.3013 19.0212 53.2157 30.4169 53.13 40.6701C53.0444 52.1514 52.9587 62.2333 52.9302 64.4325C44.137 60.2055 34.9442 58.1206 25.0662 58.1206C22.1542 58.1206 19.2136 58.292 16.1588 58.6633V4.16973H16.2159ZM13.1326 62.1762C13.5609 62.5475 14.1889 62.6903 15.074 62.6046C15.7591 62.5189 16.4729 62.4618 17.1581 62.3761C18.7283 62.2048 20.3556 62.0048 21.9543 61.9192C30.0052 61.4907 39.4264 62.9188 47.4773 65.7463C45.1077 65.7463 40.3971 65.7177 35.144 65.6891C26.6649 65.6606 16.1588 65.6035 9.39268 65.6035V10.7101H12.6187L12.5902 60.7196C12.5902 61.3479 12.79 61.862 13.1326 62.1762ZM106.346 71.3727H3.6543V4.94086H12.5616V7.0829H11.334C10.2206 7.0829 9.13574 7.0829 8.02232 7.0829C6.45212 7.0829 5.79548 7.7398 5.79548 9.28207C5.79548 28.5604 5.79548 47.8388 5.79548 67.1172C5.79548 68.6594 6.39502 69.2307 7.93667 69.2307C39.3122 69.2307 70.6878 69.2307 102.063 69.2307C103.634 69.2307 104.233 68.6309 104.233 67.0029V9.39631C104.233 7.71124 103.605 7.0829 101.892 7.0829C100.807 7.0829 99.7508 7.0829 98.6374 7.0829H97.4384V4.96942H106.346V71.3727Z" fill="#3A61AE"/>
<path d="M49.647 22.3914C49.3901 22.8198 48.9618 23.2482 48.191 23.2482C47.8484 23.2482 47.4487 23.1626 46.9634 22.9626C46.5351 22.7913 46.0783 22.5913 45.6501 22.42C43.6517 21.5917 41.5676 20.7064 39.4835 20.078C37.3137 19.4211 35.0298 19.0784 32.8601 18.8214C31.3184 18.6214 29.6911 18.5643 28.1495 18.4786C27.5499 18.4215 24.7521 18.5643 24.7521 18.5643C23.7529 18.5643 22.7822 18.5643 21.783 18.5643C20.5554 18.5643 19.6989 17.9074 19.6704 16.9364C19.6133 15.8796 20.4126 15.0514 21.6117 14.9657C31.4612 14.3088 39.3693 15.4512 46.478 18.65C47.1632 18.9642 47.9055 19.3354 48.762 19.821C49.4186 20.1923 49.7897 20.5921 49.9039 21.0491C50.0181 21.4775 49.9325 21.9059 49.647 22.3914Z" fill="#3A61AE"/>
<path d="M49.7899 32.3591C49.4759 33.0731 48.8478 33.4729 48.1341 33.4729C47.8486 33.4729 47.5631 33.4158 47.2776 33.273C46.6781 33.016 46.0786 32.7304 45.5076 32.4448C44.6796 32.0449 43.7946 31.6165 42.9381 31.3023C37.2569 29.1603 30.9475 28.332 23.6389 28.7033C23.4676 28.7033 23.3249 28.7319 23.1536 28.7319C22.6397 28.7604 22.0972 28.789 21.5834 28.789C21.0409 28.789 20.4985 28.532 20.1273 28.1321C19.8133 27.7894 19.642 27.3895 19.6706 26.9611C19.7277 25.933 20.3272 25.3046 21.3264 25.2189C22.5826 25.1047 23.8673 25.019 25.0949 24.9333L26.6366 24.8191H26.6651C35.5154 25.1047 42.0531 26.5613 47.8486 29.5601C48.1341 29.7029 48.391 29.8457 48.648 30.0171L48.8764 30.1599C49.8756 30.7311 50.1611 31.4737 49.7899 32.3591Z" fill="#3A61AE"/>
<path d="M49.7039 53.0085C49.3899 53.5226 48.8474 53.8082 48.1908 53.8082C47.8482 53.8082 47.4771 53.7225 47.0774 53.5511C46.5064 53.2941 45.9354 53.037 45.3359 52.8085C43.7086 52.0945 42.0242 51.352 40.3112 50.8379C35.3722 49.3527 29.8908 48.7815 23.6385 49.0671C23.353 49.0671 23.0675 49.0957 22.8106 49.0957C22.4109 49.0957 22.0112 49.1242 21.6115 49.1528C20.5552 49.2385 19.87 48.6673 19.6987 47.582C19.6416 47.1536 19.7558 46.6966 20.0699 46.3253C20.4124 45.8969 20.8978 45.6113 21.4117 45.5827C22.3538 45.4971 23.2959 45.4399 24.1238 45.4114C24.4379 45.3828 24.7234 45.3828 24.9803 45.3542H25.0089C31.4895 45.4399 39.0836 45.9826 46.3922 49.2385C47.2201 49.6098 48.0481 50.0382 48.876 50.4951C49.4184 50.8093 49.7896 51.2092 49.9038 51.6947C50.0465 52.1231 49.9609 52.5801 49.7039 53.0085Z" fill="#3A61AE"/>
<path d="M49.7039 42.7551C49.3899 43.2977 48.7903 43.5833 48.1337 43.5833C47.7911 43.5833 47.4485 43.4976 47.1345 43.3263C40.768 39.8704 33.488 38.4995 23.61 38.7851C23.4101 38.7851 23.2103 38.7851 23.0104 38.8137C22.5536 38.8137 22.0683 38.8423 21.6115 38.8708C20.5552 38.9565 19.87 38.4139 19.6987 37.3286C19.6416 36.9001 19.7558 36.4432 20.0699 36.0719C20.4124 35.6435 20.8978 35.3579 21.4117 35.3293C22.3538 35.2436 23.2959 35.1865 24.1238 35.158C24.4379 35.1294 24.7234 35.1294 24.9803 35.1008H25.0089C31.4895 35.1865 39.1122 35.7292 46.3922 38.9851C47.2487 39.3564 48.0766 39.7848 48.876 40.2417C49.4184 40.5559 49.7896 40.9843 49.9038 41.4984C50.018 41.8982 49.9609 42.3552 49.7039 42.7551Z" fill="#3A61AE"/>
<path d="M90.2825 16.9364C90.2254 17.8789 89.3975 18.5358 88.2555 18.5358C87.1992 18.5358 86.1714 18.5358 85.1151 18.5358H83.7733C76.9215 18.4502 71.4115 19.3641 66.444 21.3062C65.5018 21.6775 64.5597 22.163 63.6461 22.5914C63.4177 22.7057 63.2179 22.8199 62.9895 22.9056C62.5613 23.1341 62.133 23.2198 61.7904 23.2198C61.1624 23.2198 60.6485 22.9056 60.3059 22.3344C60.0204 21.8489 59.9347 21.4205 60.0489 21.0206C60.1631 20.5636 60.5628 20.1638 61.2195 19.7639C64.9023 17.6505 69.1847 16.2224 74.2664 15.4227C79.0056 14.6802 83.7733 14.5088 88.3697 14.9087C89.5688 15.08 90.3682 15.8797 90.2825 16.9364Z" fill="#3A61AE"/>
<path d="M90.2824 26.9897C90.3109 27.3895 90.1397 27.818 89.8256 28.1607C89.4545 28.5605 88.912 28.8176 88.3696 28.8176C87.8557 28.8176 87.3418 28.789 86.8565 28.7605C86.5996 28.7319 86.3712 28.7319 86.1142 28.7319C78.5487 28.3892 72.068 29.3317 66.3296 31.5879C65.7587 31.8164 65.1877 32.102 64.6452 32.3876C64.1599 32.6161 63.6746 32.8732 63.1607 33.1017C62.7039 33.3016 62.2186 33.4729 61.7618 33.4729C61.619 33.4729 61.4763 33.4444 61.3621 33.4158C60.8196 33.2159 60.163 32.5304 60.1059 31.9021C60.0488 31.3309 60.5627 30.4455 61.1051 30.217C61.5334 30.0457 61.9331 29.8458 62.3613 29.6458C64.5881 28.6177 66.9006 27.5895 69.2702 26.8469C74.2663 25.2761 79.4337 24.9619 83.3735 24.8762L84.8866 24.9905C86.1142 25.0761 87.3704 25.1618 88.598 25.2761C89.6258 25.3332 90.2253 25.9615 90.2824 26.9897Z" fill="#3A61AE"/>
<path d="M90.0828 48.096C89.8259 48.6101 89.1121 49.0671 88.5697 49.0956C87.4563 49.1813 86.3429 49.1528 85.2295 49.1528C84.8012 49.1528 84.373 49.1528 83.9733 49.1528C77.4641 49.0385 71.897 49.8668 67.0151 51.6946C65.9017 52.1231 64.7882 52.6657 63.7034 53.1798L63.0753 53.494C62.6185 53.7224 62.1903 53.8081 61.7906 53.8081C61.1339 53.8081 60.563 53.5225 60.2775 52.9227C59.735 51.8946 60.1062 51.0092 61.3623 50.2952C65.1879 48.1817 69.6701 46.7822 75.0088 46.0111C80.062 45.2685 84.2873 45.1257 88.2842 45.5256C88.7981 45.5827 89.5118 45.8397 89.9115 46.3253C90.197 46.7822 90.3112 47.6676 90.0828 48.096Z" fill="#3A61AE"/>
<path d="M90.0827 37.8426C89.8257 38.3567 89.112 38.8137 88.5696 38.8422C87.4276 38.9279 86.2856 38.8993 85.1437 38.8993C84.7154 38.8993 84.2872 38.8993 83.859 38.8993C77.3783 38.7851 71.8683 39.6134 67.0149 41.4412C65.873 41.8696 64.7596 42.4123 63.7032 42.9549L63.0752 43.2691C62.6184 43.4976 62.1901 43.5833 61.7904 43.5833C61.1338 43.5833 60.5628 43.2977 60.2773 42.7265C59.7349 41.7268 60.1346 40.7843 61.3908 40.0989C65.2163 37.9854 69.67 36.5859 75.0373 35.8148C80.0905 35.0722 84.3157 34.9294 88.3126 35.3293C88.8265 35.3864 89.5402 35.6434 89.9399 36.129C90.1969 36.5288 90.3111 37.3856 90.0827 37.8426Z" fill="#3A61AE"/>
</g>
<defs>
<clipPath id="clip0_280_13">
<rect width="110" height="75" fill="white"/>
</clipPath>
</defs>
</svg>
