<svg width="132" height="111" viewBox="0 0 132 111" fill="none" xmlns="http://www.w3.org/2000/svg">
<g clip-path="url(#clip0_137_75)">
<path d="M41.1492 46.0612C44.743 47.5714 48.2649 48.2187 51.8587 46.8882C55.6681 45.4859 59.4416 45.45 63.251 46.9242C63.5745 47.0321 64.2214 46.8523 64.4011 46.5646C67.6355 41.8902 72.4871 41.3508 77.6262 43.5802C80.6091 44.8746 83.6638 45.9893 86.7904 46.8882C88.1201 47.2838 89.6654 46.9602 91.3904 46.9602C90.7436 45.9534 90.2764 45.1983 89.8451 44.4072C89.1623 43.2206 89.306 42.3936 90.4561 41.6385C95.9546 38.0068 101.453 34.4111 106.988 30.8154C108.209 30.0243 109 30.276 109.97 31.7502C113.169 36.6764 116.367 41.5666 119.602 46.4927C123.483 52.4257 127.328 58.3586 131.21 64.2556C132.396 66.0894 132.252 66.8086 130.455 67.9951C125.388 71.3032 120.356 74.6472 115.289 77.9553C113.205 79.3217 112.774 79.2498 111.264 77.2002C111.192 77.0923 111.084 77.0204 110.905 76.8766C106.556 79.1419 102.172 81.3712 97.8233 83.6365C97.6077 83.7444 97.428 83.9961 97.3202 84.2119C95.4514 87.8795 95.3436 87.9514 91.3545 89.3178C91.3904 94.5675 88.0482 98.0194 82.6575 97.4801C81.6153 101.939 78.8122 104.168 74.1402 103.809C73.3137 107.153 71.5527 109.526 67.9589 110.065C64.3651 110.604 62.101 108.411 59.6932 105.642C58.7229 106.793 57.8604 107.836 56.89 108.843C54.9853 110.82 52.6494 111.431 50.0259 110.676C47.5462 109.957 46.1087 108.195 45.4977 105.247C41.4727 105.463 38.7414 103.701 37.7351 99.6735C31.6616 99.0263 30.1882 97.4082 29.9725 91.2595C24.9053 90.001 22.3177 83.6006 27.6006 78.8183C25.7318 77.6676 23.899 76.517 21.9584 75.3304C21.4193 76.1574 20.9521 76.9125 20.449 77.6317C19.5146 79.07 18.6521 79.2498 17.1786 78.2789C12.3989 75.1866 7.65507 72.0583 2.91126 68.93C-0.71847 66.5569 -0.71847 66.5569 1.65343 62.9252C8.40976 52.6054 15.1302 42.3217 21.8865 32.0019C23.1803 30.0243 23.8271 29.8805 25.8037 31.1749C30.7632 34.4111 35.6867 37.6472 40.6461 40.8834C43.0539 42.4655 43.1617 42.8251 41.6523 45.2342C41.4727 45.45 41.3648 45.7017 41.1492 46.0612ZM38.5976 49.657C33.8538 56.9203 28.8944 64.5433 23.899 72.2021C26.0912 73.5685 28.1756 74.863 30.3319 76.1574C32.4882 74 34.3929 71.519 37.8429 71.6987C41.293 71.8785 43.3414 73.7843 44.168 77.0204C46.6118 76.6968 48.7321 77.0564 50.529 78.7104C52.29 80.3644 52.6853 82.5219 52.5775 84.7872C56.5666 85.8299 57.8604 87.6278 58.2916 92.4461C63.9339 93.5967 65.4792 99.3139 62.4245 103.593C63.2151 104.348 63.9698 105.175 64.8323 105.858C66.198 106.937 68.2105 106.757 69.3605 105.57C70.5464 104.348 70.5824 102.262 69.4324 100.896C69.073 100.5 68.6777 100.141 68.3183 99.7454C67.4917 98.7745 67.4558 97.6958 68.2464 96.9767C69.0011 96.2935 70.1871 96.3295 71.0136 97.1565C71.6246 97.7318 72.1996 98.379 72.8105 98.9543C74.284 100.393 76.4762 100.5 77.77 99.206C79.0997 97.8756 79.0637 95.5744 77.6622 94.1001C76.6918 93.0933 75.6856 92.1584 74.7152 91.1516C73.673 90.0729 73.5652 89.0301 74.3559 88.2031C75.1824 87.3761 76.4043 87.5199 77.4106 88.5627C78.6684 89.8931 79.9262 91.2595 81.1841 92.5899C82.6935 94.1361 84.8857 94.3518 86.2154 93.0933C87.6529 91.7629 87.581 89.3897 86.0357 87.8076C84.5982 86.3333 83.1247 84.8951 81.6872 83.4208C80.645 82.3421 80.5731 81.2634 81.3997 80.4723C82.2622 79.6453 83.2685 79.7532 84.3466 80.7959C85.5685 81.9825 86.7544 83.241 87.9763 84.3916C89.306 85.6502 90.8873 85.8299 92.1092 84.8591C93.6186 83.6365 94.0139 81.8387 92.9358 80.2206C92.3248 79.2857 91.5701 78.4227 90.7795 77.6676C85.3529 72.2021 79.8903 66.7366 74.4277 61.3071C74.1043 60.9835 73.7809 60.6958 73.3855 60.3363C72.8824 61.0554 72.4152 61.7026 71.948 62.3858C69.6839 65.586 65.9464 66.5569 62.7479 64.759C59.5135 62.9252 58.3275 59.1497 59.9088 55.5899C60.6276 53.9359 61.3823 52.2459 62.137 50.5199C59.2979 49.3333 56.5666 49.3333 53.6916 50.1604C51.5712 50.7716 49.3071 51.3829 47.1509 51.275C44.3477 51.1312 41.6164 50.2682 38.5976 49.657ZM97.464 79.7532C101.166 77.8115 105.083 75.7979 109.036 73.7483C103.933 66.0175 98.9733 58.4305 93.978 50.9155C93.7623 50.5918 93.0795 50.2682 92.7201 50.3761C88.6232 51.4548 84.7419 50.6638 80.9325 49.1176C78.9559 48.2906 76.9793 47.3916 74.9668 46.6725C70.9777 45.2342 68.3183 46.3848 66.5214 50.2323C65.4433 52.5335 64.437 54.8708 63.4307 57.2439C62.5682 59.2575 63.0354 61.0554 64.6526 61.9184C66.2698 62.7813 68.2464 62.1701 69.3964 60.4082C70.0793 59.3654 70.7261 58.2867 71.409 57.2439C72.5949 55.3742 73.6012 55.2663 75.1106 56.8124C80.8606 62.5656 86.6107 68.2828 92.2889 74.036C94.1217 75.726 95.6671 77.7036 97.464 79.7532ZM38.1304 43.724C33.4944 40.7036 29.0022 37.7911 24.4021 34.8066C17.6817 45.1263 11.0332 55.3382 4.31284 65.622C8.94883 68.6424 13.477 71.5549 18.0411 74.5394C24.7615 64.2196 31.41 54.0437 38.1304 43.724ZM127.652 65.622C120.895 55.3022 114.247 45.1623 107.598 34.9504C102.998 37.9349 98.4702 40.8834 93.8702 43.8678C100.591 54.1516 107.275 64.3275 113.959 74.5394C118.524 71.5549 123.052 68.6064 127.652 65.622ZM48.7681 83.6725C48.5524 82.3421 48.0493 81.4432 46.9352 80.9757C45.7493 80.4723 44.6352 80.6161 43.7008 81.5151C40.5742 84.6074 37.4476 87.6997 34.3929 90.828C33.2069 92.0505 33.2069 93.8844 34.321 94.9271C35.5429 96.1137 37.232 96.1137 38.5257 94.8193C41.5445 91.8348 44.5633 88.8144 47.5462 85.758C48.1212 85.2187 48.3727 84.3557 48.7681 83.6725ZM41.1852 98.415C41.3648 99.7094 41.868 100.608 42.9102 101.148C44.1321 101.723 45.318 101.507 46.2524 100.572C48.6962 98.1992 51.104 95.7901 53.4759 93.345C54.6978 92.0865 54.6619 90.2527 53.44 89.138C52.3619 88.1312 50.529 88.1672 49.3431 89.3537C46.9712 91.691 44.6352 93.9922 42.3352 96.4014C41.832 96.9407 41.5805 97.7318 41.1852 98.415ZM40.4664 78.6744C40.4664 77.0204 39.9273 76.1215 38.8851 75.6181C37.6632 75.0428 36.5132 75.2585 35.5429 76.1934C33.4944 78.207 31.4819 80.2206 29.4694 82.2702C28.2116 83.5646 28.1037 85.3984 29.1459 86.4772C30.3319 87.6997 32.2007 87.6638 33.5663 86.3333C35.5429 84.3917 37.5195 82.45 39.4242 80.4364C39.9633 79.8251 40.2508 79.034 40.4664 78.6744ZM60.3041 99.0622C60.1244 97.7318 59.5494 96.8688 58.5072 96.4014C57.3213 95.862 56.2072 96.0778 55.2728 96.9407C53.5119 98.6667 51.7509 100.393 50.0259 102.155C48.7321 103.485 48.6962 105.175 49.8462 106.362C50.9243 107.476 52.829 107.44 54.0509 106.218C55.776 104.528 57.501 102.838 59.1541 101.076C59.7291 100.536 59.9448 99.7454 60.3041 99.0622Z" fill="#3A61AE"/>
<path d="M65.8743 36.8562C55.7398 36.8202 47.4741 28.586 47.4741 18.482C47.4741 8.27016 55.8477 0 66.09 0C76.2245 0.0359572 84.5261 8.30612 84.4902 18.3741C84.4902 28.622 76.1526 36.8562 65.8743 36.8562ZM80.6448 17.655C79.8901 8.80952 73.1338 3.05636 64.329 3.73955C56.9258 4.31487 50.8163 11.6501 51.2835 19.0573C51.7867 27.0758 58.6149 33.62 66.9525 33.0087C75.0744 32.4334 81.2917 25.3498 80.6448 17.655Z" fill="#3A61AE"/>
<path d="M19.191 62.8893C19.191 64.9029 17.6816 66.485 15.6691 66.485C13.7644 66.485 12.1831 64.9029 12.1831 62.9972C12.1831 61.1634 13.8722 59.5093 15.741 59.5453C17.6457 59.5093 19.191 61.0195 19.191 62.8893Z" fill="#3A61AE"/>
<path d="M116.151 59.4731C118.02 59.4731 119.637 61.1272 119.637 63.0329C119.637 64.8667 118.056 66.4489 116.223 66.4489C114.211 66.4489 112.558 64.8308 112.558 62.925C112.558 61.1272 114.283 59.4731 116.151 59.4731Z" fill="#3A61AE"/>
<path d="M63.5024 21.0711C65.9103 18.6619 68.0666 16.4685 70.2588 14.3111C70.6182 13.9515 70.9416 13.592 71.301 13.2683C72.1635 12.5492 73.1338 12.4054 73.9244 13.2683C74.7151 14.0954 74.751 15.0662 73.9244 15.9292C70.9057 18.9855 67.8509 22.0419 64.7962 25.0623C64.0056 25.8534 63.1071 25.7095 62.3884 25.0264C60.843 23.5521 59.2977 22.0419 57.8243 20.4598C57.0696 19.6328 57.1055 18.4102 57.8602 17.799C58.7586 17.0798 59.693 17.0439 60.5196 17.8709C61.5259 18.8777 62.4602 19.9564 63.5024 21.0711Z" fill="#3A61AE"/>
</g>
<defs>
<clipPath id="clip0_137_75">
<rect width="132" height="111" fill="white"/>
</clipPath>
</defs>
</svg>
