<svg width="116" height="102" viewBox="0 0 116 102" fill="none" xmlns="http://www.w3.org/2000/svg">
<g clip-path="url(#clip0_137_55)">
<path d="M116 86.9314C115.964 87.0031 115.892 87.039 115.855 87.1107C114.769 90.4832 113.031 91.7748 109.447 91.7748C102.785 91.7748 96.16 91.7748 89.4983 91.7748C89.1 91.7748 88.7018 91.7748 88.4483 91.7748C89.0276 93.0305 89.8603 94.2145 90.0776 95.5061C90.693 98.9862 87.9415 102 84.321 102C73.9302 102 63.5395 102 53.1487 102C46.2336 102 39.3185 101.964 32.4034 102.036C29.6518 102.072 27.4795 101.175 26.2848 98.6633C25.09 96.1519 25.9227 93.9275 27.9864 91.8107C27.3709 91.8107 27.0089 91.8107 26.6106 91.8107C19.8041 91.8107 12.9976 91.8107 6.22736 91.8107C3.00514 91.8107 0.796648 90.2321 0.0725534 87.3978C-0.0360609 86.9314 -0.0722656 86.4291 -0.0722656 85.9627C-0.0722656 65.2613 -0.0722656 44.5599 -0.0722656 23.8585C-0.0722656 20.5219 2.38966 18.0464 5.7929 18.0464C15.1337 18.0464 24.4383 18.0464 33.7792 18.0464C34.2136 18.0464 34.6843 18.0464 35.2998 18.0464C35.2998 17.6158 35.2998 17.2212 35.2998 16.8265C35.2998 14.2792 35.1549 11.7319 35.3722 9.1846C35.8066 4.73578 39.4995 1.1839 44.3148 0.322835C44.894 0.215203 45.5095 0.10757 46.125 0.10757C53.909 0.10757 61.693 -0.0359406 69.4771 0.143447C74.0751 0.25108 77.6593 2.36786 79.5782 6.67317C80.1212 7.85713 80.2661 9.29223 80.3023 10.5838C80.4109 13.0235 80.3385 15.4273 80.3385 18.0105C80.8453 18.0105 81.2798 18.0105 81.7143 18.0105C90.6568 18.0105 99.5994 18.0822 108.578 17.9746C112.09 17.9387 114.733 18.8716 115.964 22.9257C116 44.2729 116 65.5842 116 86.9314ZM31.6793 88.2947C31.7879 87.9718 31.8603 87.6848 31.9327 87.3978C34.2498 76.9215 40.6219 70.0689 50.9764 66.9475C51.5557 66.7681 51.8815 66.517 52.0988 65.9071C53.0039 63.288 55.3934 61.6018 58.0726 61.6018C60.7517 61.6018 63.2136 63.3239 64.0825 65.9071C64.2998 66.5888 64.6618 66.804 65.3135 67.0193C75.4146 70.2124 81.7505 76.9215 84.0314 87.2184C84.2486 88.2229 84.6106 88.3665 85.4796 88.3665C93.517 88.3306 101.554 88.3665 109.592 88.3665C111.837 88.3665 112.669 87.5413 112.669 85.3169C112.669 73.3696 112.669 61.4583 112.669 49.511C112.669 49.1522 112.669 48.7935 112.669 48.4347C109.085 49.4034 105.609 50.3003 101.989 51.269C101.989 52.3812 101.989 53.5652 101.989 54.7491C101.953 57.6552 99.708 60.1308 96.7754 60.4537C93.8066 60.7766 91.0551 58.8392 90.4396 55.8972C90.2586 55.0003 90.2224 54.0675 90.1138 53.027C68.7168 55.5026 47.3197 55.5385 25.8503 53.027C25.8503 53.6728 25.8503 54.1392 25.8503 54.6415C25.8141 57.9423 23.2436 60.4896 19.9852 60.4896C16.6905 60.4896 14.12 57.9423 14.0838 54.6774C14.0838 53.4934 14.0838 52.3095 14.0838 51.1973C10.4633 50.2286 6.98766 49.2958 3.40339 48.3629C3.40339 48.7217 3.40339 49.1164 3.40339 49.4751C3.40339 61.4583 3.40339 73.4055 3.40339 85.3886C3.40339 87.5771 4.19989 88.3665 6.40838 88.3665C14.3372 88.3665 22.2661 88.3665 30.1949 88.3665C30.6294 88.2947 31.1362 88.2947 31.6793 88.2947ZM90.2224 49.6187C90.2224 48.2912 90.1862 47.0713 90.2224 45.8874C90.2948 42.6225 92.9377 40.0035 96.16 40.0393C99.3822 40.0752 101.953 42.6943 101.989 45.9591C101.989 46.4973 101.989 47.0355 101.989 47.8248C105.428 46.8202 108.687 45.8874 111.945 44.9546C112.525 44.7752 112.706 44.4882 112.706 43.9141C112.669 37.1691 112.706 30.4241 112.669 23.715C112.669 22.3517 111.837 21.4547 110.497 21.2754C110.063 21.2036 109.592 21.2036 109.157 21.2036C98.1512 21.2036 87.1088 21.2036 76.1025 21.2036C71.6855 21.2036 67.2686 21.2036 62.8878 21.2036C56.2261 21.2036 49.5282 21.2036 42.8666 21.2036C40.2598 21.2036 37.6531 21.2036 35.0825 21.2036C25.7055 21.2036 16.3647 21.2036 6.98766 21.2036C6.48079 21.2036 6.01013 21.2036 5.53947 21.2754C4.30851 21.4547 3.512 22.3158 3.512 23.5715C3.4758 30.3165 3.4758 37.0615 3.54821 43.7706C3.54821 44.0935 3.98267 44.6317 4.30851 44.7393C6.58941 45.5645 9.05133 46.282 11.5133 46.9996C12.3098 47.2149 13.1425 47.3584 14.0476 47.5736C14.0476 46.9278 14.0476 46.4255 14.0476 45.9591C14.0838 42.7302 16.6905 40.0752 19.9128 40.0752C23.135 40.0393 25.7779 42.6943 25.8141 45.9233C25.8141 47.1431 25.8141 48.3629 25.8141 49.6545C47.3197 52.166 68.6805 52.2018 90.2224 49.6187ZM77.08 17.9387C77.08 15.5349 77.08 13.2029 77.08 10.835C77.08 6.96019 75.0888 4.48464 71.2511 3.5877C70.7442 3.48006 70.2011 3.37243 69.6943 3.37243C61.9103 3.37243 54.1262 3.30068 46.3422 3.37243C41.7804 3.40831 38.8478 6.52966 38.8116 11.0144C38.8116 12.9517 38.8116 14.8891 38.8116 16.8624C38.8116 17.2212 38.8116 17.58 38.8116 17.9387C41.3098 17.9387 43.6269 17.9387 46.0164 17.9387C46.0164 15.5708 46.0164 13.3105 46.0164 11.0144C46.0164 9.72276 46.6319 9.04109 47.7904 9.04109C54.5607 9.04109 61.2948 9.04109 68.0651 9.04109C69.1512 9.04109 69.7667 9.68689 69.7667 10.835C69.8029 12.8441 69.7667 14.8891 69.7667 16.8983C69.7667 17.2571 69.7667 17.6158 69.7667 17.9746C72.301 17.9387 74.6181 17.9387 77.08 17.9387ZM57.9639 98.6633C66.6531 98.6633 75.3422 98.6633 83.9952 98.6633C85.7692 98.6633 86.8553 97.7305 86.8191 96.2954C86.7829 94.8962 85.6606 93.9633 83.9589 93.9275C83.0176 93.9275 82.0763 93.9275 81.135 93.9275C72.4458 93.9633 63.7929 93.9992 55.1038 93.9992C47.7904 93.9992 40.4771 93.9633 33.1275 93.9633C32.4034 93.9633 31.6793 93.9275 30.9914 94.071C29.7966 94.3221 29.1088 95.3626 29.1812 96.5465C29.2898 97.6587 30.1587 98.4839 31.3535 98.5916C31.7517 98.6274 32.1862 98.6274 32.5844 98.6274C41.0201 98.6633 49.492 98.6633 57.9639 98.6633ZM41.1287 76.4551C41.8166 76.4551 42.1787 76.4551 42.5407 76.4551C43.8079 76.4551 45.1113 76.4192 46.3784 76.4551C47.5732 76.491 48.3697 77.1726 48.4059 78.1413C48.4421 79.1459 47.5732 79.8635 46.3422 79.9352C46.0888 79.9352 45.7991 79.9352 45.5457 79.9352C43.4458 79.9352 41.3098 79.9352 39.2099 79.9352C38.884 79.9352 38.3772 80.007 38.2324 80.2222C37.6531 81.1551 37.1462 82.1238 36.5307 83.2718C37.1824 83.2718 37.5445 83.2718 37.9065 83.2718C40.6219 83.2718 43.3372 83.2718 46.0526 83.2718C47.5732 83.2718 48.4059 83.8818 48.4059 84.9581C48.4059 86.0344 47.537 86.6802 46.0888 86.6802C44.0613 86.6802 41.9977 86.6802 39.9702 86.6802C38.4496 86.6802 36.9652 86.6802 35.3722 86.6802C35.1912 88.0077 35.0101 89.2275 34.8291 90.4832C40.5495 90.4832 46.0888 90.4832 51.6643 90.4832C51.6643 83.7024 51.6643 77.0291 51.6643 70.2124C47.6094 71.2887 44.2785 73.3337 41.1287 76.4551ZM79.3609 83.3077C78.9627 82.4825 78.6006 81.8726 78.3472 81.1909C77.949 80.1864 77.2973 79.8276 76.1749 79.8993C74.0388 80.007 71.8666 79.9352 69.7305 79.9352C68.934 79.9352 68.1375 79.6841 67.9565 78.8589C67.8478 78.2849 67.9565 77.4955 68.3185 77.0291C68.6081 76.6345 69.3684 76.491 69.9477 76.491C71.4683 76.4192 72.9889 76.4551 74.8354 76.4551C71.7579 73.3337 68.4271 71.3246 64.4808 70.2483C64.4808 77.1009 64.4808 83.81 64.4808 90.555C70.0563 90.555 75.5594 90.555 81.1712 90.555C81.0264 89.6222 80.8453 88.797 80.8091 87.9718C80.7729 86.9672 80.3023 86.7161 79.3247 86.7161C76.1025 86.7878 72.9165 86.7161 69.6943 86.752C68.753 86.752 68.0651 86.3573 67.8478 85.4245C67.6306 84.6352 67.9565 83.8818 68.7168 83.5589C69.1512 83.3795 69.6581 83.3436 70.1287 83.3436C73.0975 83.2718 76.1387 83.3077 79.3609 83.3077ZM60.9327 90.5191C60.9327 90.1245 60.9689 89.8733 60.9689 89.6222C60.9689 82.4467 60.9689 75.2711 60.9327 68.0956C60.9327 66.1941 59.7742 64.9384 58.0364 64.9384C56.2623 64.9384 55.0314 66.1941 55.0314 68.1315C55.0314 75.307 55.0314 82.4825 55.0314 89.658C55.0314 89.9451 55.1038 90.2321 55.1038 90.5191C57.095 90.5191 58.9777 90.5191 60.9327 90.5191ZM66.3634 17.9746C66.3634 16.0372 66.3634 14.2433 66.3634 12.4136C60.7517 12.4136 55.1762 12.4136 49.6006 12.4136C49.6006 14.3151 49.6006 16.109 49.6006 17.9746C55.2124 17.9746 60.7155 17.9746 66.3634 17.9746ZM22.4471 50.2286C22.4471 48.8293 22.4471 47.466 22.4471 46.0668C22.4471 45.995 22.4471 45.9233 22.4471 45.8515C22.3747 44.3805 21.3247 43.3401 19.949 43.3401C18.537 43.3401 17.4146 44.3805 17.4146 45.8156C17.3784 48.7576 17.3784 51.6996 17.4146 54.6774C17.4508 56.1484 18.6456 57.2247 20.0576 57.1888C21.4696 57.1529 22.4109 56.1484 22.4471 54.6056C22.4833 53.1705 22.4471 51.6996 22.4471 50.2286ZM98.5857 50.3362C98.5857 48.8652 98.6219 47.4301 98.5857 45.9591C98.5495 44.4523 97.4271 43.3401 96.0513 43.3759C94.6756 43.4118 93.5894 44.4523 93.5894 45.9233C93.5532 48.7935 93.5532 51.6637 93.5894 54.5339C93.5894 56.0407 94.6756 57.1529 96.0875 57.1888C97.4995 57.2247 98.5495 56.1484 98.5857 54.6056C98.5857 53.1705 98.5857 51.7354 98.5857 50.3362Z" fill="#3A61AE"/>
<path d="M57.9278 28.9531C63.9378 28.9531 69.9116 28.9531 75.9216 28.9531C78.5645 28.9531 79.8679 30.2447 79.9041 32.8638C79.9041 35.1958 79.9041 37.492 79.9041 39.824C79.9041 42.1202 78.5283 43.5194 76.175 43.5553C72.3373 43.5912 68.4634 43.5553 64.6257 43.5553C56.4796 43.5553 48.3335 43.5553 40.1875 43.5553C37.3635 43.5553 36.0239 42.2278 36.0239 39.4294C36.0239 37.1332 36.0239 34.8729 36.0239 32.5768C36.0239 30.3165 37.3997 28.9531 39.6806 28.9531C45.7992 28.9531 51.8816 28.9531 57.9278 28.9531ZM39.4634 32.1821C39.4634 34.9088 39.4634 37.492 39.4634 40.1111C51.8454 40.1111 64.1912 40.1111 76.5008 40.1111C76.5008 37.4202 76.5008 34.8371 76.5008 32.1821C64.155 32.1821 51.8454 32.1821 39.4634 32.1821Z" fill="#3A61AE"/>
</g>
<defs>
<clipPath id="clip0_137_55">
<rect width="116" height="102" fill="white"/>
</clipPath>
</defs>
</svg>
