<svg width="96" height="96" viewBox="0 0 96 96" fill="none" xmlns="http://www.w3.org/2000/svg">
<g clip-path="url(#clip0_137_92)">
<path d="M96 7.60576C95.9272 3.38438 92.4701 0 88.2487 0H7.75133C3.49356 0 0 3.45716 0 7.75133V88.2487C0 92.5064 3.49356 96 7.75133 96H88.2487C92.5064 96 96 92.5064 96 88.2487V7.75133C96 7.71494 96 7.64215 96 7.60576ZM7.75133 3.74829H88.2487C90.3958 3.74829 92.1425 5.45868 92.2153 7.60576H3.78469C3.82108 5.49507 5.60425 3.74829 7.75133 3.74829ZM88.2487 92.2153H7.75133C5.56785 92.2153 3.78469 90.4322 3.78469 88.2487L48.5095 88.1031C48.7278 88.1031 48.9462 88.1031 49.1281 88.1031C49.492 88.0667 49.856 87.9939 50.1471 87.8484C50.8749 87.5209 51.348 86.8658 51.3116 86.1016C51.2752 85.0463 50.4382 84.282 49.1645 84.1729C48.837 84.1365 48.4731 84.1729 48.1456 84.1729H29.2585C29.2585 84.1365 29.2585 84.1001 29.2585 84.1001C29.2221 83.7726 29.1857 83.5906 29.1857 83.3723C29.1857 78.7142 29.1494 74.0561 29.2221 69.398C29.2585 66.887 30.6414 65.213 32.934 64.3033C33.0432 64.2669 33.1524 64.2305 33.2616 64.1577C34.0622 63.8302 34.8992 63.539 35.7362 63.2115C37.119 62.702 38.5383 62.1926 39.9575 61.6831C40.3578 61.5375 40.9401 61.6103 41.3404 61.7923C45.9257 64.0485 50.511 64.0121 55.1327 61.8287C55.5694 61.6103 56.2972 61.5739 56.7703 61.7195C58.0804 62.1562 59.3905 62.6657 60.7005 63.1751C61.5375 63.5027 62.3381 63.7938 63.1387 64.1213C63.1751 64.1213 63.2115 64.1577 63.2843 64.1577C66.05 65.213 67.3965 67.1054 67.3965 70.0531C67.3965 74.2745 67.3601 78.5322 67.4329 82.7536C67.4329 83.4814 67.251 83.8817 66.8143 84.0637C66.6323 84.1365 66.3412 84.1729 66.05 84.1729C63.6482 84.1365 61.21 84.1365 58.8082 84.1729C57.2798 84.1729 56.3336 84.9371 56.3336 86.138C56.3336 86.9386 56.7703 87.5572 57.5345 87.8484C57.8984 87.9939 58.3351 88.1031 58.8082 88.1031C60.3366 88.1031 92.2517 88.2487 92.2517 88.2487C92.2153 90.4322 90.4322 92.2153 88.2487 92.2153ZM33.3343 50.6202C33.3343 50.6566 33.3343 50.6566 33.3343 50.6202C31.442 49.7832 31.1509 47.1266 33.4071 45.8893C33.116 47.4177 33.0796 49.019 33.3343 50.6202ZM31.8787 42.7597C31.3328 39.0478 33.6255 33.2252 38.3563 30.6778C44.0334 27.6209 50.1107 27.2206 56.188 29.8408C61.9742 32.3154 64.4852 37.8105 64.7036 42.8325C64.1941 42.6869 63.7938 42.5413 63.3935 42.4321C62.9204 42.323 62.4473 42.2866 62.0106 42.2502C61.0281 39.9939 59.536 38.1016 57.8984 36.7551C52.185 32.097 43.815 32.2062 38.3199 37.0099C37.0462 38.138 35.9181 39.5209 35.0811 41.0857C33.953 41.486 32.7521 41.9955 31.8787 42.7597ZM63.1024 45.9621C64.8127 46.7263 65.3222 49.3101 63.1387 50.6566C63.3935 49.019 63.3571 47.4541 63.1024 45.9621ZM58.5171 44.2153C56.5155 44.652 55.0235 44.3609 53.7498 42.5777C52.1122 40.2487 50.2199 40.2851 48.5459 42.5413C47.5269 43.9242 46.3988 44.5428 44.6156 44.3973C42.5049 44.2153 40.3942 44.3245 38.2836 44.3245C38.2108 44.3245 38.138 44.2881 38.0652 44.2517C38.5019 40.8673 43.1236 37.5193 47.7817 37.1554C52.2942 36.8643 57.3162 40.1395 58.5171 44.2153ZM37.1918 48.2547C37.4466 48.2547 37.6649 48.2547 37.9196 48.2547C40.1031 48.2547 42.323 48.182 44.5064 48.2911C47.1266 48.4003 49.6376 48.3639 51.1296 45.1251C52.7673 48.837 55.7513 48.2547 58.4807 48.2911C58.6262 48.2911 58.8082 48.2911 58.9538 48.2911C59.0993 48.2911 59.2813 48.2911 59.4268 48.3275C59.4632 48.8734 59.4268 49.4193 59.3541 49.9287C59.2085 50.9841 58.9174 52.0394 58.4807 53.022C56.6975 56.9886 52.5125 59.8635 48.0364 59.718C43.5239 59.5724 39.5209 56.6975 37.9196 52.9492C37.301 51.4208 37.0462 49.856 37.1918 48.2547ZM92.2153 84.1001H71.1812V68.6338C71.1812 68.0516 71.1084 67.4693 70.9265 66.9234C69.9439 63.9757 67.9788 62.229 65.6133 61.0281C64.8491 60.6278 64.0121 60.2638 63.1751 59.9727C61.9742 59.536 60.7005 59.1357 59.4632 58.699C60.5914 57.2798 61.4648 55.8605 62.0834 54.4412C62.5201 54.3685 62.9204 54.2957 63.2479 54.2229C66.887 53.2039 68.7794 51.1297 68.8522 48.2547C69.1069 33.5163 62.9204 24.8916 47.5633 25.1463C34.8628 25.3647 25.9833 32.3518 27.7301 48.9462C27.9848 51.4572 29.9136 52.9856 32.8977 54.0773C33.2616 54.1865 33.8074 54.2957 34.4261 54.3685C35.0447 55.7877 35.8817 57.2434 37.0462 58.6262C35.8453 59.2085 34.5716 59.6088 33.3343 60.0455C32.4973 60.3366 31.6604 60.6641 30.8597 61.0644C30.6778 61.1372 30.4958 61.2464 30.3503 61.3192C29.5497 61.7559 28.8218 62.3017 28.2032 62.9568C27.5845 63.6118 27.0387 64.3397 26.6384 65.1767C25.765 66.8506 25.3283 68.743 25.3283 70.6353C25.3283 74.4928 25.2919 80.279 25.2919 84.1365H3.85747V11.3904H13.5011V64.558C13.5011 65.7225 14.4473 66.7051 15.6482 66.7051C16.8127 66.7051 17.7953 65.7589 17.7953 64.558V11.3904H31.26V19.9424C31.26 21.1433 32.2062 22.0895 33.4071 22.0895C34.5716 22.0895 35.5542 21.1433 35.5542 19.9424V11.3904H46.0713V15.6118C46.0713 16.8127 47.0174 17.7589 48.2183 17.7589C49.4193 17.7589 50.3654 16.8127 50.3654 15.6118V11.3904H60.8825V19.9424C60.8825 21.1433 61.8287 22.0895 63.0296 22.0895C64.1941 22.0895 65.1767 21.1433 65.1767 19.9424V11.3904H78.9689V64.558C78.9689 65.7225 79.9151 66.7051 81.116 66.7051C82.2805 66.7051 83.2631 65.7589 83.2631 64.558V11.3904H92.2153V84.1001Z" fill="#3A61AE"/>
</g>
<defs>
<clipPath id="clip0_137_92">
<rect width="96" height="96" fill="white"/>
</clipPath>
</defs>
</svg>
