<svg width="99" height="104" viewBox="0 0 99 104" fill="none" xmlns="http://www.w3.org/2000/svg">
<g clip-path="url(#clip0_137_6)">
<path d="M46.3533 75.8477C45.634 73.4865 43.9079 73.2323 42.6493 73.2686C40.204 73.3049 37.6867 73.3049 35.2773 73.2686H32.6882C32.6882 72.5784 32.6882 71.8882 32.6522 71.198C32.6162 70.5805 32.5443 69.9266 32.2926 69.3454C31.4295 67.3838 29.7753 66.2941 27.6177 66.2214C25.3881 66.1488 23.1586 66.1851 21.0009 66.1851H18.6275C18.3398 66.1851 18.0521 66.2214 17.7645 66.2941C15.4989 66.6937 13.8088 68.4736 13.593 70.5805C13.5211 71.2707 13.5211 71.9972 13.557 72.6874V72.76C13.557 72.9053 13.557 73.087 13.557 73.2323H8.30677C6.58065 73.2323 4.85453 73.2323 3.12842 73.2323C1.33038 73.2323 -0.0361328 74.6126 -0.0361328 76.4289V100.767C-0.0361328 101.058 -0.000172038 101.348 0.0717495 101.566C0.467318 103.056 1.65402 103.964 3.30822 103.964C5.60971 103.964 28.1931 103.964 35.0256 103.964H37.6508C39.4128 103.964 41.1749 103.964 42.937 103.964C43.836 103.964 44.5193 103.782 45.0587 103.382C45.5981 102.983 45.9937 102.365 46.2454 101.53C46.3533 101.203 46.3533 77.1554 46.3533 76.102V75.8477ZM16.0024 71.416C16.0024 69.745 17.0812 68.6189 18.6994 68.6189C21.0009 68.5826 23.3384 68.6189 25.6039 68.6189H27.6896C27.8694 68.6189 28.0492 68.6552 28.229 68.6916C29.6315 69.0185 30.3507 69.9266 30.3507 71.3433V73.9588H27.9054V73.0143C27.9054 72.4694 27.9054 71.8882 27.9054 71.3433C27.9054 70.7984 27.5817 70.4715 27.0783 70.4715C24.4891 70.4715 21.864 70.4715 19.2748 70.4715C18.7354 70.4715 18.4117 70.7985 18.4117 71.416C18.4117 72.0335 18.4117 72.6874 18.4117 73.3049V73.9588H16.0024V71.416ZM26.2152 72.1425V73.9588H20.1379V72.1425H26.2152ZM43.2966 100.513C43.2966 100.658 43.2966 100.731 43.2966 100.767C43.2606 100.767 43.1528 100.767 43.0449 100.767H3.34418C3.2363 100.767 3.16438 100.767 3.09245 100.767C3.09245 100.731 3.09245 100.658 3.09245 100.513V87.1813L5.39394 87.7988V88.489C5.39394 89.3608 5.75355 90.16 6.32892 90.7412C6.9043 91.3224 7.73139 91.6493 8.55849 91.6493C10.1767 91.6493 11.5073 90.4506 11.6871 88.8159C19.3467 89.6514 27.0783 89.6514 34.702 88.8159C34.702 88.9249 34.7379 89.0339 34.7379 89.1065C35.0616 90.7048 36.536 91.7946 38.1542 91.613C39.7365 91.4313 40.9232 90.0873 40.9591 88.489C40.9591 88.271 40.9591 88.0167 40.9591 87.7988L43.2606 87.1813V100.513H43.2966ZM7.76735 85.0744C7.76735 84.6385 8.12696 84.2752 8.55849 84.2752C8.99002 84.2752 9.31367 84.6021 9.31367 85.0744V87.3629C9.31367 87.7261 9.31367 88.1257 9.31367 88.489C9.31367 88.9975 9.02598 89.3245 8.55849 89.3245C8.34273 89.3245 8.12696 89.2518 7.98312 89.1065C7.83928 88.9612 7.73139 88.7433 7.73139 88.5253C7.76735 87.4719 7.76735 86.3094 7.76735 85.0744ZM38.6217 87.3629C38.6217 87.7261 38.6217 88.1257 38.6217 88.5253C38.6217 89.0339 38.298 89.3608 37.8306 89.3608C37.3631 89.3608 37.0394 88.9975 37.0394 88.489C37.0394 87.3629 37.0394 86.2368 37.0394 85.1107C37.0394 84.6385 37.3631 84.3115 37.7946 84.3115C37.9744 84.3115 38.1542 84.3842 38.298 84.5295C38.4779 84.6748 38.5498 84.8928 38.5498 85.147C38.5498 85.5466 38.5498 85.9462 38.5498 86.3458V86.8543L38.6217 87.3629ZM41.7503 84.4205L40.9591 84.6748C40.7434 83.1128 39.4488 81.9141 37.8665 81.9141C36.1404 81.8777 34.702 83.2944 34.666 85.1107C34.666 85.3287 34.666 85.5466 34.666 85.8009C27.0423 86.6727 19.3467 86.6727 11.723 85.8009C11.723 85.5829 11.723 85.365 11.723 85.147C11.723 83.4034 10.2846 81.9504 8.55849 81.9504C6.97622 81.9504 5.68163 83.1491 5.4299 84.6748C4.67473 84.4569 3.88359 84.2389 3.09245 83.9846C3.09245 81.6598 3.09245 79.2623 3.09245 76.4289C3.09245 76.4289 3.09245 76.4289 3.12842 76.4289C3.2363 76.3926 3.4161 76.3926 3.55994 76.3926H42.8651C43.0089 76.3926 43.1528 76.3926 43.2247 76.3926C43.2606 76.3926 43.2606 76.3926 43.2966 76.3926V76.4289C43.2966 77.664 43.2966 78.899 43.2966 80.1704C43.2966 81.4418 43.2966 82.7132 43.2966 83.9846C42.7931 84.0936 42.2897 84.2752 41.7503 84.4205Z" fill="#3A61AE"/>
<path d="M30.099 77.5549H19.8502C18.6275 77.5549 17.3689 77.5549 16.1462 77.5549C14.7797 77.5549 13.8447 78.4994 13.8447 79.8798C13.8447 80.3883 13.8447 80.8969 13.8447 81.3691V82.5679C13.8447 84.1662 14.7437 85.0743 16.326 85.0743H28.3369C28.9483 85.0743 29.5596 85.0743 30.1709 85.0743C31.5374 85.0743 32.4724 84.1299 32.5084 82.7132C32.5084 81.805 32.5084 80.8969 32.5084 79.9887C32.5084 78.4631 31.6093 77.5549 30.099 77.5549ZM30.135 82.6405H16.2541V79.9161H30.135V82.6405Z" fill="#3A61AE"/>
<path d="M74.5465 5.23088V7.37408C74.5465 8.3912 73.7553 9.19036 72.7484 9.19036C71.7415 9.19036 70.9504 8.3912 70.9504 7.37408V5.23088C70.9504 4.35906 70.3031 3.63255 69.5119 3.63255H43.3685C42.5773 3.63255 41.93 4.35906 41.93 5.23088V69.5997C41.93 70.6168 41.1389 71.416 40.132 71.416C39.1251 71.416 38.334 70.6168 38.334 69.5997V22.4855L10.5003 34.1097C9.99687 34.3276 9.67323 34.8725 9.67323 35.4174V69.5997C9.67323 70.6168 8.88209 71.416 7.87519 71.416C6.86829 71.416 6.07715 70.6168 6.07715 69.5997V35.4174C6.07715 33.4558 7.19193 31.6759 8.95401 30.8404L38.334 18.4897V5.23088C38.334 2.36116 40.5995 0 43.3685 0H69.5119C72.2809 0 74.5465 2.32483 74.5465 5.23088Z" fill="#3A61AE"/>
<path d="M96.5185 46.2788L87.3126 40.9027C86.8811 40.6484 86.4136 40.5757 85.9461 40.721C85.4786 40.83 85.083 41.1569 84.8673 41.5565C84.6155 41.9924 84.5796 42.4647 84.6875 42.9369C84.7953 43.4091 85.119 43.8087 85.5146 44.0267L94.7205 49.4028C95.152 49.6571 95.4397 50.1293 95.4397 50.6742V100.331H74.978V59.2834C74.978 58.2663 74.151 57.4671 73.18 57.4671C72.1731 57.4671 71.382 58.3026 71.382 59.2834V100.331H64.1539V86.5275C64.1539 84.6023 62.6075 83.0766 60.7376 83.0766H54.3006C52.3947 83.0766 50.8843 84.6386 50.8843 86.5275V100.331H49.1223C48.1154 100.331 47.3242 101.13 47.3242 102.148C47.3242 103.165 48.1513 103.964 49.1223 103.964H99.0358V50.6742C98.9998 48.8943 98.0649 47.187 96.5185 46.2788ZM60.5578 100.368H54.4804V86.7455H60.5578V100.368Z" fill="#3A61AE"/>
<path d="M82.7456 28.6971L79.3294 24.556C80.4801 23.0303 81.0555 21.1777 80.9476 19.2525C80.7318 15.2567 77.4594 11.951 73.4678 11.6968C71.2741 11.5878 69.1884 12.3506 67.6062 13.8763C66.0239 15.402 65.1249 17.5089 65.1249 19.6884C65.1249 19.7974 65.1249 19.87 65.1249 19.9427C65.1608 20.4149 65.3406 20.8871 65.7002 21.2141C66.0598 21.541 66.5273 21.7226 66.9948 21.6863C67.4623 21.6863 67.9298 21.4683 68.2534 21.1051C68.5771 20.7418 68.7569 20.2696 68.7209 19.7974C68.7209 19.761 68.7209 19.6884 68.7209 19.6521C68.7209 18.4533 69.2244 17.3272 70.0874 16.4917C70.9505 15.6563 72.1012 15.2203 73.288 15.293C75.4456 15.402 77.2436 17.2182 77.3515 19.3978C77.3875 20.1606 77.2436 20.8871 76.92 21.5773L74.8702 19.0708C74.3308 18.417 73.5037 18.0174 72.6047 17.9811C71.7057 17.9448 70.8786 18.3443 70.3032 18.9982L62.1042 28.4792C61.6367 28.9877 61.4209 29.6779 61.4209 30.3318V51.9455C61.4209 53.5438 62.7514 54.8152 64.3697 54.8152H80.4441C82.0624 54.8152 83.3929 53.5075 83.3929 51.9455V30.5134C83.3929 29.8595 83.1772 29.2057 82.7456 28.6971ZM79.7969 51.3279H65.017V30.7313L72.5687 22.0132L74.151 23.9385C73.7914 24.0474 73.4318 24.0838 73.0722 24.0838C72.0653 24.0838 71.2741 24.9193 71.2741 25.9001C71.2741 26.9172 72.0653 27.7163 73.0722 27.7163C74.2949 27.7163 75.4816 27.4257 76.5604 26.8808L79.7969 30.804V51.3279Z" fill="#3A61AE"/>
<path d="M26.3949 38.7229H19.9939C18.088 38.7229 16.5776 40.2849 16.5776 42.1738V53.2168C16.5776 55.142 18.1239 56.6677 19.9939 56.6677H26.4309C28.3368 56.6677 29.8472 55.1057 29.8472 53.2168V42.1738C29.8472 40.2849 28.3008 38.7229 26.3949 38.7229ZM26.2511 53.0352H20.1378V42.3191H26.2511V53.0352Z" fill="#3A61AE"/>
<path d="M88.8591 77.446H82.4221C80.5162 77.446 79.0059 79.008 79.0059 80.897V89.2882C79.0059 91.2134 80.5522 92.7391 82.4221 92.7391H88.8591C90.765 92.7391 92.2754 91.1771 92.2754 89.2882V80.897C92.2754 78.9717 90.7291 77.446 88.8591 77.446ZM88.6793 89.1065H82.6019V81.0423H88.6793V89.1065Z" fill="#3A61AE"/>
<path d="M88.8591 57.031H82.4221C80.5162 57.031 79.0059 58.593 79.0059 60.4819V68.8731C79.0059 70.7984 80.5522 72.3241 82.4221 72.3241H88.8591C90.765 72.3241 92.2754 70.7621 92.2754 68.8731V60.4819C92.2754 58.593 90.7291 57.031 88.8591 57.031ZM88.6793 68.7278H82.6019V60.6636H88.6793V68.7278Z" fill="#3A61AE"/>
<path d="M60.2341 59.8281H53.7971C51.8912 59.8281 50.3809 61.3901 50.3809 63.2791V74.322C50.3809 76.2473 51.9272 77.7729 53.7971 77.7729H60.2341C62.14 77.7729 63.6504 76.2109 63.6504 74.322V63.2791C63.6504 61.3901 62.14 59.8281 60.2341 59.8281ZM60.0543 74.1404H53.9769V63.4607H60.0543V74.1404Z" fill="#3A61AE"/>
<path d="M57.717 50.6378C57.717 51.6549 56.8899 52.4541 55.919 52.4541H53.8333C51.9273 52.4541 50.417 50.8921 50.417 49.0032V37.9602C50.417 36.0349 51.9633 34.5093 53.8333 34.5093H55.6673C56.6742 34.5093 57.4653 35.3084 57.4653 36.3256C57.4653 37.3427 56.6382 38.1418 55.6673 38.1418H53.9771V48.8215H55.883C56.8899 48.8215 57.717 49.657 57.717 50.6378Z" fill="#3A61AE"/>
<path d="M63.6506 10.1713C63.6506 11.1884 62.8594 11.9875 61.8525 11.9875H53.9771V22.6672H58.1126C59.1195 22.6672 59.9106 23.5027 59.9106 24.4835C59.9106 25.5006 59.1195 26.2998 58.1126 26.2998H53.8333C51.9273 26.2998 50.417 24.7378 50.417 22.8489V11.8059C50.417 9.88065 51.9633 8.35498 53.8333 8.35498H61.8525C62.8594 8.35498 63.6506 9.15414 63.6506 10.1713Z" fill="#3A61AE"/>
<path d="M77.3872 42.7552C77.3872 43.8449 77.0636 44.7531 76.3803 45.4432C75.8409 45.9881 75.1936 46.3514 74.3306 46.533V48.1677H71.7414V46.4967C70.8783 46.3151 70.1951 45.9155 69.6197 45.2979C68.9364 44.5351 68.6128 43.5543 68.6128 42.3193V41.5927H71.4897V42.3193C71.4897 42.8641 71.5975 43.2637 71.8493 43.518C72.101 43.7723 72.4606 43.8812 72.964 43.8812C73.4675 43.8812 73.8631 43.7723 74.1148 43.5543C74.3306 43.3727 74.4384 43.1184 74.4384 42.7552C74.4384 42.4646 74.3306 42.2466 74.1507 42.0286C73.9709 41.847 73.5754 41.5927 72.7123 41.3021C71.4897 40.9389 70.5906 40.4303 69.9793 39.7765C69.332 39.0863 69.0084 38.2145 69.0084 37.161C69.0084 36.1076 69.332 35.2358 69.9433 34.5456C70.4468 34.0007 71.0581 33.6374 71.8133 33.4195V31.5669H74.4384V33.4558C75.2296 33.6738 75.8769 34.1097 76.3444 34.7272C76.9197 35.4901 77.2434 36.5072 77.2434 37.7422V38.4687H74.3665V37.7422C74.3665 37.161 74.2227 36.7251 74.0069 36.3982C73.7911 36.1076 73.5394 35.9986 73.1438 35.9986C72.7123 35.9986 72.3887 36.1076 72.2089 36.2892C72.0291 36.4708 71.9212 36.7614 71.9212 37.1247C71.9212 37.5606 72.101 37.7786 72.2089 37.8875C72.3887 38.0692 72.7842 38.3234 73.6833 38.614C74.5463 38.9047 75.2296 39.2316 75.733 39.5585C76.2724 39.9218 76.668 40.394 76.9557 40.9389C77.2434 41.4838 77.3872 42.065 77.3872 42.7552Z" fill="#3A61AE"/>
</g>
<defs>
<clipPath id="clip0_137_6">
<rect width="99" height="104" fill="white"/>
</clipPath>
</defs>
</svg>
