<svg width="98" height="98" viewBox="0 0 98 98" fill="none" xmlns="http://www.w3.org/2000/svg">
<g clip-path="url(#clip0_137_69)">
<path d="M4.7501 47.3923C4.7501 43.6652 4.7501 40.0843 4.7501 36.5034C4.7501 31.8994 8.18485 28.4647 12.7889 28.4281C15.1274 28.4281 17.466 28.4647 19.8045 28.3916C20.243 28.3916 20.7546 28.1358 21.0469 27.8435C22.2527 26.6377 23.6047 25.7972 25.3221 25.3953C25.3221 22.1433 25.3221 18.8912 25.3221 15.6392C25.3221 15.493 25.2855 15.3468 25.2855 15.018C24.8836 15.3834 24.5547 15.6757 24.2624 15.9315C21.9969 17.9046 18.9641 17.9046 16.8083 15.8584C14.3966 13.5929 14.1408 13.5929 11.6561 15.8584C10.5965 16.8084 9.39066 17.3931 7.89253 17.32C6.94249 17.2835 6.35785 16.6988 6.32131 15.7488C6.28477 12.5698 6.32131 9.42737 6.32131 6.2484C6.32131 5.37145 6.79633 4.71373 7.63675 4.67719C8.6964 4.60411 9.39066 4.05601 10.0849 3.36175C11.6927 1.71746 13.6293 0.986659 15.8217 1.754C16.8083 2.08286 17.7218 2.81365 18.4891 3.50791C20.1699 5.00605 20.9738 5.04259 22.5816 3.50791C22.9835 3.10597 23.3854 2.66749 23.8605 2.41171C24.9567 1.9367 25.6509 1.27898 25.249 -0.072998C26.3452 -0.072998 27.3318 -0.072998 28.4279 -0.072998C28.4279 8.29464 28.4279 16.6988 28.4279 25.1395C29.5241 25.1395 30.4742 25.1395 31.6069 25.1395C31.6069 23.8606 31.68 22.5817 31.6069 21.2663C31.4973 18.9277 32.3012 17.1738 34.457 16.0776C34.7494 15.9315 34.8955 15.3834 34.9686 15.018C36.1013 9.17159 39.4995 5.29837 45.1632 3.58099C53.2385 1.13282 61.7523 6.65034 63.0678 14.9449C63.1774 15.6026 63.4332 16.0046 64.0543 16.37C65.589 17.2469 66.4294 18.5989 66.4294 20.4259C66.4294 21.9606 66.4294 23.4952 66.4294 25.1395C67.4891 25.1395 68.4757 25.1395 69.5719 25.1395C69.5719 16.7719 69.5719 8.40426 69.5719 -0.0364582C70.6315 -0.0364582 71.6546 -0.0364582 72.6412 -0.0364582C72.6778 8.17403e-05 72.7508 0.0731615 72.7143 0.109701C72.6047 1.13282 72.8605 1.90016 73.9932 2.26555C74.4317 2.41171 74.7971 2.81365 75.1625 3.17905C77.2452 5.15221 77.7933 5.15221 79.9127 3.14251C80.9723 2.1194 82.1781 1.49822 83.6763 1.46168C85.2475 1.42514 86.5629 1.97324 87.6957 3.03289C88.5361 3.83677 89.3034 4.60411 90.6189 4.67719C91.3496 4.71373 91.7881 5.37145 91.7881 6.17532C91.7881 9.35429 91.7881 12.4967 91.7881 15.6757C91.7881 16.6623 91.1669 17.2104 90.1438 17.2469C88.7919 17.2835 87.6591 16.7719 86.636 15.8949C86.3437 15.6757 86.1244 15.3834 85.8321 15.1641C84.334 13.7025 83.3474 13.666 81.8858 15.2007C79.5838 17.6488 76.8433 17.6854 75.0163 16.6257C74.249 16.1873 73.6278 15.5661 72.8605 14.9814C72.8605 18.4162 72.8605 21.8144 72.8605 25.2857C74.6144 25.7242 76.076 26.6377 77.3183 27.9896C77.501 28.2089 77.9395 28.282 78.2684 28.282C80.4973 28.3185 82.7628 28.3916 84.9917 28.282C89.6323 28.0262 93.6151 31.9359 93.3959 36.7227C93.2497 39.8651 93.3593 43.0441 93.3593 46.223C93.3593 46.5519 93.3593 46.8808 93.3593 47.2827C94.3094 47.2827 95.1863 47.2827 96.0633 47.2827C97.5614 47.2827 98.1095 47.7943 98.073 49.2924C97.9634 60.4736 94.4555 70.4855 87.513 79.2186C79.4376 89.4132 68.9142 95.6981 56.0156 97.3789C38.5495 99.6809 23.7874 94.0538 12.0215 80.8994C5.55397 73.8837 1.8269 65.3699 0.438389 55.8696C0.10953 53.6772 0.0729899 51.4848 -8.99183e-05 49.2924C-0.0731697 48.0135 0.548009 47.4654 1.86344 47.4289C2.77694 47.3923 3.69044 47.3923 4.7501 47.3923ZM75.8933 47.3558C75.8933 46.9904 75.8933 46.6981 75.8933 46.4057C75.8933 42.2037 75.8933 37.965 75.8933 33.7629C75.8933 30.4013 73.9201 28.4281 70.5584 28.4281C56.1983 28.4281 41.8381 28.4281 27.4779 28.4281C24.0797 28.4281 22.1431 30.3647 22.1431 33.7629C22.1431 37.965 22.1431 42.2037 22.1431 46.4057C22.1431 46.7346 22.1796 47.0269 22.1796 47.3192C24.3355 47.3192 26.3817 47.3192 28.4645 47.3192C28.4645 45.273 28.4645 43.2999 28.4645 41.3267C28.4645 39.2074 29.7434 37.9285 31.8262 37.9285C32.7397 37.9285 33.6532 37.9285 34.6032 37.9285C36.686 37.9285 37.9649 39.2074 37.9649 41.3267C37.9649 43.3364 37.9649 45.3095 37.9649 47.3558C40.1207 47.3558 42.1669 47.3558 44.2863 47.3558C44.2863 45.2365 44.2863 43.1537 44.2863 41.0709C44.2863 39.2805 45.6382 37.9285 47.3922 37.9285C48.4883 37.9285 49.548 37.9285 50.6442 37.9285C52.3981 37.965 53.7136 39.2805 53.7501 41.0709C53.7501 42.2037 53.7501 43.2999 53.7501 44.4326C53.7501 45.4192 53.7501 46.3692 53.7501 47.3192C55.9425 47.3192 57.9887 47.3192 60.0715 47.3192C60.0715 45.1999 60.0715 43.1537 60.0715 41.1075C60.0715 39.2805 61.4235 37.9285 63.2139 37.8919C64.164 37.8919 65.114 37.8919 66.064 37.8919C68.293 37.8919 69.4988 39.1343 69.5353 41.3998C69.5353 43.3729 69.5353 45.3461 69.5353 47.3558C71.6912 47.3558 73.7009 47.3558 75.8933 47.3558ZM29.5607 70.3394C35.809 67.745 42.24 66.3565 48.9634 66.3565C55.7233 66.3565 62.1908 67.7085 68.4026 70.3028C69.8277 66.0277 71.5085 53.1291 70.9604 50.6078C56.3079 50.6078 41.6189 50.6078 26.8933 50.6078C27.076 57.2946 27.8433 63.8353 29.5607 70.3394ZM67.5256 73.5914C59.5234 68.3662 39.2072 68.3662 30.4011 73.628C31.205 75.6742 31.9358 77.7935 32.8127 79.8032C34.5667 83.8226 36.7956 87.5862 39.9746 90.6921C45.6017 96.1365 52.2885 96.2096 57.9156 90.7652C62.812 86.015 65.4063 79.9128 67.5256 73.5914ZM23.6778 50.6078C16.8083 50.6078 10.0484 50.6078 3.25196 50.6078C3.03272 60.0717 9.0618 74.7242 15.2736 79.8032C18.6353 76.6242 22.3623 73.9568 26.4913 71.801C24.6643 64.8584 23.8605 57.8062 23.6778 50.6078ZM74.3221 50.6078C74.1394 57.8062 73.3355 64.8584 71.5085 71.801C75.674 73.9568 79.4011 76.6973 82.7993 79.8397C90.7285 71.3625 94.6382 60.0351 94.7478 50.6078C87.9514 50.6078 81.1916 50.6078 74.3221 50.6078ZM38.1476 15.7122C45.419 15.7122 52.6174 15.7122 59.8157 15.7122C59.3407 10.5601 54.3347 6.2484 48.9268 6.28494C43.5555 6.32148 38.6226 10.6332 38.1476 15.7122ZM18.9276 31.5705C16.991 31.5705 15.0543 31.5705 13.1177 31.5705C9.86568 31.5705 7.89253 33.5437 7.89253 36.7957C7.89253 39.9747 7.89253 43.1902 7.89253 46.3692C7.89253 46.6981 7.92907 46.9904 7.92907 47.2827C9.53682 47.2827 11.0715 47.2827 12.6793 47.2827C12.6793 45.7115 12.6793 44.2133 12.6793 42.6787C13.7389 42.6787 14.762 42.6787 15.8582 42.6787C15.8582 44.2864 15.8582 45.7846 15.8582 47.3192C16.9544 47.3192 17.9045 47.3192 18.9641 47.3192C18.9276 42.094 18.9276 36.9054 18.9276 31.5705ZM82.2147 42.7152C83.3474 42.7152 84.2974 42.7152 85.3936 42.7152C85.3936 44.2864 85.3936 45.8211 85.3936 47.3192C87.0379 47.3192 88.5361 47.3192 90.1073 47.3192C90.1073 43.5922 90.1438 39.9382 90.1073 36.2842C90.0708 33.7995 88.3168 31.8629 85.8321 31.6436C83.5667 31.4609 81.3012 31.6071 79.0722 31.6071C79.0722 36.8688 79.0722 42.094 79.0722 47.3192C80.1684 47.3192 81.155 47.3192 82.2147 47.3192C82.2147 45.7846 82.2147 44.2499 82.2147 42.7152ZM63.1043 25.2126C63.1408 25.103 63.2139 25.0664 63.2139 24.9934C63.2139 23.751 63.2505 22.5087 63.2505 21.2298C63.2505 19.4393 62.7389 18.9277 60.985 18.9277C55.8329 18.9277 50.6442 18.9277 45.4921 18.9277C42.6054 18.9277 39.6822 18.9277 36.7956 18.9277C35.8455 18.9277 34.9686 19.2201 34.8955 20.2432C34.7494 21.8875 34.859 23.5683 34.859 25.2126C36.4667 25.2126 37.9649 25.2126 39.5726 25.2126C39.5726 24.1529 39.5726 23.1664 39.5726 22.1798C40.6688 22.1798 41.6919 22.1798 42.7516 22.1798C42.7516 23.2395 42.7516 24.1895 42.7516 25.2126C44.3593 25.2126 45.8575 25.2126 47.5018 25.2126C47.5018 24.1529 47.5018 23.1664 47.5018 22.1433C48.598 22.1433 49.548 22.1433 50.6442 22.1433C50.6442 23.2029 50.6442 24.1895 50.6442 25.1761C52.2885 25.1761 53.7866 25.1761 55.3944 25.1761C55.3944 24.1164 55.3944 23.1664 55.3944 22.1433C56.4541 22.1433 57.4772 22.1433 58.5734 22.1433C58.5734 23.2029 58.5734 24.1895 58.5734 25.2126C60.1446 25.2126 61.6427 25.2126 63.1043 25.2126ZM70.595 75.053C68.3295 81.8494 65.3332 88.2805 59.9619 93.396C66.5391 92.2268 78.0491 85.8323 80.4242 82.1052C78.2684 79.8397 72.8605 75.93 70.595 75.053ZM17.466 82.2148C23.422 87.7689 30.1819 91.496 38.2206 93.5422C32.6666 88.2805 29.7068 81.8494 27.4048 74.9799C23.7143 76.9531 20.4988 79.3282 17.466 82.2148ZM25.2855 5.44453C24.847 5.80992 24.5913 6.0657 24.3355 6.28494C23.2027 7.3446 21.8873 7.8927 20.3161 7.85616C18.6353 7.81962 17.3929 6.9792 16.2602 5.883C14.6524 4.27525 13.7754 4.31179 12.0946 5.883C11.4369 6.50418 10.5965 6.94266 9.90222 7.49076C9.71952 7.63692 9.50028 7.85616 9.50028 8.03886C9.46374 9.75623 9.46374 11.4736 9.46374 13.4102C9.86568 13.0083 10.158 12.789 10.4138 12.5333C11.51 11.5101 12.7889 10.962 14.3235 10.962C15.9678 10.9986 17.2102 11.6928 18.3429 12.8256C20.1699 14.616 20.9007 14.5795 22.8008 12.8256C23.3854 12.2775 24.1528 11.8755 24.774 11.364C24.9932 11.1813 25.2855 10.8524 25.2855 10.5601C25.3221 8.9889 25.2855 7.3446 25.2855 5.44453ZM72.7874 5.51761C72.7508 5.77338 72.7143 5.84646 72.7143 5.883C72.7143 7.08882 72.7508 8.33118 72.6778 9.53699C72.6412 10.5601 72.6778 11.4736 73.9201 11.8025C74.2855 11.9121 74.6509 12.2409 74.9432 12.5698C76.9529 14.7987 78.0491 14.543 79.9857 12.6063C82.2512 10.3774 85.3206 10.4505 87.6591 12.6429C87.9149 12.8621 88.1341 13.0814 88.5361 13.4468C88.5361 11.9121 88.4995 10.6332 88.5361 9.35429C88.5726 8.33118 88.5726 7.41768 87.2937 7.08882C86.9283 6.9792 86.636 6.65034 86.3437 6.39456C83.8224 4.12909 83.6763 4.12909 81.1916 6.35802C79.0722 8.29464 76.149 8.40426 73.9932 6.65034C73.6278 6.32148 73.2624 5.95608 72.7874 5.51761ZM31.68 41.1075C31.68 43.2268 31.68 45.273 31.68 47.3192C32.7397 47.3192 33.7262 47.3192 34.7494 47.3192C34.7494 45.1999 34.7494 43.1902 34.7494 41.1075C33.6897 41.1075 32.7397 41.1075 31.68 41.1075ZM47.4652 47.3558C48.5614 47.3558 49.5115 47.3558 50.5346 47.3558C50.5346 45.2365 50.5346 43.1902 50.5346 41.144C49.4749 41.144 48.4883 41.144 47.4652 41.144C47.4652 43.2268 47.4652 45.273 47.4652 47.3558ZM63.287 41.1075C63.287 43.2268 63.287 45.3095 63.287 47.3558C64.3467 47.3558 65.3332 47.3558 66.3198 47.3558C66.3198 45.2365 66.3198 43.1902 66.3198 41.1075C65.2967 41.1075 64.3467 41.1075 63.287 41.1075Z" fill="#3A61AE"/>
</g>
<defs>
<clipPath id="clip0_137_69">
<rect width="98" height="98" fill="white"/>
</clipPath>
</defs>
</svg>
