<svg width="118" height="105" viewBox="0 0 118 105" fill="none" xmlns="http://www.w3.org/2000/svg">
<g clip-path="url(#clip0_137_49)">
<path d="M116.548 29.6232C111.065 26.7366 105.546 23.8861 100.064 21.0356C86.8843 14.1799 73.7409 7.32425 60.5612 0.468584C59.5809 -0.0365704 58.7459 -0.253065 57.6566 0.324254C38.9582 10.1026 20.2234 19.8449 1.45232 29.5871C0.435701 30.1284 -0.254145 30.85 0.0726245 32.0047C0.399394 33.1954 1.34339 33.484 2.46893 33.448C4.17539 33.4119 5.84555 33.448 7.5157 33.448C7.91509 37.4531 8.38709 37.9222 12.4535 38.8242C12.8892 40.448 13.0345 42.0356 13.7243 43.3706C14.4868 44.9222 16.1932 45.1748 17.7908 45.2108V60.1851C17.6819 60.2212 17.5729 60.2933 17.464 60.3294C16.4111 60.8346 16.0843 61.7005 16.52 62.6026C16.8105 63.1438 17.2462 63.4325 17.7908 63.4686C18.1175 63.5047 18.5169 63.4325 18.9163 63.2521C19.1705 63.1438 19.4246 62.9995 19.7151 62.8913C20.4049 62.6387 21.1311 62.4583 21.8209 62.35C22.9828 62.2057 24.1083 62.2418 25.2702 62.5304C25.8148 62.6387 26.3231 62.8191 26.8677 63.0717C26.6135 64.551 26.0689 65.85 25.2702 66.9686C24.6529 67.8346 23.9268 68.5562 23.0917 69.1335C21.1311 70.5047 18.5895 71.1181 15.9391 70.7212C15.4308 70.649 15.0314 70.5768 14.7046 70.5047C13.6517 70.2521 13.7606 69.8552 14.3415 68.1593C14.7046 67.0407 14.4142 66.1748 13.5065 65.85C12.5625 65.4892 11.7274 65.9222 11.2554 67.0768C10.2751 69.5304 9.98462 72.0562 10.7834 74.582C10.856 74.8346 10.9649 75.1232 11.0739 75.3758C11.6911 77.0717 12.5988 78.6954 13.3612 80.3552C12.0542 80.8242 10.4929 81.4016 8.9317 82.015C7.91509 82.4119 6.97109 83.0253 6.20862 83.7469C4.86524 85.0459 3.99386 86.7057 3.81232 88.5098C3.77601 88.6902 3.77601 88.8706 3.77601 89.0871C3.7397 92.082 3.7397 95.1129 3.77601 98.1077C3.77601 99.1541 3.81232 100.164 3.81232 101.211C3.84862 102.005 4.2117 102.871 4.64739 103.52C5.44616 104.639 6.71693 104.927 8.06032 104.927C36.7797 104.927 65.4991 104.927 94.2185 104.927C94.4 104.927 94.5816 104.927 94.7631 104.927C95.8523 104.855 96.6148 104.17 96.6148 103.231C96.5785 102.329 95.8886 101.716 94.7994 101.644C94.5089 101.608 94.2185 101.644 93.9643 101.644H78.0252C77.9889 101.319 77.9526 101.139 77.9526 100.994V98.1077C77.9526 97.7108 77.9526 97.35 77.9526 96.9531C77.9526 96.015 77.9526 95.0407 77.9526 94.1026C77.9526 92.515 77.9526 90.8913 77.9889 89.3036C78.0252 87.4273 78.9329 86.1284 80.4942 85.3346C80.712 85.2263 80.8935 85.1181 81.1477 85.0459C83.1083 84.2882 85.0689 83.5665 87.0659 82.8809C87.3926 82.7727 87.9009 82.8088 88.2277 82.9892C88.3729 83.0614 88.5545 83.1335 88.6997 83.2057C92.4031 84.8655 96.1065 84.7933 99.8462 83.0253C100.209 82.8449 100.826 82.8088 101.226 82.9531C103.078 83.6026 104.893 84.2882 106.745 85.0098C109.068 85.9119 110.194 87.4634 110.194 89.9531C110.194 92.6954 110.194 95.4016 110.194 98.1438C110.194 98.9737 110.194 99.7675 110.23 100.597C110.23 101.499 109.903 101.788 109.032 101.752C106.999 101.716 104.966 101.716 102.932 101.752C101.625 101.752 100.826 102.402 100.863 103.376C100.863 104.53 101.988 105.216 103.695 104.963C104.966 104.747 106.273 104.783 107.58 104.963C110.303 105.324 112.336 104.711 113.425 102.293V88.0407C113.353 87.7521 113.28 87.4995 113.207 87.2469C112.808 86.4531 112.372 85.6593 111.937 84.8655C109.976 82.3397 106.708 81.4376 103.55 80.3913C104.929 78.7315 105.801 76.9995 106.309 75.3397C107.943 69.8552 105.474 64.6593 102.242 62.0614C101.625 61.5562 100.972 61.1232 100.282 60.7624V45.3191C101.988 45.283 103.622 44.9583 104.348 43.4428C105.002 42.0717 105.147 40.484 105.546 38.9325C109.032 38.6438 110.303 37.3449 110.557 33.5201C112.372 33.5201 114.188 33.5201 116.003 33.5201C116.947 33.5201 117.601 33.1232 117.964 32.2572C118.254 31.1748 117.818 30.2727 116.548 29.6232ZM25.2339 59.2469C24.8708 59.1748 24.5077 59.1387 24.1083 59.1026C23.3095 59.0304 22.5471 59.0304 21.7846 59.1026C21.7846 54.5923 21.7846 50.0459 21.8209 45.5356C21.8209 45.4634 21.8935 45.3913 21.9662 45.283H25.2339V59.2469ZM18.4443 41.2779C16.6652 41.2779 16.6652 41.2779 16.7015 39.4377C16.7015 39.2572 16.7379 39.0407 16.7742 38.7882H30.2806V41.2057C29.8086 41.2418 29.3729 41.2779 28.9735 41.2779C25.488 41.2779 21.9662 41.2779 18.4443 41.2779ZM23.5637 72.6696C26.2505 71.2263 28.1385 69.1335 29.3366 66.3552C29.5182 65.9583 29.6634 65.5614 29.8086 65.1645C32.5317 67.5098 33.3305 72.0201 31.7692 75.5201C31.1883 76.783 30.3532 77.8655 29.3366 78.7315C27.376 80.4273 24.8345 81.3294 22.3655 81.0407C18.0086 80.4995 14.6683 77.6129 13.9422 73.6438C17.2825 74.5098 20.5139 74.2933 23.5637 72.6696ZM39.176 97.2418C39.176 97.5304 39.176 97.8191 39.176 98.1077C39.176 99.1541 39.176 100.201 39.176 101.247C39.176 101.355 39.1034 101.427 39.0308 101.644H8.4597C6.93478 101.644 6.93478 101.644 6.93478 100.092V98.1438C6.93478 95.4376 6.93478 92.7315 6.93478 90.0253C6.93478 87.4273 8.02401 85.8397 10.4566 84.9376C12.272 84.2521 14.1237 83.5304 15.9391 82.917C16.3022 82.7727 16.8468 82.8088 17.2099 82.9892C21.0948 84.8655 24.9434 84.8655 28.8283 82.9892C28.9372 82.917 29.0825 82.881 29.2277 82.8449C29.5182 82.7727 29.8449 82.8088 30.0991 82.8809C32.0597 83.5665 33.984 84.2521 35.9083 85.0098C36.3803 85.1902 36.816 85.4067 37.2154 85.6954C38.3772 86.4892 39.0671 87.6799 39.1034 89.2675C39.1397 90.8913 39.1397 92.4789 39.1397 94.1026C39.176 95.149 39.176 96.1954 39.176 97.2418ZM41.4271 83.6748C40.9551 83.7469 40.5194 83.8191 40.12 83.8913C38.0505 81.7985 35.0732 81.4737 32.568 80.2108C35.4363 76.4222 36.4166 72.85 35.5815 69.1335C34.7465 65.417 32.4591 62.4222 29.3366 60.6541V45.283C33.4394 44.5974 33.8388 44.0562 34.3471 38.7882C34.6739 38.7521 35.0006 38.716 35.3637 38.716C35.6542 38.716 35.9809 38.7521 36.4892 38.7521C36.2351 42.3242 37.1065 45.1026 41.4634 45.2108V83.6748H41.4271ZM65.0997 45.2108V57.2624C64.8819 57.1902 64.664 57.1181 64.4462 57.0459C63.7563 56.8294 58.2739 55.4222 52.9003 56.9737V45.2469C54.4615 45.1748 56.2043 44.9583 56.9668 43.4428C57.6566 42.1078 57.8019 40.484 58.2375 38.7882H60.1619C59.8351 42.3603 60.7065 45.1387 65.0997 45.2108ZM69.0572 73.0304V72.9943C68.6215 70.8655 67.496 69.8552 65.3175 69.8552H64.7729C60.9606 69.8552 57.1846 69.9634 53.3723 69.8552C53.2271 69.8552 53.0819 69.8552 52.9366 69.8552C52.864 69.8552 52.7914 69.8552 52.6825 69.8552C50.7582 69.783 49.5963 70.2521 48.9428 71.0459C48.2166 71.9119 47.9988 73.1387 47.9262 74.5098C47.8172 76.35 48.0714 77.5047 48.9428 79.6696C49.0154 79.85 49.088 80.0665 49.1969 80.2469C49.1243 80.283 49.0154 80.3191 48.9428 80.3552C48.0351 80.716 47.0911 81.0407 46.0745 81.4376C46.0745 77.8655 46.0745 74.4376 46.0745 71.0459C46.0745 70.3603 46.2197 69.6387 46.3649 68.9531C46.8369 66.9686 47.7083 65.2005 48.9428 63.7212C50.032 62.3861 51.4117 61.2675 52.9366 60.5098C54.6794 59.6077 56.6763 59.1387 58.7095 59.1748C61.0695 59.2108 63.248 59.8964 65.136 61.015C66.7335 61.9892 68.0769 63.2882 69.0936 64.8397C70.0012 66.2108 70.6548 67.7985 70.9815 69.4944C71.0905 70.0356 71.1268 70.6129 71.1631 71.1902C71.1631 74.5459 71.1631 77.9376 71.1631 81.4737C70.4369 81.2212 69.7834 80.9686 69.1299 80.716C68.7668 80.5717 68.4037 80.4273 68.0043 80.283C68.5126 79.2366 68.912 78.1902 69.1299 77.1077C69.3114 75.7366 69.3114 74.4016 69.0572 73.0304ZM62.5945 81.2572C59.9803 82.9531 57.1846 82.9531 54.5705 81.2572C51.9563 79.5614 50.8671 77.1077 51.2302 73.9686C51.3391 73.2108 51.6295 73.0665 52.3194 73.0665C54.4252 73.1026 56.5311 73.0665 58.6369 73.0665C60.7065 73.0665 62.776 73.1026 64.8456 73.0665C65.5354 73.0665 65.8622 73.1748 65.9348 73.9686C66.2616 77.0717 65.2086 79.5614 62.5945 81.2572ZM45.4935 62.3861V45.2469H48.9065V58.8861C47.5631 59.8242 46.4012 61.015 45.4935 62.3861ZM69.0572 59.5717V45.2469H72.4702V63.9376C71.5988 62.2418 70.4369 60.7624 69.0572 59.5717ZM64.0831 41.1696C64.0468 40.9892 64.0105 40.8449 64.0105 40.7005C64.0105 40.1232 64.0105 39.5098 64.0105 38.8242H77.5532V41.1696H64.0831ZM53.9532 41.2057H40.4831V38.8242H53.9532V41.2057ZM74.6486 100.742C74.6486 101.03 74.6123 101.283 74.576 101.608H42.5526C42.5163 101.319 42.48 100.994 42.48 100.706C42.48 99.8397 42.48 98.9737 42.48 98.1077C42.48 95.4737 42.48 92.8758 42.48 90.2418V89.7366C42.48 88.9067 42.6252 88.1851 42.8794 87.5717C43.3877 86.3809 44.3317 85.515 45.8203 84.9376C47.4179 84.3242 49.0154 83.7108 50.6129 83.1696C50.976 83.0614 51.5932 83.1335 51.92 83.3861C55.9502 86.4531 61.1422 86.4531 65.2086 83.3861C65.5354 83.1335 66.1526 83.0614 66.5157 83.1696C68.1859 83.7108 69.8197 84.3242 71.4172 84.9737C72.7969 85.515 73.7409 86.3809 74.2492 87.5717C74.5034 88.1851 74.6486 88.8706 74.6486 89.6645V90.1696C74.6486 92.8036 74.6486 95.4737 74.6486 98.1077C74.6486 98.9737 74.6486 99.8397 74.6486 100.742ZM77.0812 83.7469C76.8997 83.7469 76.7182 83.7469 76.5366 83.7469V45.3191C80.7483 44.4892 81.0025 44.1645 81.6197 38.8242H83.7255C83.4714 42.3242 84.3065 45.1026 88.6634 45.2108V60.2572C87.5742 60.7624 86.5575 61.3758 85.6498 62.2057C81.2566 66.0665 79.1145 73.6799 84.5243 80.2469C82.0554 81.4016 79.1508 81.7985 77.0812 83.7469ZM103.441 71.5871C103.658 76.7108 99.0111 81.2933 93.8554 81.1129C91.9311 81.0407 90.152 80.4273 88.6634 79.3809C86.0492 77.6129 84.3791 74.6541 84.7059 71.551C86.0129 71.551 87.3563 71.515 88.6634 71.515C89.3895 71.515 90.1157 71.515 90.8782 71.551C93.0929 71.6232 95.1988 71.5871 96.4696 68.8809C97.9945 72.3809 100.935 71.4067 103.441 71.5871ZM102.678 68.1954C101.734 68.4119 100.899 68.4119 100.173 68.1232C99.6283 67.9067 99.12 67.4737 98.648 66.8242C97.8856 65.7418 97.0142 65.2727 96.1791 65.3809C95.5255 65.4892 94.872 65.9583 94.2548 66.7882C93.7828 67.4016 93.3108 67.8346 92.7662 68.0871C92.2579 68.3036 91.6769 68.4119 90.9871 68.3397C90.2246 68.2675 89.4622 68.2675 88.6997 68.2675C87.6831 68.2675 86.6665 68.3036 85.6498 68.3036C85.5772 68.3036 85.5046 68.2675 85.4683 68.2315C85.6498 66.6799 86.9206 65.1284 88.6997 63.9737C89.8979 63.1799 91.3502 62.6387 92.8025 62.3861C93.0929 62.35 93.3834 62.3139 93.6739 62.2779C94.5089 62.2057 95.3803 62.3139 96.2517 62.5304C97.704 62.8913 99.12 63.6129 100.246 64.5871C101.371 65.5974 102.279 66.8242 102.678 68.1954ZM92.7662 59.1387V45.2469H96.1428C96.1791 45.716 96.2154 46.0768 96.2154 46.4737C96.2154 50.7315 96.2154 55.0253 96.2154 59.283C95.0536 59.1026 93.8917 59.0304 92.7662 59.1387ZM99.1563 41.2779H87.6831V38.7882H101.008C101.117 38.8964 101.19 38.9325 101.19 39.0047C101.444 41.2779 101.444 41.2779 99.1563 41.2779ZM105.292 34.8913C74.4308 34.8552 43.6055 34.8552 12.744 34.8913C11.6911 34.8913 11.2554 34.6026 11.6185 33.484H106.454C106.708 34.6387 106.273 34.8913 105.292 34.8913ZM10.0572 29.515C10.5655 29.2263 10.8923 29.0098 11.2191 28.8655C26.7588 20.783 42.3348 12.6645 57.8745 4.58199C58.6006 4.22116 59.1452 4.04075 59.944 4.43766C75.7379 12.7005 91.5317 20.8913 107.326 29.1181C107.471 29.1902 107.58 29.2624 107.979 29.515H10.0572Z" fill="#3A61AE"/>
</g>
<defs>
<clipPath id="clip0_137_49">
<rect width="118" height="105" fill="white"/>
</clipPath>
</defs>
</svg>
