<svg width="86" height="103" viewBox="0 0 86 103" fill="none" xmlns="http://www.w3.org/2000/svg">
<g clip-path="url(#clip0_137_86)">
<path d="M0 0C1.15679 0 2.16898 0 3.28962 0C3.28962 0.617637 3.28962 1.19894 3.28962 1.48959C4.44641 2.39788 5.42245 3.12451 6.36234 3.96014C7.80832 5.26808 8.82051 5.30441 10.1942 3.96014C11.4594 2.68854 12.8331 1.67125 14.7491 1.63492C16.3396 1.59859 17.7133 2.14356 18.834 3.26984C19.7377 4.1418 20.5691 5.01376 21.9428 5.08642C22.6658 5.12275 23.0996 5.77672 23.1358 6.57601C23.1358 9.91852 23.1719 13.2974 23.1358 16.6399C23.1358 17.6208 22.4851 18.2384 21.509 18.2748C19.9546 18.3474 18.6532 17.6935 17.5326 16.6399C15.1106 14.351 14.7491 14.351 12.2909 16.6399C9.8327 18.9287 6.65153 18.8924 4.22951 16.5672C3.97646 16.3492 3.72341 16.1312 3.39807 15.8042C3.39807 29.9735 3.39807 43.9975 3.39807 58.0578C7.19378 58.0578 10.9895 58.0578 14.8937 58.0578C14.8937 57.7309 14.8937 57.3675 14.8937 57.0042C14.8937 52.9714 14.8937 48.9023 14.8937 44.8695C14.8937 40.219 18.5086 36.5859 23.1358 36.5496C24.1841 36.5496 25.2686 36.5496 26.3531 36.4769C24.148 35.8229 22.3043 34.624 21.0752 32.6621C19.81 30.6638 19.5208 28.4839 20.0631 26.1951C20.9668 22.2713 24.5095 19.728 28.7028 19.9097C32.3539 20.055 35.6074 23.0705 36.2942 26.958C37.0172 31.0998 34.6675 34.5513 29.8235 36.4769C34.306 36.6949 38.5717 40.219 38.0294 46.5044C39.7285 46.5044 41.4998 46.3954 42.9096 47.8123C44.2833 46.5407 45.9823 46.3954 47.8621 46.5407C47.6091 40.7277 50.2119 37.2762 56.1042 36.4406C53.8268 35.8229 52.0193 34.624 50.7903 32.6258C49.525 30.5549 49.2358 28.3386 49.8504 26.0497C50.8625 22.1986 54.4414 19.728 58.5986 19.9824C62.2135 20.2004 65.467 23.2522 66.0093 27.067C66.4792 30.2642 65.1778 34.7693 59.5746 36.5859C60.6591 36.5859 61.7436 36.5859 62.8281 36.5859C67.3829 36.6222 70.9979 40.2554 71.034 44.8332C71.034 49.1566 71.034 53.4801 71.034 57.8035C71.034 57.8762 71.0702 57.9489 71.0702 58.0942C74.8659 58.0942 78.6616 58.0942 82.4935 58.0942C82.4935 44.0702 82.4935 30.0462 82.4935 15.8769C82.1681 16.1675 81.8789 16.4219 81.6259 16.6399C79.1677 18.9287 75.9866 18.9287 73.5645 16.6035C73.4199 16.4582 73.2753 16.3129 73.1307 16.1675C71.4678 14.569 70.528 14.569 68.8651 16.2039C67.6721 17.3665 66.3708 18.2748 64.6356 18.2748C63.4065 18.2748 62.7558 17.6935 62.7558 16.4582C62.7558 13.2247 62.7558 10.0275 62.7558 6.794C62.7558 5.63139 63.3342 5.23175 64.3825 4.90476C65.2501 4.65044 66.0816 4.06914 66.7684 3.4515C67.9613 2.39788 69.1904 1.67125 70.781 1.59859C72.3354 1.56226 73.673 2.0709 74.8298 3.12452C75.2274 3.48783 75.5528 3.85115 75.9504 4.21446C77.071 5.19541 78.1194 5.15908 79.2762 4.21446C80.2161 3.41517 81.2282 2.72487 82.2043 1.9619C82.385 1.81658 82.5296 1.52593 82.5296 1.30794C82.6019 0.908289 82.5296 0.508642 82.5296 0.0363316C83.6141 0.0363316 84.6263 0.0363316 85.8193 0.0363316C85.8193 0.326984 85.8193 0.653968 85.8193 0.980952C85.8193 20.7817 86.0723 40.5824 85.747 60.3467C85.4578 77.2046 77.4687 89.739 62.8642 97.9499C55.8873 101.874 48.2598 103.545 40.3069 102.855C22.4489 101.292 9.905 92.0279 2.85582 75.4607C0.903741 70.6649 0 65.5785 0 60.3831C0 40.5824 0 20.7453 0 0.908289C0 0.653968 0 0.363316 0 0ZM57.731 61.5093C47.826 61.5093 37.9933 61.5093 28.1244 61.5093C28.269 67.2134 28.7028 72.7721 29.8958 78.3672C34.2337 77.0593 38.5355 76.369 42.9096 76.369C47.3199 76.369 51.6217 77.0593 55.9597 78.3672C57.1887 72.6995 57.6225 67.1407 57.731 61.5093ZM61.1652 61.473C61.129 61.691 61.0929 61.7637 61.0929 61.8727C60.9483 67.5767 60.4422 73.2444 59.2854 78.8395C59.177 79.3845 59.3577 79.6388 59.8638 79.8568C61.1291 80.4381 62.3943 80.9467 63.5511 81.6734C66.2623 83.381 68.9374 85.2339 71.7209 87.1231C78.3001 80.0021 81.9874 71.4642 82.4935 61.473C75.3359 61.473 68.2867 61.473 61.1652 61.473ZM14.2791 87.1958C14.4599 87.1231 14.5322 87.1231 14.5683 87.0868C18.0387 84.0349 21.8705 81.5644 26.1 79.7841C26.6784 79.5298 26.6061 79.2028 26.5338 78.7305C25.9916 74.4797 25.4494 70.2653 24.9433 66.0145C24.7625 64.5249 24.7625 62.9989 24.6902 61.5093C17.5687 61.5093 10.4834 61.5093 3.36192 61.5093C3.90416 71.4642 7.59143 79.9658 14.2791 87.1958ZM42.9819 99.6212C43.1627 99.6212 43.3434 99.5848 43.5603 99.5485C45.9823 99.1489 47.6091 97.6229 49.0551 95.8064C52.1639 91.8099 53.7907 87.1231 55.1282 82.3273C55.2728 81.7824 55.0198 81.637 54.5498 81.4917C46.8499 79.1302 39.1501 79.1302 31.4502 81.4917C30.8356 81.6734 30.691 81.9277 30.8718 82.509C31.6671 84.7979 32.3178 87.1231 33.2215 89.3393C34.4506 92.3912 36.0412 95.2614 38.4994 97.5503C39.7285 98.7129 41.1744 99.5122 42.9819 99.6212ZM51.2963 46.4681C52.1278 46.4681 52.8869 46.4317 53.6099 46.4681C54.3691 46.5407 54.8029 46.2864 55.2005 45.5598C56.285 43.5979 58.5986 42.6896 60.6953 43.2709C62.9365 43.8885 64.3825 45.7414 64.4187 48.0303C64.4187 50.1739 64.4187 52.3175 64.4187 54.461C64.4187 55.8416 63.8403 56.3866 62.4666 56.3866C59.1047 56.3866 55.7428 56.3866 52.3447 56.3866C51.9832 56.3866 51.6217 56.3866 51.2602 56.3866C51.2602 57.0042 51.2602 57.5129 51.2602 57.9852C56.7549 57.9852 62.1774 57.9852 67.5998 57.9852C67.636 57.8399 67.6721 57.7672 67.6721 57.6582C67.6721 53.3347 67.7083 49.0113 67.6721 44.6878C67.636 41.8903 65.5032 39.8194 62.6835 39.7831C60.7676 39.7467 58.8155 39.7831 56.8995 39.7831C52.9231 39.8194 50.7902 42.2536 51.2963 46.4681ZM34.7037 56.4229C34.1976 56.4229 33.8361 56.4229 33.4746 56.4229C30.185 56.4229 26.8592 56.4229 23.5696 56.4229C22.0513 56.4229 21.509 55.878 21.509 54.3884C21.509 52.2811 21.509 50.1739 21.509 48.0667C21.509 47.7034 21.5452 47.3037 21.6175 46.9404C22.1236 44.9422 23.7865 43.4162 25.7024 43.1619C27.7991 42.8713 29.715 43.8522 30.8356 45.7051C31.0164 45.9958 31.3779 46.3954 31.6671 46.3954C32.6431 46.4681 33.6553 46.4317 34.5952 46.4317C35.1375 42.3263 33.0046 39.7831 29.0643 39.7831C27.293 39.7831 25.4855 39.7831 23.7142 39.7831C20.2438 39.7831 18.1833 41.854 18.1833 45.3055C18.1833 49.2293 18.1833 53.1168 18.1833 57.0406C18.1833 57.3675 18.1833 57.6945 18.1833 57.9852C23.7865 57.9852 29.2089 57.9852 34.6314 57.9852C34.6675 57.8035 34.6675 57.6582 34.6675 57.5492C34.7037 57.2586 34.7037 56.8952 34.7037 56.4229ZM34.6314 98.5312C31.0164 93.8808 29.1005 88.5037 27.5099 82.945C24.4733 83.8896 18.1471 88.0314 16.9542 89.739C22.0874 94.2078 27.9075 97.2233 34.6314 98.5312ZM58.3817 82.8723C56.7911 88.5764 54.8029 93.9171 51.224 98.5312C57.9479 97.187 63.8041 94.1714 69.0458 89.63C65.8285 86.7961 62.3581 84.5799 58.3817 82.8723ZM82.6019 5.74039C82.1681 6.1037 81.9151 6.35803 81.6259 6.61235C80.3968 7.81129 78.9508 8.35626 77.2156 8.24727C75.372 8.13827 74.1068 7.12099 72.8777 5.88571C71.5763 4.57778 70.4918 4.61411 69.1181 5.84938C68.2867 6.61235 67.3106 7.19365 66.443 7.88395C66.2623 8.02928 66.0816 8.24727 66.0816 8.42892C66.0454 10.2455 66.0816 12.0621 66.0816 14.0603C66.4792 13.697 66.7322 13.479 66.9491 13.261C68.1782 12.0258 69.6604 11.4444 71.4317 11.5534C73.2753 11.6624 74.5406 12.6797 75.7697 13.915C77.1072 15.2229 78.1194 15.1866 79.5292 13.9513C80.3607 13.2247 81.3367 12.6071 82.2404 11.9168C82.4212 11.8078 82.6019 11.5534 82.6019 11.3718C82.6019 9.59153 82.6019 7.77496 82.6019 5.74039ZM3.28962 5.74039C3.28962 7.33898 3.32577 8.68325 3.28962 10.0275C3.25347 11.1175 3.25347 12.0621 4.55486 12.4254C4.9525 12.5344 5.314 12.8977 5.6032 13.2247C7.88062 15.7679 9.00126 15.1139 10.881 13.261C13.1946 10.9358 16.4481 10.9721 18.834 13.2247C19.1232 13.479 19.4124 13.7333 19.81 14.133C19.81 12.1711 19.81 10.4272 19.81 8.71958C19.81 8.46526 19.6654 8.13827 19.4485 7.95661C18.5086 7.19365 17.5326 6.53968 16.5927 5.77672C15.3636 4.7231 14.3153 4.68677 13.1223 5.77672C12.7608 6.1037 12.4355 6.46702 12.074 6.794C9.7604 8.8649 6.61539 8.8649 4.33796 6.75767C4.04876 6.43069 3.75956 6.17637 3.28962 5.74039ZM28.0883 33.1707C30.7272 33.1707 33.0046 30.8818 33.0408 28.2296C33.0769 25.5774 30.7995 23.2522 28.1244 23.2159C25.4494 23.1795 23.0996 25.5048 23.1358 28.2296C23.1358 30.8818 25.4493 33.1707 28.0883 33.1707ZM62.7558 28.1933C62.7558 25.5411 60.5145 23.2159 57.8394 23.2159C55.2005 23.1795 52.8869 25.4321 52.8508 28.1206C52.8146 30.8092 55.1282 33.1707 57.8033 33.1707C60.4784 33.1707 62.7558 30.8818 62.7558 28.1933ZM24.7987 53.1168C29.6789 53.1168 34.4145 53.1168 39.1501 53.1168C40.4876 53.1168 41.319 52.4265 41.2829 51.4092C41.2467 50.4282 40.4515 49.8106 39.1501 49.8106C36.1858 49.8106 33.2215 49.8106 30.2934 49.8106C28.739 49.8106 28.3775 49.5199 28.0883 47.994C27.9075 47.0857 27.1845 46.4317 26.3892 46.5044C25.5939 46.5407 24.871 47.231 24.8348 48.1393C24.7625 49.7379 24.7987 51.3728 24.7987 53.1168ZM61.0929 53.1168C61.0929 51.3728 61.1291 49.7379 61.0929 48.1393C61.0568 47.231 60.3338 46.5407 59.5385 46.5044C58.7432 46.4681 58.0202 47.0857 57.8394 48.0303C57.5502 49.5199 57.1887 49.8106 55.7066 49.8106C52.5977 49.8106 49.525 49.8106 46.4161 49.8106C45.3678 49.8106 44.6448 50.5009 44.6087 51.4092C44.5725 52.3175 45.2955 53.0804 46.3438 53.1168C51.224 53.1168 56.1042 53.1168 61.0929 53.1168ZM38.0294 56.4229C38.0294 57.0406 38.0294 57.5129 38.0294 58.0215C41.319 58.0215 44.5725 58.0215 47.826 58.0215C47.826 57.4765 47.826 57.0042 47.826 56.3866C46.0546 56.4956 44.3195 56.4593 42.9458 55.1513C41.5359 56.4956 39.8369 56.4956 38.0294 56.4229Z" fill="#3A61AE"/>
</g>
<defs>
<clipPath id="clip0_137_86">
<rect width="86" height="103" fill="white"/>
</clipPath>
</defs>
</svg>
