<svg width="109" height="98" viewBox="0 0 109 98" fill="none" xmlns="http://www.w3.org/2000/svg">
<g clip-path="url(#clip0_137_63)">
<path d="M109 95.2175C108.025 97.3857 106.292 98.1084 104.018 97.9639C102.213 97.8555 100.407 97.9639 98.6022 97.9277C97.3385 97.9277 96.5442 97.2773 96.5081 96.3016C96.5081 95.326 97.3024 94.6755 98.5661 94.6394C100.588 94.6394 102.61 94.6032 104.632 94.6394C105.498 94.6394 105.823 94.3864 105.823 93.483C105.787 89.9417 105.823 86.3643 105.787 82.823C105.787 80.3658 104.668 78.7758 102.357 77.8724C100.552 77.1858 98.7466 76.4631 96.9052 75.8127C96.5081 75.6681 95.9304 75.7043 95.5333 75.885C91.6701 77.7279 87.843 77.7279 83.9798 75.8488C83.6548 75.7043 83.1494 75.632 82.8244 75.7404C80.8387 76.427 78.889 77.1497 76.9394 77.9086C75.0258 78.6674 73.8705 80.0767 73.8344 82.1726C73.7621 86.0752 73.7982 89.9779 73.7982 93.8805C73.7982 94.0612 73.8344 94.2419 73.8705 94.5671C74.3037 94.5671 74.7009 94.5671 75.1341 94.5671C80.0083 94.5671 84.8463 94.5671 89.7204 94.5671C90.0092 94.5671 90.2981 94.5671 90.5869 94.5671C91.6701 94.6394 92.3561 95.2898 92.3561 96.1571C92.3922 97.0605 91.634 97.7832 90.5147 97.8554C90.3342 97.8554 90.1537 97.8554 89.9731 97.8554C61.4143 97.8554 32.8556 97.8554 4.29676 97.8554C2.96089 97.8554 1.69723 97.5664 0.902923 96.4462C0.433562 95.7957 0.0725155 94.8923 0.0725155 94.1335C0.000306149 90.0863 0.000306149 86.0391 0.0364108 81.9919C0.0725155 78.9565 2.13048 76.1018 5.16327 74.9093C6.71578 74.295 8.26828 73.7168 9.56804 73.247C8.70153 71.2957 7.6545 69.4528 7.00461 67.4653C6.21031 64.972 6.49915 62.4063 7.47397 59.9491C7.90723 58.7928 8.73764 58.3591 9.71246 58.7205C10.579 59.0457 10.9039 59.9491 10.5429 61.0332C9.82078 63.2375 9.82078 63.2375 12.1315 63.5988C17.4028 64.4299 22.1686 61.1055 22.999 55.9381C20.6522 54.9263 18.3054 54.8901 15.8864 55.7574C15.6336 55.8658 15.3809 55.9742 15.1282 56.1187C14.045 56.5885 13.1785 56.3355 12.7453 55.4683C12.312 54.601 12.673 53.6976 13.684 53.1917C15.778 52.1799 17.9804 51.7102 20.2911 51.927C25.9957 52.469 30.4004 56.4078 31.6641 62.0089C32.4945 65.6947 31.5558 69.3083 28.7035 73.1025C31.4836 74.5118 34.8413 74.7647 36.8632 77.5111C37.477 76.969 38.0546 76.4993 38.524 75.9572C38.7406 75.7043 38.8128 75.2707 38.8128 74.9093C38.8489 71.5125 38.8128 68.0796 38.8128 64.6829C38.8489 57.9617 42.676 52.2883 48.9221 49.8311C49.5359 49.5782 49.6803 49.2891 49.6803 48.6748C49.6442 42.9653 49.6803 37.2559 49.6803 31.5103C49.6803 31.1851 49.6442 30.8599 49.7164 30.5708C49.897 29.7035 50.4385 29.1615 51.3411 29.1615C52.2077 29.1976 52.7853 29.6674 52.8936 30.6069C52.9298 30.9683 52.9298 31.3296 52.9298 31.6549C52.9298 36.9307 52.9298 42.2426 52.9298 47.5184C52.9298 47.9159 52.9298 48.2773 52.9298 48.7109C54.0851 48.7109 55.096 48.7109 56.1792 48.7109C56.1792 36.9307 56.1792 25.1866 56.1792 13.3702C55.1321 13.3702 54.0851 13.3702 52.9298 13.3702C52.9298 14.4181 52.9298 15.4299 52.9298 16.4779C52.9298 18.6822 52.9298 20.8864 52.9298 23.0907C52.9298 24.2832 52.316 24.9336 51.305 24.8975C50.3302 24.8975 49.7164 24.2109 49.6803 23.0546C49.6803 21.1755 49.6803 19.2965 49.6803 17.3813C44.409 17.3813 39.21 17.3813 33.9387 17.3813C34.1192 17.7426 34.2636 18.0678 34.4442 18.3569C37.0076 22.8739 39.6071 27.427 42.1345 31.944C42.4594 32.5221 42.8204 32.7751 43.5425 32.8112C45.6005 32.8835 46.6114 34.1844 46.3226 36.3164C45.2034 44.0855 39.1739 49.5782 31.4114 49.8673C23.9738 50.1563 17.4389 44.9528 15.8503 37.4366C15.7419 36.9307 15.6697 36.3886 15.6336 35.8466C15.4892 34.2566 16.6446 32.9196 18.4137 32.8835C19.2802 32.8473 19.6412 32.486 20.0384 31.8355C22.5296 27.427 25.0208 23.0184 27.5121 18.6099C27.6926 18.2847 27.8731 17.9233 28.1619 17.3813C27.0427 17.3813 26.0318 17.3813 25.0208 17.3813C24.5515 17.3813 24.0821 17.3451 23.6489 17.2729C22.8546 17.0922 22.3491 16.4417 22.4935 15.719C22.6018 15.177 23.1434 14.635 23.6489 14.2375C23.9377 14.0207 24.4793 14.0929 24.8764 14.0929C32.7833 14.0929 40.6903 14.0929 48.5972 14.0929C49.1388 14.0929 49.8609 14.2736 49.5359 13.2257C49.1749 13.1534 48.8138 13.1173 48.4528 13.0089C47.3335 12.6475 46.9003 11.455 47.6585 10.5516C48.0556 10.0819 48.1278 9.7205 47.9473 9.14233C47.0808 6.39602 47.6946 3.90266 49.7886 1.95133C51.9188 -0.0361325 54.4461 -0.542032 57.1901 0.61431C59.8979 1.77065 61.2699 3.90266 61.4866 6.79351C61.5227 7.26328 61.4505 7.80531 61.3421 8.27508C61.1255 9.2146 60.7645 10.0457 61.5949 10.9853C62.1364 11.5996 61.5227 12.6836 60.6562 12.9727C60.2951 13.0811 59.8979 13.1173 59.5369 13.1895C59.1759 14.1652 59.8257 14.0568 60.4395 14.0568C68.3103 14.0568 76.1812 14.0568 84.052 14.0568C84.3769 14.0568 84.7019 14.0207 85.0268 14.0568C85.9655 14.1652 86.6876 14.8879 86.6515 15.719C86.5793 16.6586 86.0377 17.2367 85.099 17.309C84.1242 17.3813 83.1133 17.3451 82.1384 17.3451C81.8135 17.3451 81.4885 17.3451 81.0553 17.3451C81.1997 17.6704 81.308 17.9233 81.4163 18.1401C84.052 22.7655 86.6515 27.3909 89.251 32.0162C89.576 32.5944 89.937 32.7751 90.5869 32.8112C92.681 32.8835 93.728 34.2205 93.4031 36.2802C92.3561 43.399 87.6263 48.4941 80.4776 49.6504C71.3431 51.132 64.0139 44.483 62.8585 36.6777C62.5336 34.5096 63.725 32.6305 66.0357 32.7751C66.2885 32.7751 66.6856 32.5221 66.8301 32.2692C69.574 27.4631 72.2819 22.6571 75.0258 17.851C75.098 17.7426 75.1341 17.5981 75.2063 17.4174C69.9351 17.4174 64.7721 17.4174 59.4647 17.4174C59.4647 17.8149 59.4647 18.1763 59.4647 18.5737C59.4647 28.5472 59.4647 38.5206 59.4286 48.4941C59.4286 49.2891 59.6452 49.6504 60.4034 49.9395C66.2524 52.2161 70.2239 57.9978 70.2961 64.3215C70.3322 67.5737 70.3322 70.8621 70.2961 74.1143C70.2961 75.1984 70.3322 76.1379 71.3792 76.7522C71.6681 76.9329 71.8847 77.222 72.2458 77.5472C74.2676 74.837 77.5892 74.5118 80.4054 73.1748C74.9897 66.5981 77.1199 58.9735 81.5247 55.1069C86.1099 51.0597 93.1504 50.9875 97.9162 54.8901C102.104 58.323 104.993 66.1645 99.2159 73.2832C103.404 74.6925 107.809 75.8488 109.073 80.944C109 85.6777 109 90.4476 109 95.2175ZM35.094 94.6394C35.1663 94.4226 35.2385 94.3503 35.2385 94.2419C35.2385 90.2308 35.2746 86.2198 35.2024 82.2087C35.1663 80.1128 33.9748 78.7035 32.0613 77.9447C30.1477 77.1858 28.2342 76.4631 26.2845 75.8127C25.9235 75.6681 25.3819 75.7404 25.0208 75.9211C21.1576 77.764 17.3305 77.764 13.4673 75.9211C13.1063 75.7404 12.5647 75.7043 12.2037 75.8488C10.3623 76.4993 8.55711 77.1858 6.75188 77.8724C4.33287 78.8119 3.24973 80.3658 3.24973 82.9676C3.24973 86.3282 3.24973 89.7249 3.24973 93.0855C3.24973 94.6394 3.24973 94.6394 4.76612 94.6394C14.5144 94.6394 24.2626 94.6394 34.0109 94.6394C34.3358 94.6394 34.733 94.6394 35.094 94.6394ZM70.4405 94.6032C70.4766 94.278 70.5127 93.9889 70.5127 93.736C70.5127 90.0501 70.5127 86.3643 70.5127 82.6423C70.5127 80.4019 69.3935 78.7758 67.3355 77.9808C65.7108 77.3665 64.0861 76.7161 62.4614 76.174C62.0642 76.0656 61.4866 76.1379 61.1616 76.3909C57.1179 79.4624 51.9549 79.4263 47.9473 76.3909C47.6224 76.1379 47.0447 76.0656 46.6475 76.174C45.0228 76.7161 43.4703 77.3304 41.8817 77.9447C39.6432 78.8119 38.5601 80.3296 38.5601 82.7146C38.5601 86.3643 38.5601 90.014 38.5601 93.6998C38.5601 93.9889 38.5962 94.3141 38.6323 94.6032C49.2471 94.6032 59.8257 94.6032 70.4405 94.6032ZM66.9745 74.3673C66.9745 70.826 66.9745 67.4292 66.9745 64.0686C66.9745 63.4904 66.9023 62.9484 66.8301 62.3702C65.7469 56.444 60.6923 52.1438 54.6267 52.0354C48.8499 51.927 43.687 56.0103 42.3511 61.8282C42.2067 62.5148 42.0622 63.2375 42.0622 63.924C42.0261 67.3569 42.0622 70.7898 42.0622 74.3311C43.1815 73.8975 44.1924 73.5361 45.1672 73.1386C44.0841 70.573 43.7592 69.3805 43.9036 67.3931C44.0841 64.7552 44.6618 62.587 48.6694 62.7316C52.8575 62.8761 57.0457 62.7677 61.2338 62.7677C63.4001 62.7677 64.5555 63.7795 64.9887 65.9115C65.4942 68.441 65.0248 70.826 63.9056 73.1748C64.8804 73.5723 65.8552 73.9698 66.9745 74.3673ZM19.0275 36.208C19.6412 42.3149 25.3097 46.9041 31.8446 46.6512C37.3686 46.4344 42.8204 41.3031 42.9288 36.208C34.9857 36.208 27.0427 36.208 19.0275 36.208ZM66.0719 36.208C66.7939 42.4594 72.4624 47.0125 78.9973 46.615C84.5213 46.2898 89.9731 41.1586 89.9731 36.208C81.994 36.208 74.0149 36.208 66.0719 36.208ZM80.5137 64.5022C80.0083 69.3805 84.3769 73.8614 89.6121 74.0782C94.739 74.2589 99.3604 69.6696 99.1437 64.5384C96.6525 64.3577 93.728 65.3333 92.2116 61.8643C90.948 64.5745 88.8539 64.6106 86.6515 64.5384C84.5935 64.4661 82.5356 64.5022 80.5137 64.5022ZM25.8874 58.1423C24.7681 61.4668 22.7462 63.9963 19.7135 65.6224C16.6807 67.2485 13.4673 67.4653 10.1457 66.6342C10.8678 70.6091 14.1894 73.5 18.522 74.042C22.2408 74.5118 26.2484 72.1268 27.8731 68.5133C29.3895 65.0081 28.5591 60.4911 25.8874 58.1423ZM54.5545 66.0199C52.4604 66.0199 50.3663 66.056 48.2722 66.0199C47.5863 66.0199 47.2974 66.1645 47.1891 66.9233C46.792 70.0671 47.9112 72.5243 50.5107 74.2227C53.1103 75.9211 55.8903 75.9211 58.4899 74.2227C61.0894 72.5243 62.1364 70.031 61.7754 66.9233C61.6671 66.1645 61.3782 66.0199 60.6923 66.0199C58.6704 66.056 56.6124 66.0199 54.5545 66.0199ZM23.1795 32.7389C28.4508 32.7389 33.5415 32.7389 38.7406 32.7389C36.105 28.1136 33.5776 23.6327 30.942 19.0074C28.3425 23.6689 25.8151 28.1497 23.1795 32.7389ZM70.26 32.7751C75.5313 32.7751 80.622 32.7751 85.8572 32.7751C83.2216 28.1497 80.6942 23.6689 78.0586 19.0435C75.423 23.6689 72.8595 28.1497 70.26 32.7751ZM98.3855 61.1416C97.3746 57.7087 93.1865 54.9624 89.3955 55.2515C85.4962 55.5406 81.5969 58.3591 81.2358 61.1777C81.308 61.2139 81.3802 61.25 81.4163 61.25C83.1855 61.25 84.9546 61.1416 86.7237 61.2861C88.204 61.3945 89.1427 60.8886 90.0092 59.7323C91.4173 57.8532 93.042 57.8171 94.3779 59.7684C95.4611 61.2861 96.7247 61.5029 98.3855 61.1416ZM54.5184 9.82891C54.9516 9.82891 55.3849 9.75664 55.782 9.82891C56.9374 10.0457 57.4789 9.35915 57.8761 8.45576C58.7426 6.50443 57.7317 4.22788 55.7459 3.50517C53.7963 2.78245 51.5939 3.86652 50.9801 5.89012C50.258 8.13053 51.4856 9.82891 53.7963 9.82891C54.0129 9.82891 54.2656 9.82891 54.5184 9.82891Z" fill="#3A61AE"/>
</g>
<defs>
<clipPath id="clip0_137_63">
<rect width="109" height="98" fill="white"/>
</clipPath>
</defs>
</svg>
