<svg width="98" height="99" viewBox="0 0 98 99" fill="none" xmlns="http://www.w3.org/2000/svg">
<path d="M85.8262 91.5767C85.1817 96.5376 82.3889 98.9999 77.5193 98.9999C54.0309 98.9999 30.5066 98.9999 7.01806 98.9999C3.72395 98.9999 1.43239 97.6963 0.537245 95.0529C-0.214673 92.7355 -0.250478 90.3093 0.573051 87.9919C1.28916 85.9279 2.93622 84.7329 5.01295 84.1897C5.01295 82.524 5.01295 80.8946 5.01295 79.3375C4.15361 78.8306 3.25847 78.4685 2.50655 77.8891C1.11014 76.8028 0.2508 75.3543 0.179189 73.5438C0.107578 72.4213 0.0717723 71.2987 0.143384 70.1762C0.394023 66.6276 2.86461 64.3101 6.40937 64.2739C6.69581 64.2739 7.01806 64.2739 7.44773 64.2739C7.44773 63.6945 7.44773 63.2238 7.44773 62.7168C7.44773 48.7395 7.48354 34.726 7.41193 20.7486C7.41193 17.6345 8.34287 15.1722 10.5986 13.0358C14.1792 9.59574 17.6165 6.04709 21.0539 2.46224C22.7367 0.724125 24.706 -0.0725098 27.105 -0.0725098C44.0411 -0.0725098 60.9413 -0.0725098 77.8774 -0.0725098C82.4247 -0.0725098 85.1817 2.49845 85.8262 7.35068C87.3301 7.35068 88.8339 7.31447 90.3378 7.35068C94.0973 7.4231 96.8186 9.48711 97.7137 12.9271C97.9285 13.76 97.9644 14.6652 97.9644 15.5705C97.9644 38.1298 97.9644 60.689 97.9644 83.2845C97.9644 87.4487 96.0309 90.2731 92.4503 91.2146C91.6268 91.4319 90.7316 91.4681 89.8365 91.5043C88.5475 91.6129 87.2227 91.5767 85.8262 91.5767ZM12.4247 64.3463C16.2201 64.3463 19.8723 64.3463 23.5245 64.3463C26.3531 64.3463 28.8237 66.3017 29.325 69.1623C29.6114 70.828 29.5398 72.5299 29.6114 74.3042C29.7546 74.3404 30.0411 74.4491 30.2917 74.5577C32.7981 75.4992 34.3378 77.708 34.3736 80.3876C34.3736 81.2205 34.3736 82.0895 34.3736 82.9224C34.3378 85.3123 33.2636 87.1228 31.1869 88.2815C30.6498 88.6074 30.0053 88.7885 29.5756 88.9696C29.5756 90.6715 29.5756 92.2647 29.5756 93.9666C30.0769 93.9666 30.4349 93.9666 30.8288 93.9666C46.4043 93.9666 62.0155 93.9666 77.591 93.9666C80.0257 93.9666 80.8135 93.17 80.8135 90.7077C80.8135 63.1875 80.8135 35.7036 80.8135 8.18353C80.8135 5.75741 79.9899 4.96077 77.5551 4.96077C61.9797 4.96077 46.3684 4.96077 30.793 4.96077C30.3991 4.96077 30.0053 4.96077 29.5398 4.96077C29.5398 9.81301 29.5398 14.4842 29.5398 19.1916C29.5398 21.4004 28.573 22.3419 26.3889 22.3419C22.1638 22.3419 17.903 22.3419 13.6779 22.3419C13.284 22.3419 12.8544 22.3419 12.4247 22.3419C12.4247 36.3916 12.4247 50.2965 12.4247 64.3463ZM85.7904 86.5797C87.1152 86.5797 88.3684 86.5797 89.6216 86.5797C92.3071 86.5797 93.0948 85.783 93.0948 83.0672C93.0948 60.6528 93.0948 38.2746 93.0948 15.8602C93.0948 15.4619 93.1306 15.0998 93.059 14.7014C92.9158 13.4341 92.0922 12.4926 90.839 12.4202C89.192 12.3115 87.5091 12.384 85.7904 12.384C85.7904 37.1521 85.7904 61.7753 85.7904 86.5797ZM14.8953 74.1956C17.1511 74.1956 19.4068 74.1956 21.6626 74.1956C24.5628 74.1956 24.5628 74.1956 24.5628 71.2625C24.5628 69.5606 24.3122 69.3072 22.6651 69.3072C17.7956 69.3072 12.8902 69.3072 8.02062 69.3072C5.04875 69.3072 5.04875 69.3072 5.08456 72.3488C5.08456 73.8335 5.44262 74.1956 6.91065 74.1956C9.56026 74.1956 12.2099 74.1956 14.8953 74.1956ZM19.7291 84.0811C22.0206 84.0811 24.3122 84.0811 26.6037 84.0811C29.504 84.0811 29.504 84.0811 29.4682 81.1118C29.4324 79.4824 29.1459 79.1565 27.4989 79.1565C22.7009 79.1565 17.8672 79.1565 13.0692 79.1565C9.91832 79.1565 9.88251 79.2289 9.95412 82.3792C9.98993 83.7552 10.2764 84.0449 11.6728 84.0449C14.3582 84.0811 17.0436 84.0811 19.7291 84.0811ZM14.7879 89.1144C12.4963 89.1144 10.2048 89.1144 7.9132 89.1144C5.04875 89.1144 5.04875 89.1144 5.04875 91.975C5.04875 93.6407 5.40681 94.0028 7.08967 94.0028C11.8518 94.0028 16.6498 94.0028 21.4119 94.0028C24.6344 94.0028 24.6344 94.0028 24.5986 90.7439C24.5628 89.4403 24.2764 89.1144 22.9516 89.1144C20.1945 89.1144 17.5091 89.1144 14.7879 89.1144ZM13.6779 17.2C17.3301 17.2 20.9106 17.2 24.4196 17.2C24.4196 13.5427 24.4196 9.95785 24.4196 6.33678C20.839 9.99406 17.3301 13.5427 13.6779 17.2Z" fill="#3A61AE"/>
<path d="M71.8978 50.8034H23.9182C23.0589 50.8034 22.3428 50.0792 22.3428 49.2102V48.7756C22.3428 47.9066 23.0589 47.1824 23.9182 47.1824H71.8978C72.7571 47.1824 73.4732 47.9066 73.4732 48.7756V49.2102C73.4732 50.0792 72.7571 50.8034 71.8978 50.8034Z" fill="#3A61AE"/>
<path d="M76.8748 21.3281H56.4656C55.6062 21.3281 54.8901 20.6039 54.8901 19.7348V19.3003C54.8901 18.4312 55.6062 17.707 56.4656 17.707H76.8748C77.7341 17.707 78.4502 18.4312 78.4502 19.3003V19.7348C78.4502 20.6039 77.7341 21.3281 76.8748 21.3281Z" fill="#3A61AE"/>
<path d="M76.875 14.5566H65.3098C64.4505 14.5566 63.7344 13.8324 63.7344 12.9633V12.5288C63.7344 11.6598 64.4505 10.9355 65.3098 10.9355H76.875C77.7344 10.9355 78.4505 11.6598 78.4505 12.5288V12.9633C78.4505 13.8324 77.7344 14.5566 76.875 14.5566Z" fill="#3A61AE"/>
<path d="M39.8159 32.662H35.9131V43.3442H32.798V32.662H28.9668V30.1997H39.8159V32.662Z" fill="#3A61AE"/>
<path d="M48.9107 40.8819H44.6141L43.8622 43.3442H40.5322L45.2944 30.1997H48.2304L53.0284 43.3442H49.6627L48.9107 40.8819ZM45.366 38.4557H48.1588L46.7624 33.8932L45.366 38.4557Z" fill="#3A61AE"/>
<path d="M60.2966 34.5812L62.4091 30.1997H65.9897L62.3733 36.7176L66.0971 43.3442H62.4807L60.2966 38.8903L58.1125 43.3442H54.4961L58.2199 36.7176L54.6035 30.1997H58.1841L60.2966 34.5812Z" fill="#3A61AE"/>
<path d="M54.3174 70.683C54.3174 69.7416 54.6038 68.9811 55.2125 68.4018C55.8212 67.8224 56.6447 67.5327 57.6473 67.5327C58.6857 67.5327 59.5092 67.8224 60.1179 68.4018C60.7266 68.9811 61.013 69.7416 61.013 70.7555V71.5159C61.013 72.4574 60.7266 73.2178 60.1179 73.7972C59.5092 74.3765 58.7215 74.6662 57.6831 74.6662C56.6806 74.6662 55.857 74.3765 55.2483 73.7972C54.6396 73.2178 54.3174 72.4574 54.3174 71.4435V70.683ZM56.5731 71.5159C56.5731 71.878 56.6806 72.1677 56.8596 72.3849C57.0744 72.6022 57.3251 72.7108 57.6831 72.7108C58.3992 72.7108 58.7573 72.2401 58.7573 71.2986V70.683C58.7573 70.3209 58.6499 70.0313 58.4708 69.7778C58.2918 69.5605 58.0054 69.4157 57.6473 69.4157C57.3251 69.4157 57.0386 69.5243 56.8238 69.7416C56.6089 69.9588 56.5373 70.2847 56.5373 70.6468V71.5159H56.5731ZM58.3634 81.8721L56.7522 81.0393L64.1281 69.126L65.7394 69.9588L58.3634 81.8721ZM61.4785 79.265C61.4785 78.3235 61.8008 77.5631 62.4095 76.9837C63.0182 76.4043 63.8417 76.1146 64.8442 76.1146C65.8826 76.1146 66.7061 76.4043 67.3148 76.9475C67.9235 77.5269 68.21 78.2873 68.21 79.3012V80.0254C68.21 80.9669 67.9235 81.7273 67.3148 82.3067C66.7061 82.886 65.8826 83.1757 64.88 83.1757C63.8775 83.1757 63.054 82.886 62.4453 82.3067C61.8366 81.7273 61.5143 80.9669 61.5143 79.953V79.265H61.4785ZM63.7343 80.0978C63.7343 80.4237 63.8417 80.7134 64.0565 80.9669C64.2713 81.2204 64.5578 81.329 64.88 81.329C65.5603 81.329 65.9184 81.0031 65.9542 80.3875V79.3012C65.9542 78.9391 65.8468 78.6494 65.6678 78.3959C65.4529 78.1787 65.2023 78.07 64.8442 78.07C64.522 78.07 64.2355 78.1787 64.0565 78.3959C63.8417 78.6132 63.7343 78.9029 63.7343 79.265V80.0978Z" fill="#3A61AE"/>
<path d="M61.1921 90.9612C52.563 90.925 45.5093 83.8277 45.5093 75.1371C45.5093 66.3379 52.6346 59.2044 61.3712 59.2406C70.0003 59.2768 77.054 66.3741 77.054 75.0647C77.054 83.8639 69.9645 90.9974 61.1921 90.9612ZM73.7957 74.4491C73.1512 66.8449 67.3865 61.884 59.9031 62.4634C53.6013 62.9703 48.4095 69.3072 48.7676 75.6803C49.1973 82.5965 54.9978 88.2092 62.1231 87.7022C69.0336 87.159 74.3328 81.0757 73.7957 74.4491Z" fill="#3A61AE"/>
</svg>
