<?xml version="1.0" encoding="utf-8"?>
<svg viewBox="0 0 750 500" style="enable-background:new 0 0 750 500;" xmlns="http://www.w3.org/2000/svg">
  <g id="BACKGROUND">
    <g>
      <defs>
        <rect id="SVGID_1_" width="750" height="500"/>
      </defs>
      <clipPath id="SVGID_00000120534801192671265170000014972636724267781521_">
        <rect width="750" height="500" transform="matrix(1, 0, 0, 1, 0, 0)" style="overflow: visible;"/>
      </clipPath>
      <rect style="clip-path:url(#SVGID_00000120534801192671265170000014972636724267781521_);fill:#FFFFFF;" width="750" height="500"/>
      <g id="g-2" transform="matrix(1, 0, 0, 1, 676.001282, 24.363804)">
        <g transform="matrix(1, 0, 0, 1, -658.149109, -13.81214)">
          <polygon style="fill: rgb(163, 163, 163);" points="635.736,275.635 94.179,275.635 101.521,42.327 649.141,42.327 &#9;&#9;"/>
          <polygon style="fill:#C9EDFB;" points="108.584,261.559 117.723,56.404 631.802,56.404 620.015,261.559 &#9;&#9;"/>
          <g>
            <defs>
              <polygon id="polygon-1" points="108.584,261.559 117.723,56.404 &#10;&#9;&#9;&#9;&#9;&#9;631.802,56.404 620.015,261.559 &#9;&#9;&#9;&#9;"/>
            </defs>
            <clipPath id="clip-1">
              <polygon points="108.584,261.559 117.723,56.404 &#10;&#9;&#9;&#9;&#9;&#9;631.802,56.404 620.015,261.559 &#9;&#9;&#9;&#9;" transform="matrix(1, 0, 0, 1, 0, 0)" style="overflow: visible;"/>
            </clipPath>
            <g style="clip-path: url(#clip-1);">
              <rect x="-15.921" y="182.44" style="fill:#63BBCE;" width="30.929" height="91.158"/>
              <rect x="34.542" y="153.546" style="fill:#63BBCE;" width="28.894" height="129.819"/>
              <rect x="68.225" y="123.024" style="fill:#63BBCE;" width="27.161" height="171.736"/>
              <rect x="71.749" y="115.928" style="fill:#63BBCE;" width="20.113" height="7.096"/>
              <polygon style="fill:#63BBCE;" points="98.841,283.365 137.909,283.365 137.909,92.502 98.841,106.103 &#9;&#9;&#9;&#9;"/>
              <rect x="153.373" y="110.815" style="fill:#63BBCE;" width="34.184" height="162.783"/>
              <polygon style="fill:#63BBCE;" points="196.511,276.04 223.777,276.04 223.777,127.907 196.511,152.881 &#9;&#9;&#9;&#9;"/>
              <rect x="245.753" y="160.871" style="fill:#63BBCE;" width="41.51" height="110.285"/>
              <rect x="311.68" y="106.318" style="fill:#63BBCE;" width="38.254" height="172.977"/>
              <rect x="318.603" y="89.633" style="fill:#63BBCE;" width="24.408" height="189.663"/>
              <rect x="-67.605" y="208.892" style="fill:#63BBCE;" width="39.475" height="70.404"/>
              <rect x="363.77" y="134.398" style="fill:#63BBCE;" width="41.103" height="144.897"/>
              <rect x="337.93" y="238.193" style="fill:#63BBCE;" width="41.103" height="41.103"/>
              <rect x="277.5" y="238.193" style="fill:#63BBCE;" width="41.103" height="41.103"/>
              <rect x="175.959" y="238.193" style="fill:#63BBCE;" width="41.103" height="41.103"/>
              <rect x="63.679" y="123.024" style="fill:#63BBCE;" width="31.707" height="171.736"/>
              <rect x="-12.258" y="164.202" style="fill:#63BBCE;" width="23.604" height="31.743"/>
              <rect x="81.105" y="102.034" style="fill:#63BBCE;" width="1.401" height="84.873"/>
              <rect x="43.543" y="127.907" style="fill:#63BBCE;" width="1.401" height="84.873"/>
              <rect x="-0.457" y="149.77" style="fill:#63BBCE;" width="1.401" height="84.873"/>
              <rect x="265.807" y="121.765" style="fill:#63BBCE;" width="1.401" height="84.873"/>
              <rect x="213.824" y="192.207" style="fill:#63BBCE;" width="49.579" height="78.95"/>
              <rect x="126.991" y="164.202" style="fill:#63BBCE;" width="43.475" height="109.396"/>
              <rect x="-40.234" y="221.227" style="fill:#63BBCE;" width="149.298" height="62.138"/>
              <rect x="7.244" y="195.945" style="fill:#63BBCE;" width="41.596" height="44.75"/>
              <rect x="34.542" y="144.471" style="fill:#63BBCE;" width="20.805" height="20.805"/>
              <rect x="302.427" y="151.382" style="fill:#63BBCE;" width="16.176" height="96.686"/>
              <rect x="238.614" y="173.329" style="fill:#63BBCE;" width="16.666" height="24.982"/>
              <rect x="250.69" y="149.77" style="fill:#63BBCE;" width="31.636" height="11.101"/>
              <rect x="367.322" y="173.031" style="fill:#63BBCE;" width="30.929" height="91.158"/>
              <rect x="417.785" y="144.137" style="fill:#63BBCE;" width="28.894" height="129.819"/>
              <rect x="451.468" y="113.615" style="fill:#63BBCE;" width="27.161" height="171.736"/>
              <rect x="454.992" y="106.519" style="fill:#63BBCE;" width="20.113" height="7.096"/>
              <polygon style="fill:#63BBCE;" points="482.084,273.956 521.152,273.956 521.152,114.15 482.084,96.694 &#9;&#9;&#9;&#9;"/>
              <rect x="536.616" y="101.406" style="fill:#63BBCE;" width="34.184" height="162.783"/>
              <polygon style="fill:#63BBCE;" points="579.754,266.631 607.02,266.631 607.02,118.499 579.754,143.472 &#9;&#9;&#9;&#9;"/>
              <rect x="628.995" y="151.462" style="fill:#63BBCE;" width="41.51" height="110.285"/>
              <rect x="694.923" y="160.822" style="fill:#63BBCE;" width="38.254" height="109.065"/>
              <rect x="701.846" y="144.137" style="fill:#63BBCE;" width="24.408" height="125.75"/>
              <rect x="315.638" y="199.483" style="fill:#63BBCE;" width="39.475" height="70.404"/>
              <rect x="747.013" y="188.902" style="fill:#63BBCE;" width="41.103" height="80.985"/>
              <rect x="721.173" y="228.784" style="fill:#63BBCE;" width="41.103" height="41.103"/>
              <rect x="660.743" y="228.784" style="fill:#63BBCE;" width="41.103" height="41.103"/>
              <rect x="559.202" y="228.784" style="fill:#63BBCE;" width="41.103" height="41.103"/>
              <rect x="451.468" y="113.615" style="fill:#63BBCE;" width="27.161" height="171.736"/>
              <rect x="370.984" y="154.793" style="fill:#63BBCE;" width="23.604" height="31.743"/>
              <rect x="464.348" y="92.626" style="fill:#63BBCE;" width="1.401" height="84.873"/>
              <rect x="426.786" y="118.499" style="fill:#63BBCE;" width="1.401" height="84.873"/>
              <rect x="382.786" y="140.361" style="fill:#63BBCE;" width="1.401" height="84.873"/>
              <rect x="649.05" y="112.357" style="fill:#63BBCE;" width="1.401" height="84.873"/>
              <rect x="713.349" y="118.386" style="fill:#63BBCE;" width="1.401" height="84.873"/>
              <rect x="597.067" y="182.798" style="fill:#63BBCE;" width="49.579" height="78.95"/>
              <rect x="510.234" y="154.793" style="fill:#63BBCE;" width="43.475" height="109.396"/>
              <rect x="343.009" y="211.818" style="fill:#63BBCE;" width="149.298" height="62.138"/>
              <rect x="390.487" y="186.536" style="fill:#63BBCE;" width="41.596" height="44.75"/>
              <rect x="417.785" y="135.062" style="fill:#63BBCE;" width="20.805" height="20.805"/>
              <rect x="685.67" y="205.886" style="fill:#63BBCE;" width="16.176" height="32.773"/>
              <rect x="621.857" y="163.92" style="fill:#63BBCE;" width="16.666" height="24.982"/>
              <rect x="633.933" y="140.361" style="fill:#63BBCE;" width="31.636" height="11.101"/>
              <g>
                <rect x="119.96" y="194.89" style="fill:#8CC6DC;" width="38.701" height="114.065"/>
                <rect x="183.103" y="158.735" style="fill:#8CC6DC;" width="36.155" height="162.441"/>
                <rect x="225.251" y="120.544" style="fill:#8CC6DC;" width="33.986" height="214.89"/>
                <rect x="229.66" y="111.665" style="fill:#8CC6DC;" width="25.167" height="8.879"/>
                <polygon style="fill:#8CC6DC;" points="263.56,321.176 312.445,321.176 312.445,101.399 263.56,118.417 &#9;&#9;&#9;&#9;&#9;"/>
                <rect x="331.795" y="105.267" style="fill:#8CC6DC;" width="42.774" height="203.688"/>
                <polygon style="fill:#8CC6DC;" points="385.773,312.01 419.89,312.01 419.89,126.654 385.773,140.361 &#9;&#9;&#9;&#9;&#9;"/>
                <rect x="447.388" y="167.901" style="fill:#8CC6DC;" width="51.94" height="137.998"/>
                <rect x="529.882" y="179.613" style="fill:#8CC6DC;" width="47.867" height="136.471"/>
                <rect x="538.545" y="158.735" style="fill:#8CC6DC;" width="30.541" height="157.349"/>
                <rect x="55.289" y="227.989" style="fill:#8CC6DC;" width="49.394" height="88.095"/>
                <rect x="595.062" y="214.749" style="fill:#8CC6DC;" width="51.431" height="101.335"/>
                <rect x="562.729" y="264.653" style="fill:#8CC6DC;" width="51.431" height="51.431"/>
                <rect x="487.113" y="264.653" style="fill:#8CC6DC;" width="51.431" height="51.431"/>
                <rect x="360.057" y="264.653" style="fill:#8CC6DC;" width="51.431" height="51.431"/>
                <rect x="225.251" y="120.544" style="fill:#8CC6DC;" width="33.986" height="214.89"/>
                <rect x="124.543" y="172.069" style="fill:#8CC6DC;" width="29.535" height="39.719"/>
                <rect x="401.955" y="124.592" style="fill:#8CC6DC;" width="1.752" height="70.297"/>
                <rect x="352.306" y="82.352" style="fill:#8CC6DC;" width="1.752" height="106.2"/>
                <rect x="241.368" y="94.28" style="fill:#8CC6DC;" width="1.752" height="106.2"/>
                <rect x="194.367" y="126.654" style="fill:#8CC6DC;" width="1.752" height="106.2"/>
                <rect x="139.311" y="154.011" style="fill:#8CC6DC;" width="1.752" height="106.2"/>
                <rect x="472.482" y="118.969" style="fill:#8CC6DC;" width="1.752" height="106.2"/>
                <rect x="284.844" y="92.437" style="fill:#8CC6DC;" width="1.752" height="106.2"/>
                <rect x="288.134" y="75.533" style="fill:#8CC6DC;" width="1.752" height="106.2"/>
                <rect x="552.939" y="126.513" style="fill:#8CC6DC;" width="1.752" height="106.2"/>
                <rect x="394.819" y="108.549" style="fill:#8CC6DC;" width="1.752" height="106.2"/>
                <rect x="407.437" y="207.111" style="fill:#8CC6DC;" width="62.038" height="98.789"/>
                <rect x="298.783" y="172.069" style="fill:#8CC6DC;" width="54.399" height="136.886"/>
                <rect x="89.538" y="243.424" style="fill:#8CC6DC;" width="186.814" height="77.752"/>
                <rect x="148.947" y="211.788" style="fill:#8CC6DC;" width="52.049" height="55.995"/>
                <rect x="183.103" y="147.38" style="fill:#8CC6DC;" width="26.033" height="26.033"/>
                <rect x="518.303" y="236.001" style="fill:#8CC6DC;" width="20.241" height="41.008"/>
                <rect x="438.456" y="183.489" style="fill:#8CC6DC;" width="20.854" height="31.26"/>
                <rect x="453.566" y="154.011" style="fill:#8CC6DC;" width="39.585" height="13.89"/>
                <g>
                  <rect x="272.195" y="128.633" style="fill:#C9EDFB;" width="33.222" height="2.867"/>
                  <rect x="272.195" y="141.016" style="fill:#C9EDFB;" width="33.222" height="2.867"/>
                  <rect x="272.195" y="153.4" style="fill:#C9EDFB;" width="33.222" height="2.867"/>
                  <rect x="272.195" y="165.783" style="fill:#C9EDFB;" width="33.222" height="2.867"/>
                  <rect x="272.195" y="178.167" style="fill:#C9EDFB;" width="33.222" height="2.867"/>
                  <rect x="272.195" y="190.55" style="fill:#C9EDFB;" width="33.222" height="2.867"/>
                  <rect x="272.195" y="202.934" style="fill:#C9EDFB;" width="33.222" height="2.867"/>
                  <rect x="272.195" y="215.317" style="fill:#C9EDFB;" width="33.222" height="2.867"/>
                  <rect x="272.195" y="227.701" style="fill:#C9EDFB;" width="33.222" height="2.867"/>
                  <rect x="272.195" y="240.084" style="fill:#C9EDFB;" width="33.222" height="2.867"/>
                  <rect x="272.195" y="252.468" style="fill:#C9EDFB;" width="33.222" height="2.867"/>
                  <rect x="272.195" y="264.851" style="fill:#C9EDFB;" width="33.222" height="2.867"/>
                  <rect x="272.195" y="277.235" style="fill:#C9EDFB;" width="33.222" height="2.867"/>
                </g>
                <g>
                  <rect x="538.08" y="188.987" style="fill:#C9EDFB;" width="33.222" height="2.867"/>
                  <rect x="538.08" y="201.37" style="fill:#C9EDFB;" width="33.222" height="2.867"/>
                  <rect x="538.08" y="213.754" style="fill:#C9EDFB;" width="33.222" height="2.867"/>
                  <rect x="538.08" y="226.137" style="fill:#C9EDFB;" width="33.222" height="2.867"/>
                  <rect x="538.08" y="238.521" style="fill:#C9EDFB;" width="33.222" height="2.867"/>
                  <rect x="538.08" y="250.904" style="fill:#C9EDFB;" width="33.222" height="2.867"/>
                  <rect x="538.08" y="263.288" style="fill:#C9EDFB;" width="33.222" height="2.867"/>
                  <rect x="538.08" y="275.671" style="fill:#C9EDFB;" width="33.222" height="2.867"/>
                  <rect x="538.08" y="288.055" style="fill:#C9EDFB;" width="33.222" height="2.867"/>
                </g>
                <g>
                  <rect x="128.287" y="201.073" style="fill:#C9EDFB;" width="22.048" height="1.668"/>
                  <rect x="128.287" y="208.277" style="fill:#C9EDFB;" width="22.048" height="1.668"/>
                  <rect x="128.287" y="215.481" style="fill:#C9EDFB;" width="22.048" height="1.668"/>
                  <rect x="128.287" y="222.685" style="fill:#C9EDFB;" width="22.048" height="1.668"/>
                  <rect x="128.287" y="229.889" style="fill:#C9EDFB;" width="22.048" height="1.668"/>
                  <rect x="128.287" y="237.094" style="fill:#C9EDFB;" width="22.048" height="1.668"/>
                  <rect x="128.287" y="244.298" style="fill:#C9EDFB;" width="22.048" height="1.668"/>
                  <rect x="128.287" y="251.502" style="fill:#C9EDFB;" width="22.048" height="1.668"/>
                  <rect x="128.287" y="258.706" style="fill:#C9EDFB;" width="22.048" height="1.668"/>
                  <rect x="128.287" y="265.91" style="fill:#C9EDFB;" width="22.048" height="1.668"/>
                  <rect x="128.287" y="273.114" style="fill:#C9EDFB;" width="22.048" height="1.668"/>
                  <rect x="128.287" y="280.319" style="fill:#C9EDFB;" width="22.048" height="1.668"/>
                  <rect x="128.287" y="287.523" style="fill:#C9EDFB;" width="22.048" height="1.668"/>
                </g>
                <g>
                  <rect x="158.671" y="220.303" style="fill:#C9EDFB;" width="22.048" height="1.668"/>
                  <rect x="158.671" y="227.507" style="fill:#C9EDFB;" width="22.048" height="1.668"/>
                  <rect x="158.671" y="234.712" style="fill:#C9EDFB;" width="22.048" height="1.668"/>
                  <rect x="158.671" y="241.916" style="fill:#C9EDFB;" width="22.048" height="1.668"/>
                  <rect x="158.671" y="249.12" style="fill:#C9EDFB;" width="22.048" height="1.668"/>
                  <rect x="158.671" y="256.324" style="fill:#C9EDFB;" width="22.048" height="1.668"/>
                  <rect x="158.671" y="263.528" style="fill:#C9EDFB;" width="22.048" height="1.668"/>
                  <rect x="158.671" y="270.732" style="fill:#C9EDFB;" width="22.048" height="1.668"/>
                  <rect x="158.671" y="277.937" style="fill:#C9EDFB;" width="22.048" height="1.668"/>
                  <rect x="158.671" y="285.141" style="fill:#C9EDFB;" width="22.048" height="1.668"/>
                  <rect x="158.671" y="292.345" style="fill:#C9EDFB;" width="22.048" height="1.668"/>
                  <rect x="158.671" y="299.549" style="fill:#C9EDFB;" width="22.048" height="1.668"/>
                  <rect x="158.671" y="306.753" style="fill:#C9EDFB;" width="22.048" height="1.668"/>
                </g>
                <g>
                  <rect x="189.308" y="168.989" style="fill:#C9EDFB;" width="22.048" height="2.64"/>
                  <rect x="189.308" y="180.389" style="fill:#C9EDFB;" width="22.048" height="2.64"/>
                  <rect x="189.308" y="191.788" style="fill:#C9EDFB;" width="22.048" height="2.64"/>
                  <rect x="189.308" y="203.187" style="fill:#C9EDFB;" width="22.048" height="2.64"/>
                  <rect x="189.308" y="214.587" style="fill:#C9EDFB;" width="22.048" height="2.64"/>
                  <rect x="189.308" y="225.986" style="fill:#C9EDFB;" width="22.048" height="2.64"/>
                  <rect x="189.308" y="237.386" style="fill:#C9EDFB;" width="22.048" height="2.64"/>
                  <rect x="189.308" y="248.785" style="fill:#C9EDFB;" width="22.048" height="2.64"/>
                  <rect x="189.308" y="260.184" style="fill:#C9EDFB;" width="22.048" height="2.64"/>
                  <rect x="189.308" y="271.584" style="fill:#C9EDFB;" width="22.048" height="2.64"/>
                  <rect x="189.308" y="282.983" style="fill:#C9EDFB;" width="22.048" height="2.64"/>
                  <rect x="189.308" y="294.383" style="fill:#C9EDFB;" width="22.048" height="2.64"/>
                  <rect x="189.308" y="305.782" style="fill:#C9EDFB;" width="22.048" height="2.64"/>
                </g>
                <g>
                  <rect x="393.712" y="149.033" style="fill:#C9EDFB;" width="16.611" height="2.867"/>
                  <rect x="393.712" y="161.416" style="fill:#C9EDFB;" width="16.611" height="2.867"/>
                  <rect x="393.712" y="173.8" style="fill:#C9EDFB;" width="16.611" height="2.867"/>
                  <rect x="393.712" y="186.183" style="fill:#C9EDFB;" width="16.611" height="2.867"/>
                  <rect x="393.712" y="198.567" style="fill:#C9EDFB;" width="16.611" height="2.867"/>
                  <rect x="393.712" y="210.95" style="fill:#C9EDFB;" width="16.611" height="2.867"/>
                  <rect x="393.712" y="223.334" style="fill:#C9EDFB;" width="16.611" height="2.867"/>
                  <rect x="393.712" y="235.717" style="fill:#C9EDFB;" width="16.611" height="2.867"/>
                  <rect x="393.712" y="248.101" style="fill:#C9EDFB;" width="16.611" height="2.867"/>
                  <rect x="393.712" y="260.484" style="fill:#C9EDFB;" width="16.611" height="2.867"/>
                  <rect x="393.712" y="272.868" style="fill:#C9EDFB;" width="16.611" height="2.867"/>
                  <rect x="393.712" y="285.252" style="fill:#C9EDFB;" width="16.611" height="2.867"/>
                  <rect x="393.712" y="297.635" style="fill:#C9EDFB;" width="16.611" height="2.867"/>
                </g>
                <g>
                  <rect x="339.167" y="116.104" style="fill:#C9EDFB;" width="5.981" height="5.981"/>
                  <rect x="349.01" y="125.948" style="fill:#C9EDFB;" width="5.981" height="5.981"/>
                  <rect x="358.854" y="135.791" style="fill:#C9EDFB;" width="5.981" height="5.981"/>
                </g>
                <g>
                  <rect x="235.208" y="130.869" style="fill:#C9EDFB;" width="5.981" height="5.981"/>
                  <rect x="245.051" y="140.713" style="fill:#C9EDFB;" width="5.981" height="5.981"/>
                </g>
                <g>
                  <rect x="235.208" y="150.459" style="fill:#C9EDFB;" width="5.981" height="5.981"/>
                  <rect x="245.051" y="160.303" style="fill:#C9EDFB;" width="5.981" height="5.981"/>
                </g>
                <g>
                  <rect x="235.208" y="170.049" style="fill:#C9EDFB;" width="5.981" height="5.981"/>
                  <rect x="245.051" y="179.892" style="fill:#C9EDFB;" width="5.981" height="5.981"/>
                </g>
                <g>
                  <rect x="235.208" y="189.638" style="fill:#C9EDFB;" width="5.981" height="5.981"/>
                  <rect x="245.051" y="199.482" style="fill:#C9EDFB;" width="5.981" height="5.981"/>
                </g>
                <g>
                  <rect x="235.208" y="209.228" style="fill:#C9EDFB;" width="5.981" height="5.981"/>
                  <rect x="245.051" y="219.071" style="fill:#C9EDFB;" width="5.981" height="5.981"/>
                </g>
                <g>
                  <rect x="235.208" y="228.818" style="fill:#C9EDFB;" width="5.981" height="5.981"/>
                  <rect x="245.051" y="238.661" style="fill:#C9EDFB;" width="5.981" height="5.981"/>
                </g>
                <g>
                  <rect x="235.208" y="248.407" style="fill:#C9EDFB;" width="5.981" height="5.981"/>
                  <rect x="245.051" y="258.251" style="fill:#C9EDFB;" width="5.981" height="5.981"/>
                </g>
                <g>
                  <rect x="235.208" y="267.997" style="fill:#C9EDFB;" width="5.981" height="5.981"/>
                  <rect x="245.051" y="277.84" style="fill:#C9EDFB;" width="5.981" height="5.981"/>
                </g>
                <g>
                  <rect x="235.208" y="287.587" style="fill:#C9EDFB;" width="5.981" height="5.981"/>
                  <rect x="245.051" y="297.43" style="fill:#C9EDFB;" width="5.981" height="5.981"/>
                </g>
                <g>
                  <rect x="339.167" y="132.703" style="fill:#C9EDFB;" width="5.981" height="5.981"/>
                  <rect x="349.01" y="142.547" style="fill:#C9EDFB;" width="5.981" height="5.981"/>
                  <rect x="358.854" y="152.39" style="fill:#C9EDFB;" width="5.981" height="5.981"/>
                </g>
                <g>
                  <rect x="339.167" y="149.302" style="fill:#C9EDFB;" width="5.981" height="5.981"/>
                  <rect x="349.01" y="159.146" style="fill:#C9EDFB;" width="5.981" height="5.981"/>
                  <rect x="358.854" y="168.989" style="fill:#C9EDFB;" width="5.981" height="5.981"/>
                </g>
                <g>
                  <rect x="461.861" y="165.901" style="fill:#C9EDFB;" width="5.981" height="5.981"/>
                  <rect x="471.704" y="175.745" style="fill:#C9EDFB;" width="5.981" height="5.981"/>
                  <rect x="481.548" y="185.588" style="fill:#C9EDFB;" width="5.981" height="5.981"/>
                </g>
                <g>
                  <rect x="461.861" y="188.6" style="fill:#C9EDFB;" width="5.981" height="5.981"/>
                  <rect x="471.704" y="198.444" style="fill:#C9EDFB;" width="5.981" height="5.981"/>
                  <rect x="481.548" y="208.287" style="fill:#C9EDFB;" width="5.981" height="5.981"/>
                </g>
                <g>
                  <rect x="461.861" y="211.299" style="fill:#C9EDFB;" width="5.981" height="5.981"/>
                  <rect x="471.704" y="221.143" style="fill:#C9EDFB;" width="5.981" height="5.981"/>
                  <rect x="481.548" y="230.986" style="fill:#C9EDFB;" width="5.981" height="5.981"/>
                </g>
                <g>
                  <rect x="461.861" y="233.998" style="fill:#C9EDFB;" width="5.981" height="5.981"/>
                  <rect x="471.704" y="243.842" style="fill:#C9EDFB;" width="5.981" height="5.981"/>
                  <rect x="481.548" y="253.685" style="fill:#C9EDFB;" width="5.981" height="5.981"/>
                </g>
                <g>
                  <rect x="461.861" y="256.697" style="fill:#C9EDFB;" width="5.981" height="5.981"/>
                  <rect x="471.704" y="266.54" style="fill:#C9EDFB;" width="5.981" height="5.981"/>
                  <rect x="481.548" y="276.384" style="fill:#C9EDFB;" width="5.981" height="5.981"/>
                </g>
                <g>
                  <rect x="461.861" y="279.396" style="fill:#C9EDFB;" width="5.981" height="5.981"/>
                  <rect x="471.704" y="289.239" style="fill:#C9EDFB;" width="5.981" height="5.981"/>
                  <rect x="481.548" y="299.083" style="fill:#C9EDFB;" width="5.981" height="5.981"/>
                </g>
                <g>
                  <rect x="339.167" y="165.901" style="fill:#C9EDFB;" width="5.981" height="5.981"/>
                  <rect x="349.01" y="175.745" style="fill:#C9EDFB;" width="5.981" height="5.981"/>
                  <rect x="358.854" y="185.588" style="fill:#C9EDFB;" width="5.981" height="5.981"/>
                </g>
                <g>
                  <rect x="339.167" y="182.501" style="fill:#C9EDFB;" width="5.981" height="5.981"/>
                  <rect x="349.01" y="192.344" style="fill:#C9EDFB;" width="5.981" height="5.981"/>
                  <rect x="358.854" y="202.187" style="fill:#C9EDFB;" width="5.981" height="5.981"/>
                </g>
                <g>
                  <rect x="339.167" y="199.1" style="fill:#C9EDFB;" width="5.981" height="5.981"/>
                  <rect x="349.01" y="208.943" style="fill:#C9EDFB;" width="5.981" height="5.981"/>
                  <rect x="358.854" y="218.787" style="fill:#C9EDFB;" width="5.981" height="5.981"/>
                </g>
                <g>
                  <rect x="339.167" y="215.699" style="fill:#C9EDFB;" width="5.981" height="5.981"/>
                  <rect x="349.01" y="225.542" style="fill:#C9EDFB;" width="5.981" height="5.981"/>
                  <rect x="358.854" y="235.386" style="fill:#C9EDFB;" width="5.981" height="5.981"/>
                </g>
                <g>
                  <rect x="339.167" y="232.298" style="fill:#C9EDFB;" width="5.981" height="5.981"/>
                  <rect x="349.01" y="242.141" style="fill:#C9EDFB;" width="5.981" height="5.981"/>
                  <rect x="358.854" y="251.985" style="fill:#C9EDFB;" width="5.981" height="5.981"/>
                </g>
                <g>
                  <rect x="339.167" y="248.897" style="fill:#C9EDFB;" width="5.981" height="5.981"/>
                  <rect x="349.01" y="258.74" style="fill:#C9EDFB;" width="5.981" height="5.981"/>
                  <rect x="358.854" y="268.584" style="fill:#C9EDFB;" width="5.981" height="5.981"/>
                </g>
                <g>
                  <rect x="339.167" y="265.496" style="fill:#C9EDFB;" width="5.981" height="5.981"/>
                  <rect x="349.01" y="275.339" style="fill:#C9EDFB;" width="5.981" height="5.981"/>
                  <rect x="358.854" y="285.183" style="fill:#C9EDFB;" width="5.981" height="5.981"/>
                </g>
                <g>
                  <rect x="339.167" y="282.095" style="fill:#C9EDFB;" width="5.981" height="5.981"/>
                  <rect x="349.01" y="291.938" style="fill:#C9EDFB;" width="5.981" height="5.981"/>
                  <rect x="358.854" y="301.782" style="fill:#C9EDFB;" width="5.981" height="5.981"/>
                </g>
              </g>
            </g>
          </g>
          <g style="opacity:0.22;">
            <g>
              <g>
                <polygon style="fill:#FFFFFF;" points="241.35,56.4 108.93,253.69 110.13,226.78 224.48,56.4 &#9;&#9;&#9;&#9;&#9;"/>
              </g>
              <g>
                <polygon style="fill:#FFFFFF;" points="302.55,56.4 164.85,261.56 125.11,261.56 262.8,56.4 &#9;&#9;&#9;&#9;&#9;"/>
              </g>
            </g>
            <g>
              <g>
                <polygon style="fill:#FFFFFF;" points="416.3,56.4 278.61,261.56 261.74,261.56 399.44,56.4 &#9;&#9;&#9;&#9;&#9;"/>
              </g>
              <g>
                <polygon style="fill:#FFFFFF;" points="477.51,56.4 339.82,261.56 300.07,261.56 437.77,56.4 &#9;&#9;&#9;&#9;&#9;"/>
              </g>
            </g>
            <g>
              <g>
                <polygon style="fill:#FFFFFF;" points="562.11,56.4 424.41,261.56 407.55,261.56 545.25,56.4 &#9;&#9;&#9;&#9;&#9;"/>
              </g>
              <g>
                <polygon style="fill:#FFFFFF;" points="623.31,56.4 485.62,261.56 445.87,261.56 583.57,56.4 &#9;&#9;&#9;&#9;&#9;"/>
              </g>
            </g>
            <g>
              <g>
                <polygon style="fill:#FFFFFF;" points="626.11,155.42 624.54,182.89 571.74,261.56 554.88,261.56 &#9;&#9;&#9;&#9;&#9;"/>
              </g>
              <g>
                <polygon style="fill:#FFFFFF;" points="622.53,217.86 620.02,261.56 593.2,261.56 &#9;&#9;&#9;&#9;&#9;"/>
              </g>
            </g>
          </g>
          <polygon style="fill: rgb(163, 163, 163);" points="631.802,94.489 113.495,94.489 113.495,88.155 631.802,82.413 &#9;&#9;"/>
          <g>
            <polygon style="fill: rgb(163, 163, 163);" points="200.844,267.732 196.977,267.732 193.11,49.315 200.844,49.315 &#9;&#9;&#9;"/>
            <polygon style="fill: rgb(163, 163, 163);" points="288.177,267.732 284.31,267.732 280.443,49.315 288.177,49.315 &#9;&#9;&#9;"/>
            <polygon style="fill: rgb(163, 163, 163);" points="367.776,49.315 371.643,49.315 375.51,267.732 367.776,267.732 &#9;&#9;&#9;"/>
            <polygon style="fill: rgb(163, 163, 163);" points="462.843,267.732 458.976,267.732 455.11,49.315 462.843,49.315 &#9;&#9;&#9;"/>
            <polygon style="fill: rgb(163, 163, 163);" points="542.443,49.315 546.31,49.315 550.177,267.732 542.443,267.732 &#9;&#9;&#9;"/>
          </g>
        </g>
      </g>
    </g>
  </g>
  <g id="OBJECTS">
    <g>
      <path style="fill:#732A24;" d="M290.855,301.721c4.709-8.864,18.157-19.669,18.241-30.131c0.083-10.335-1.701-20.58-4.79-30.458 c-1.101-2.849-2.355-5.651-3.798-8.378c-5.02-9.485-11.395-18.198-17.423-27.05c-3.048-4.477-5.806-8.799-7.334-13.439 c-9.969-15.982-9.242-35.715-13.826-48.972c-5.835-16.874-52.13-12.659-57.545,9.305c-9.056,36.739,2.434,42.466-6.249,61.765 c-8.683,19.299-26.658,38.094,5.342,72.222C239.514,325.023,266.18,322.555,290.855,301.721z"/>
      <path style="fill:#732A24;" d="M295.255,305.67c6.303-7.811,13.757-23.618,13.841-34.079c0.083-10.391-1.724-20.688-4.847-30.613 c-1.087-2.796-2.323-5.545-3.74-8.223c-2.386-4.509-5.084-8.841-7.9-13.1c-8.065-2.816-17.595-6.364-22.248-9.799 c-5.971-4.408-10.291-10.851-9.967-22.109c0.16-5.563-8.005-20.058-14.09-21.951c-1.804-0.561-2.47-2.073-2.326-3.53 c-9.009-1.469-16.832-4.72-25.89-3.707c-2.526,4.482-8.997,1.044-9.118,3.169c-1.389,24.498-3.744,38.584-8.086,47.225 c-0.703,1.4-1.44,2.773-2.202,4.125c-0.177,0.424-0.352,0.848-0.549,1.286c-8.683,19.299-26.658,38.094,5.342,72.222 C239.514,325.023,274.974,330.801,295.255,305.67z"/>
      <path style="fill:#732A24;" d="M282.45,243.206c-7.051-13.889-19.513-26.883-21.569-42.577 c-2.355-17.981,3.662-37.014-1.946-54.453c-0.617-1.918-28.907-14.614-43.341-6.726c-21.083,56.335,22.187,76.899-6.961,152.318 c25.86,24.7,52.069,28.636,73.474,20.658C278.478,294.724,169.494,420.706,282.45,243.206z"/>
      <path style="fill:#FEC4AD;" d="M157.35,265.999c-1.646,4.016-3.95,10.467,0,12.968c3.95,2.502,6.978,4.081,6.978,4.081l2.238-7.9 l-0.461-6.611L157.35,265.999z"/>
      <path style="fill:#454545;" d="M196.051,223.712c-2.984,2.167-7.376,5.856-9.743,13.213s-12.466,41.53-13.728,44.377 c-1.262,2.848,13.842,13.776,13.842,13.776h11.09l5.049-15.912L196.051,223.712z"/>
      <path style="fill:#FEC4AD;" d="M244.037,183.104c0,0-0.578,17.116,3.48,24.913c2.801,5.381,12.948,7.127,12.948,7.127 s1.29,15.288-7.871,30.668c-9.161,15.38-40.24,22.726-40.24,22.726s-6.871-11.973-10.938-25.608 c-4.067-13.635-1.578-20.866-1.578-20.866s13.971-7.262,17.954-9.039c9.673-4.318,7.575-19.977,7.575-19.977L244.037,183.104z"/>
      <path style="fill:#F7A281;" d="M222.356,209.19c7.644-1.54,16.142-3.202,23.208-6.916c-1.89-8.354-1.527-19.17-1.527-19.17 l-18.668,9.943C225.369,193.047,226.692,202.964,222.356,209.19z"/>
      <path style="fill:#FEC4AD;" d="M261.915,226.707l-1.45-11.563c0,0-14.616,13.707-27.124,13.707 c-17.867,0-19.654-13.698-19.654-13.698l-6.228,5.613l1.122,15.586l13.381,78.32l33.389-56.218L261.915,226.707z"/>
      <path style="fill:#FFFFFF;" d="M214.909,248.142c5.009,7.618,26.891,10.082,37.686-2.33c0,0-2.806,119.681-2.806,132.488 c0,12.806-5.924,16.22-5.924,16.22l-44.024-3.413c0,0,9.96-52.265,7.62-78.191c-2.34-25.926-3.841-53.559-3.841-53.559 L214.909,248.142z"/>
      <path style="fill:#313131;" d="M176.869,430.573c-0.213-15.666,1.046-31.341,4.922-44.831c1.524-5.305,2.882-10.309,4.097-15.074 h96.694c2.985,14.249,5.779,28.684,5.82,44.061c0.015,5.571-0.038,10.84-0.145,15.845H176.869z"/>
      <path style="fill:#454545;" d="M218.552,283.506l-7.008-68.024l-15.493,8.23c-1.762,5.43-4.553,24.721-8.118,36.396 c-1.731,5.67-3.523,13.488-2.073,23.481c1.021,7.034,3.641,11.596,5.751,20.444c2.944,12.341-8.728,62-11.131,78.684 c0,0,5.148,9.997,32.253,14.329C214.11,354.743,215.021,325.675,218.552,283.506z"/>
      <path style="fill:none;stroke:#313131;stroke-width:0.7087;stroke-miterlimit:10;" d="M194.065,232.414 c-2.402,15.993-8.856,31.482-8.856,46.972c12.908,30.979,2.582,63.25-3.872,95.52c-2.582,16.781,19.362,19.362,31.397,22.142"/>
      <path style="fill:#313131;" d="M217.794,213.024c0,0,1.732,25.827,1.879,34.979c0.148,9.151,1.476,28.487,0,36.753 c-1.476,8.266-3.108,28.159-3.108,28.159s-1.422-41.361-3.364-49.521c-1.942-8.159-8.436-35.318-8.436-35.318l7.799-3.69 l-8.946-2.657c0,0,3.603-5.284,5.428-6.885L217.794,213.024z"/>
      <path style="fill:#454545;" d="M278.218,307.193c5.437-21.337,4.128-44.223,4.128-44.223s-2.01-33.908-3.772-39.338l-23.7-10.594 l-15.709,55.5c-4.302,45.332-9.906,82.735-11.405,128.241c2.458,0.259,13.353,2.129,16.103,1.832 c37.888-4.091,44.541-18.372,44.541-18.372C286.154,364.916,273.895,324.155,278.218,307.193z"/>
      <path style="fill:#313131;" d="M253.147,212.125l7.78,1.709l4.191,11.987h-6.699l4.972,7.58c0,0-13.595,29.132-19.526,44.393 c-5.931,15.262-9.342,40.936-9.342,40.936s-0.262-28.587,0.286-45.685c0.548-17.098,8.789-36.623,12.564-44.552 C251.148,220.564,253.147,212.125,253.147,212.125z"/>
      <path style="fill:#454545;" d="M275.176,247.673c0-1.112,3.399-24.041,3.399-24.041s7.971,4.247,10.35,12.681 c5.693,20.172,4.3,60.445,4.706,66.434c0.683,10.078-5.034,20.269-8.301,22.32c-3.267,2.051-14.934-13.74-14.934-13.74 l-7.005-8.266c0,0,6.281-15.05,8.692-27.263C274.493,263.585,275.176,247.673,275.176,247.673z"/>
      <path style="fill:none;stroke:#313131;stroke-width:0.7087;stroke-miterlimit:10;" d="M267.427,243.911 c-0.58,11.896,0.277,23.862,2.547,35.554"/>
      <path style="fill:#313131;" d="M162.307,281.475L162.307,281.475c-0.71,0.078-1.348-0.434-1.426-1.144l-3.645-33.229 c-0.078-0.71,0.434-1.348,1.144-1.426l0,0c0.71-0.078,1.348,0.434,1.426,1.144l3.645,33.229 C163.529,280.759,163.017,281.397,162.307,281.475z"/>
      <path style="fill:#FEC4AD;" d="M158.86,261.902c0.156,2.021,1.406,4.316,2.495,6.571c1.088,2.255,0.322,3.576-0.539,3.965 s-1.293,0-1.293,0s0.735,1.166,0.7,2.643c-0.035,1.477-0.89,2.332-2.523,1.866c-1.633-0.466-4.665-1.71-5.209-3.032 c-0.544-1.322,0-2.954,0-2.954s-0.855-2.488,0.156-3.809c1.011-1.322,1.788-1.088,1.788-1.088s-2.488-2.799-0.933-4.82 S158.86,261.902,158.86,261.902z"/>
      <path style="fill:#FEC4AD;" d="M176.281,282.078c-3.032-2.021-4.898-3.188-4.975-5.831c-0.078-2.643,1.088-4.509-1.088-7.075 c-2.177-2.565-0.466-3.343-3.188-4.043c-2.721-0.7-6.881-2.485-7.617-1.555s-1.979,2.391,0.664,4.179 c2.643,1.788,2.987,2.352,2.987,2.352s0.155,6.764,0.155,7.93c0,1.166,4.711,7.152,4.711,7.152L176.281,282.078z"/>
      <g>
        <polygon style="fill:#FFFFFF;" points="213.152,325.746 179.185,281.719 252.859,246.98 289.376,295.349 &#9;&#9;&#9;"/>
        <polygon style="fill:#FFFFFF;" points="179.185,281.719 129.449,262.035 171.345,312.198 213.152,325.746 &#9;&#9;&#9;"/>
        <polygon style="fill:#4EA2D9;" points="213.152,327.037 179.185,283.009 252.859,248.271 289.376,296.639 &#9;&#9;&#9;"/>
        <polygon style="fill:#348EC9;" points="179.185,283.009 129.449,263.326 171.345,313.488 213.152,327.037 &#9;&#9;&#9;"/>
        <path style="fill:#FEC4AD;" d="M222.183,331.874c-2.666-0.364-6.575-1.871-10.84-2.272c-4.265-0.402-13.684-6.977-17.238-9.82 c-3.554-2.843-6.753-4.443-10.485-8.352c-3.732-3.91-7.464-9.774-10.485-13.328c-3.021-3.554-3.554-4.976-2.488-6.042 c1.066-1.066,2.843,1.244,2.843,1.244s3.376,0,4.798,1.777c1.422,1.777,2.488,4.62,4.087,5.687 c1.599,1.066,5.509,3.554,7.641,4.087c2.133,0.533,5.154,3.199,7.997,3.91c2.843,0.711,4.62,0,3.199-3.91 c-1.422-3.91-2.31-6.668-1.955-9.021c0.355-2.353,3.91-4.045,4.798,0c0.889,4.045,3.554,10.442,6.042,12.575 c2.488,2.132,4.798,5.562,5.154,8.112c0.355,2.55,7.819,1.992,7.819,1.992L222.183,331.874z"/>
        <path style="fill:#FFFFFF;" d="M220.903,320.387l-1.273-3.291l-4.378-0.576c0,0-3.649,10.401-3.261,13.637 c0.388,3.236,8.044,3.236,8.044,3.236L220.903,320.387z"/>
        <path style="fill:#454545;" d="M285.329,325.067c-1.708,2.169-12.19,6.001-33.996,9.811c-18.956,3.312-32.483,2.735-32.483,2.735 s-2.009-2.111-2.288-9.507c-0.265-7.027,3.068-11.009,3.068-11.009s34.089-8.882,46.475-10.831 c12.385-1.949,12.447-0.424,12.447-0.424L285.329,325.067z"/>
        <path style="fill:none;stroke:#313131;stroke-width:0.7087;stroke-miterlimit:10;" d="M218.85,337.612 c0,0,32.247,0.565,61.695-9.864"/>
        <path style="fill:none;stroke:#313131;stroke-width:0.7087;stroke-miterlimit:10;" d="M278.552,305.841 c0,0-0.061-1.525-12.447,0.424c-12.386,1.949-46.475,10.831-46.475,10.831"/>
      </g>
      <g>
        <g>
          <path style="fill:#FEC4AD;" d="M215.465,168.514c0,0,0.405-6.694-5.185-6.603c-3.567,0.058-3.891,3.337-1.174,7.614 c1.144,1.8,1.203,5.836,2.637,7.154c1.743,1.602,3.256-0.81,3.809-1.911C216.466,172.947,215.465,168.514,215.465,168.514z"/>
        </g>
        <path style="fill:#F7A281;" d="M211.99,164.946c-1.011-1.496-2.336-0.556-2.943,0.812c-0.607,1.368,0.638,3.196,0.638,3.196 s-0.657-2.545,0.416-3.166c1.072-0.621,3.607,1.309,2.667,3.042c-0.939,1.733-2.241,1.859-1.456,2.777 c0.785,0.919-0.135,1.87,1.231,2.317c1.366,0.447,0.739-0.305,0.881-2.419c0.142-2.114,0.081,0.002-0.02-2.119 C213.302,167.265,212.86,166.233,211.99,164.946z"/>
      </g>
      <path style="fill:#FEC4AD;" d="M249.408,191.542c-1.602,2.679-8.547,9.862-13.692,11.544c-1.014,0.333-3.44,0.342-5.278-0.221 c-6.262-1.924-11.44-9.782-13.511-14.086c-1.561-3.252-3.872-9.497-4.067-15.192c-0.207-5.843-0.554-13.841-0.182-18.605 c0.592-7.578,4.274-11.632,9.365-13.268c14.085-4.531,37.185,9.251,36.587,14.578C257.668,164.826,255.432,184.26,249.408,191.542 z"/>
      <path style="fill:#732A24;" d="M223.055,130.926c-3.705-1.579-12.331,2.345-16.233,13.548c-2.972,8.531-4.262,15.872-4.703,21.872 c1.771-0.665,5.818-4.199,6.849-4.617c9.704-3.935,8.925-9.097,8.296-19.721C217.027,138.002,228.389,133.199,223.055,130.926z"/>
      <path style="fill:#732A24;" d="M260.454,167.891c2.599-6.184,1.468-8.182,2.042-13.304c1.066-9.515,0.642-16.683-9.203-24.012 c-4.523-3.367-21.732-9.356-31.224,2.387c-2.467,3.051-10.681,5.029-4.889,11.97c2.118,2.551,10.642,2.073,31.196,6.649 C254.947,153.043,255.981,165.525,260.454,167.891z"/>
      <path style="fill:#732A24;" d="M215.044,144.87c4.795,8.85,12.76,11.109,29.769,14.768c13.163,2.832,13.422,20.029,13.443,28.047 c0,0,6.303-19.67-1.763-31.453c-8.067-11.783-12.652-13.46-12.652-13.46L215.044,144.87z"/>
      <g>
        <path style="fill:#FEC4AD;" d="M254.388,170.351c0,0-0.019-6.706,5.557-6.294c3.558,0.264,3.693,3.556,0.734,7.669 c-1.246,1.732-1.537,5.757-3.044,6.99c-1.832,1.499-3.204-0.996-3.693-2.127C253.134,174.719,254.388,170.351,254.388,170.351z"/>
      </g>
      <path style="fill:#F7A281;" d="M257.573,166.974c0.998-1.438,2.146-0.427,2.621,0.972c0.475,1.399-0.753,3.156-0.753,3.156 s0.734-2.505-0.203-3.184c-0.937-0.679-3.338,1.109-2.583,2.891c0.756,1.782,1.927,1.979,1.166,2.853 c-0.761,0.874,0.02,1.874-1.242,2.246c-1.262,0.371-0.652-0.345-0.665-2.464c-0.013-2.119-0.074-0.002,0.134-2.114 C256.258,169.218,256.715,168.212,257.573,166.974z"/>
    </g>
    <g>
      <g>
        <path style="fill:#FEC4AD;" d="M413.482,194.857c-2.427,10.794-4.867,20.787-7.252,30.066h-55.118 c-2.153-10.025-4.577-20.846-7.32-32.561c5.637-2.815,13.142-3.764,15.636-8.751c0.923-1.841,1.17-8.53,1.215-12.011 c0.097-6.378-0.436-10.63-0.436-10.63h30.359c0,0-0.713,9.165-0.306,16.259c0.221,3.83,0.764,7.095,1.931,8.191 C395.827,188.855,406.351,191.438,413.482,194.857z"/>
        <path style="fill:#313131;" d="M426.492,432.223c0.395-30.667-0.114-60.066,0.052-64.322c0.751-19.218-1.446-34.777-1.446-34.777 l-48.909-15.418l-4.839,75.438c0,0,1.751,17.638,3.832,39.079H426.492z"/>
        <path style="fill:#313131;" d="M320.96,432.223h54.994c1.14-7.151,1.898-11.795,1.898-11.795l-6.589-102.722l-48.909,15.418 c0,0-2.197,15.559-1.446,34.777C321.074,372.157,320.565,401.556,320.96,432.223z"/>
        <path style="fill:#FFFFFF;" d="M323.761,368.154c35.336-0.596,61.717,4.886,96.577,0.428 c-1.177-32.545-1.164-79.957,1.646-101.527c3.996-30.667,6.423-55.318,6.423-55.318l-30.077-15.16l-2.882,6.339l-20.763,8.822 l-15.639-8.822l-9.03-7.865l-23.928,16.687c0,0-5.472,24.651-1.476,55.318C327.392,288.368,325.297,336.495,323.761,368.154z"/>
        <path style="fill:#F7A281;" d="M359.427,183.611c-0.176,0.353-0.384,0.68-0.608,0.995c9.781,0.751,24.552-1.181,31.513-6.328 c-0.026-0.346-0.053-0.691-0.074-1.048c-0.406-7.094,0.306-16.259,0.306-16.259h-30.359c0,0,0.534,4.252,0.436,10.63 C360.598,175.081,360.35,181.77,359.427,183.611z"/>
        <polygon style="fill:#DE324B;" points="379.99,218.034 386.696,309.846 374.67,321.03 360.984,310.466 369.98,218.034 &#9;&#9;&#9;"/>
        <polygon style="fill:#DE324B;" points="386.606,210.285 379.99,218.034 369.98,218.034 362.554,207.701 375.28,206.302 &#9;&#9;&#9;"/>
        <path style="fill:#454545;" d="M315.841,233.581c3.037,30.98,7.154,51.419,6.679,79.879c-0.316,18.94-3.647,71.8-3.647,71.8 s18.093,0.151,38.116-8.581c13.48-5.879,11.956-7.91,11.183-53.046c-0.578-33.713-18.378-75.497-20.453-98.203 c-0.867-9.488,2.473-36.347,2.473-36.347l-22.291,11.123L315.841,233.581z"/>
        <path style="fill:#454545;" d="M429.415,225.857c-0.889,28.46-0.149,41.803-0.72,47.145c-1.974,18.462-3.728,28.817-3.635,44.759 c0.197,33.665,4.111,66.071,4.111,66.071s-31.765,1.429-42.566-12.351c-8.647-11.032-9.154-45.168-7.89-59.477 c0.717-8.119,13.426-46.723,17.766-76.094c3.807-25.771,0.992-48.502,0.992-48.502l27.398,11.866L429.415,225.857z"/>
        <path style="fill:#FFFFFF;" d="M349.507,189.65l6.224-2.937c0,0,2.951,5.035,5.008,7.477 c9.364,11.12,14.541,12.112,14.541,12.112s-9.572,12.748-14.03,11.732C353.051,216.165,349.507,189.65,349.507,189.65z"/>
        <path style="fill:#FFFFFF;" d="M397.473,188.544l-3.174-3.132c0,0-4.012,6.799-6.031,9.199 c-9.19,10.924-14.272,11.899-14.272,11.899s9.395,12.524,13.77,11.526C395.814,216.199,397.473,188.544,397.473,188.544z"/>
        <path style="fill:#1A1A1A;" d="M388.255,323.633c0,1.749-1.418,3.166-3.166,3.166c-1.749,0-3.166-1.418-3.166-3.166 c0-1.749,1.418-3.166,3.166-3.166C386.838,320.467,388.255,321.884,388.255,323.633z"/>
        <circle style="fill:#1A1A1A;" cx="388.025" cy="348.395" r="3.166"/>
        <g>
          <g>
            <path style="fill:#FEC4AD;" d="M396.118,146.952c0,0-0.255-8.732,6.464-8.404c4.288,0.21,4.564,4.492,1.148,9.959 c-1.438,2.302-1.649,7.555-3.418,9.217c-2.151,2.021-3.887-1.177-4.514-2.631C394.761,152.688,396.118,146.952,396.118,146.952 z"/>
          </g>
          <path style="fill:#F7A281;" d="M399.831,142.436c1.15-1.91,2.566-0.637,3.185,1.167c0.619,1.804-0.796,4.138-0.796,4.138 s0.796-3.289-0.354-4.138c-1.15-0.849-3.976,1.57-3.006,3.862c0.97,2.292,2.386,2.504,1.501,3.671 c-0.885,1.167,0.089,2.44-1.416,2.971c-1.504,0.531-0.796-0.424-0.885-3.183c-0.089-2.759-0.089,0,0.089-2.759 C398.326,145.407,398.841,144.079,399.831,142.436z"/>
          <g>
            <path style="fill:#FEC4AD;" d="M354.769,146.952c0,0,0.255-8.732-6.464-8.404c-4.288,0.21-4.564,4.492-1.149,9.959 c1.438,2.302,1.649,7.555,3.418,9.217c2.151,2.021,3.887-1.177,4.514-2.631C356.126,152.688,354.769,146.952,354.769,146.952z"/>
          </g>
          <path style="fill:#F7A281;" d="M350.466,142.436c-1.268-1.91-2.828-0.637-3.511,1.167c-0.683,1.804,0.878,4.138,0.878,4.138 s-0.878-3.289,0.39-4.138c1.268-0.849,4.382,1.57,3.313,3.862c-1.07,2.292-2.63,2.504-1.655,3.671 c0.975,1.167-0.098,2.44,1.56,2.971c1.658,0.531,0.878-0.424,0.975-3.183c0.098-2.759,0.098,0-0.098-2.759 C352.124,145.407,351.557,144.079,350.466,142.436z"/>
        </g>
        <g>
          <path style="fill:#FEC4AD;" d="M401.27,133.94c-0.209,2.851-0.777,4.698-1.542,8.929c-0.181,1.018,1.113,14.867-6.097,26.927 c-1.949,3.26-10.192,12.336-19.255,12.567c-3.986,0.102-16.968-7.139-20.468-18.112c-0.71-2.225-2.101-7.315-3.212-19.269 c-0.115-1.237-0.302-2.287-0.448-3.223c-0.643-4.196-1.155-5.856-1.289-8.672c-0.416-8.932,9.398-21.753,26.432-21.476 C395.538,111.94,401.915,125.026,401.27,133.94z"/>
          <path style="fill:#832C2F;" d="M401.818,143.331c-1.59,2.403-3.356,2.49-3.356,2.49l-0.999-2.576 c2.657-7.408-2.829-9.939-2.857-15.168l-4.512-5.276l-3.486-4.07l7.655-6.971c3.522,0.661,7.063,2.94,9.227,7.23 c1.285,2.566,2.071,5.841,2.071,9.901C405.563,129.217,405.877,137.212,401.818,143.331z"/>
          <path style="fill:#832C2F;" d="M357.675,118.162l4.702,0.172l-8.123,10.025c-0.695,4.672-0.229,9.08-2.363,13.145l-0.121,0.23 l-1.598,3.048c0,0-3.94-5.689-4.151-12.902c-0.268-9.167,4.01-16.117,6.821-16.55L357.675,118.162z"/>
          <path style="fill:#832C2F;" d="M366.067,105.208c22.972-5.768,28.202,6.553,28.202,6.553s-3.697,4.252-5.924,6.553 c-3.128,3.231-6.21,4.8-17.068,4.477c-10.95-0.326-18.446,7.161-18.605,7.383c-0.006,0.006,4.621-9.444,4.621-9.444 S355.892,107.762,366.067,105.208z"/>
          <path style="fill:#832C2F;" d="M394.27,111.761c0,0-1.186-8.671-14.789-9.631c-8.95-0.632-17.313,1.729-22.127,4.897 c-9.628,6.335-14.911,4.945-14.911,4.945s7.294,12.041,17.067,7.213c8.746-4.321,19.807-1.31,23.27-2.115 C388.346,115.775,394.27,111.761,394.27,111.761z"/>
          <path style="fill:#832C2F;" d="M357.335,119.951c-4.93,5.644-4.663,10.223-4.663,10.223s3.078-5.753,9.147-8.609 c6.098-2.87,8.65-2.884,14.527-3.228c7.647-0.447,11.999-4.215,11.999-4.215S369.083,106.503,357.335,119.951z"/>
          <path style="fill:#832C2F;" d="M401.818,143.331c-1.59,2.403-3.356,2.49-3.356,2.49l-0.999-2.576 c1.407-6.921-1.415-10.139-3.664-13.91l-10.474-8.849c0.157-1.034,3.251-2.528,3.251-2.528 c3.707,1.609,11.58,6.794,12.191,16.056c0,0,5.251-10.572,4.327-15.053c0,0,0.157-0.038,0.397,0.029 c1.285,2.566,2.071,5.841,2.071,9.901C405.563,129.217,405.877,137.212,401.818,143.331z"/>
        </g>
        <path style="fill:#313131;" d="M357.251,186.274c0,0-6.486,13.536-2.134,39.25c2.745,16.218,6.326,30.761,9.099,43.516 c7.325,33.693,3.956,54.592,3.956,54.592l-25.925-97.812l5.289-7.976l-10.569-6.245c0,0,8.467-18.385,12.541-21.949 C353.581,186.086,357.251,186.274,357.251,186.274z"/>
        <path style="fill:#313131;" d="M394.3,185.412c0,0,4.09,16.084,0.016,43.073c-4.074,26.989-11.549,51.267-13.261,60.684 c-2.335,12.842-2.829,33.204-2.829,33.204s25.662-89.194,31.4-101.193l-5.818-5.421l6.632-6.234c0,0-6.304-16.878-10.378-20.442 C395.986,185.518,394.3,185.412,394.3,185.412z"/>
        <g>
          <path style="opacity:0.3;fill:#FFFFFF;" d="M393.322,147.159c-0.687,3.347-3.37,3.726-7.328,3.728 c-5.445,0.003-5.595-1.565-6.108-3.867c-0.513-2.301-0.457-4.169-0.275-4.666c0.497-1.352,1.927-1.383,6.219-1.478 c4.292-0.095,6.655-0.158,7.349,0.538C393.872,142.11,394.032,143.699,393.322,147.159z"/>
          <g>
            <path style="opacity:0.3;fill:#FFFFFF;" d="M357.087,141.415c0.693-0.695,3.057-0.633,7.349-0.538 c4.292,0.095,5.723,0.126,6.219,1.478c0.183,0.497,0.239,2.364-0.275,4.666c-0.513,2.302-0.664,3.87-6.108,3.867 c-3.959-0.002-6.641-0.381-7.328-3.728C356.233,143.699,356.394,142.11,357.087,141.415z"/>
            <path style="fill:#133A50;" d="M398.018,140.652c-0.092-1.033-4.75-1.495-8.093-1.566c-3.343-0.071-8.993-0.261-11,0.498 c-1.779,0.673-1.486,1.398-3.739,1.398c-1.973,0-2.066-0.725-3.845-1.398c-2.006-0.759-7.656-0.569-10.999-0.498 c-3.343,0.071-8.002,0.534-8.093,1.566c-0.049,0.556,0.016,1.342,0.186,2c0.145,0.565,1.812,0.871,2.103,1.024 c0.63,0.33,0.433,2.049,1.423,4.513c1.278,3.182,4.266,3.897,10.301,3.34c5.54-0.511,5.432-4.623,6.121-6.356 c0.59-1.482,0.285-1.963,2.796-1.963c2.466,0,2.116,0.481,2.706,1.963c0.69,1.733,0.582,5.845,6.121,6.356 c6.035,0.556,9.023-0.159,10.301-3.34c0.99-2.464,0.793-4.183,1.423-4.513c0.291-0.152,1.958-0.459,2.103-1.024 C398.002,141.993,398.067,141.208,398.018,140.652z M370.38,147.02c-0.513,2.302-0.664,3.87-6.108,3.867 c-3.959-0.002-6.641-0.381-7.328-3.728c-0.71-3.46-0.55-5.048,0.143-5.744c0.693-0.695,3.057-0.633,7.349-0.538 c4.292,0.095,5.723,0.126,6.219,1.478C370.837,142.852,370.893,144.719,370.38,147.02z M393.322,147.159 c-0.687,3.347-3.37,3.726-7.328,3.728c-5.445,0.003-5.595-1.565-6.108-3.867c-0.513-2.301-0.457-4.169-0.275-4.666 c0.497-1.352,1.927-1.383,6.219-1.478c4.292-0.095,6.655-0.158,7.349,0.538C393.872,142.11,394.032,143.699,393.322,147.159z"/>
          </g>
        </g>
      </g>
      <g>
        <path style="fill:#454545;" d="M413.289,289.805c1.238-20.355,0.576-41.537,1.819-55.318c2.892-32.046,9.764-35.215,9.764-35.215 s11.491,5.334,17.036,37.058c1.559,8.917,6.477,27.961,4.179,54.062c-1.731,19.657-5.229,22.286-10.648,24.705 c-7.427,3.316-21.78,6.805-28.746,2.289C410.382,304.619,413.13,307.715,413.289,289.805z"/>
        <path style="fill:#454545;" d="M336.173,289.805c-1.238-20.355-0.576-41.537-1.819-55.318 c-2.892-32.046-6.453-34.283-6.453-34.283s-13.587,6.097-18.182,28.772c-1.798,8.872-7.036,35.93-6.344,61.416 c0.536,19.725,5.245,24.615,10.734,26.869c7.982,3.278,30.99,0.039,36.648-0.956 C347.067,303.539,336.332,307.715,336.173,289.805z"/>
        <path style="fill:none;stroke:#313131;stroke-width:0.7087;stroke-miterlimit:10;" d="M337.908,299.505 c-3.152-21.41-3.152-43.354-3.554-65.017"/>
        <path style="fill:none;stroke:#313131;stroke-width:0.7087;stroke-miterlimit:10;" d="M422.845,287.871 c-1.182-17.961-1.609-35.971-1.279-53.967"/>
        <path style="fill:#FEC4AD;" d="M396.081,291.137c2.168-4.337,7.048-9.759,7.951-15c0.904-5.24,3.976-7.951,8.674-9.939 c4.699-1.988,9.036-2.891,11.566-3.614c2.53-0.723,3.253,1.988-0.361,3.614c-3.615,1.626-6.325,2.711-7.771,3.615 c-1.446,0.903-2.349,3.433-2.349,3.433s5.602-2.53,11.024-2.349c5.422,0.18,9.578-0.181,9.759,1.445 c0.181,1.626-2.349,3.253-7.409,3.433c-5.06,0.181-8.132,0.904-9.216,2.169c-1.084,1.265-2.616,1.877-2.616,1.877 s7.857-0.611,11.833-0.792c3.976-0.18,7.048,2.892,4.698,3.795c-2.349,0.904-7.048,0.542-10.662,0.723 c-3.615,0.181-5.869,4.156-5.869,4.156s4.243,0.362,8.76,0.542c4.518,0.181,6.145,1.807,3.253,2.891 c-2.891,1.084-8.821,0.425-12.013,0.904c-3.191,0.478-9.853,2.711-9.853,2.711L396.081,291.137z"/>
        <g>
          <path style="fill:#808194;" d="M397,310.351c8.439,0.699,7.973-15.273,7.973-15.273s-14.398-7.565-15.093-0.777 C389.185,301.088,397,310.351,397,310.351z"/>
          <g>
            <path style="fill:#FEC4AD;" d="M389.129,286.397c4.366,0.017,12.781-5.698,19.656-1.452c6.874,4.246,11.226,8.832,11.226,8.832 s-13.796-0.216-21.347,3.356c-7.551,3.572-14.984,9.588-14.984,9.588L389.129,286.397z"/>
            <path style="fill:#FFFFFF;" d="M387.516,287.654l3.957-3.063l5.933-0.344c0,0,3.451,11.97,4.439,14.462l-14.622,2.214 L387.516,287.654z"/>
            <path style="fill:#454545;" d="M391.474,284.591c-2.024,3.349,7.381,23.138,8.293,26.418c0,0-21.424,4.05-42.171,4.942 c-24.037,1.034-41.541-0.036-47.07-3.808c-5.529-3.772,1.202-30.533,15.466-25.085c8.684,3.317,22.103,4.743,34.591,2.1 C373.071,286.515,391.474,284.591,391.474,284.591z"/>
          </g>
        </g>
        <g>
          <g>
            <path style="fill:#FEC4AD;" d="M363.752,284.591c-4.338-0.484-14.605-6.71-21.922-3.281 c-7.317,3.429-12.166,7.485-12.166,7.485s17.246,2.414,24.336,6.829c7.09,4.415,13.784,11.245,13.784,11.245L363.752,284.591z"/>
            <path style="fill:#FFFFFF;" d="M370.23,289.676l-6.479-5.085l-4.275-1.216c0,0-8.412,5.377-9.235,11.953s0,6.858,0,6.858 l15.402,2.657L370.23,289.676z"/>
            <path style="fill:#454545;" d="M363.752,284.591c-5.596,1.927-9.569,3.246-9.569,22.129c0,0,17.993,8.202,38.501,11.471 c23.759,3.787,36.829,0.019,42.756-3.094c5.926-3.113,7.245-30.997-5.33-27.624c-8.978,2.408-25.215,7.819-37.316,3.759 C380.691,287.173,363.752,284.591,363.752,284.591z"/>
          </g>
        </g>
      </g>
      <path style="fill:none;stroke:#313131;stroke-width:0.7087;stroke-miterlimit:10;" d="M350.577,293.801 c-11.283-3.918-23.8-5.654-35.801-5.164"/>
      <path style="fill:none;stroke:#313131;stroke-width:0.7087;stroke-miterlimit:10;" d="M319.179,318.374 c20.124,0.893,41.805-2.595,60.005-3.965"/>
      <path style="fill:none;stroke:#313131;stroke-width:0.7087;stroke-miterlimit:10;" d="M428.717,318.414 c-11.894,2.17-24.753,2.111-36.597-0.169c-8.083-1.556-15.605-4.098-23.415-6.148c-4.903-1.287-8.311-2.092-13.421-2.987 c0,0-2.291-14.062,2.805-20.554"/>
      <path style="fill:none;stroke:#313131;stroke-width:0.7087;stroke-miterlimit:10;" d="M363.752,284.591 c8.104,1.258,32.329,10.457,47.128,7.465"/>
    </g>
    <g>
      <path style="fill:#313131;" d="M558.518,432.223c-0.026-13.899-0.195-24.188-0.092-27.013c0.71-19.566-1.367-35.407-1.367-35.407 l-33.213-1.041l-17.585,62.148c0,0,0.038,0.461,0.108,1.313H558.518z"/>
      <path style="fill:#313131;" d="M522.052,432.223c7.603-32.435,14.406-62.041,14.406-62.041l-78.041-0.64 c0,0-2.911,27.77-4.726,62.681H522.052z"/>
      <path style="fill:#FEC4AD;" d="M493.021,154.857c0,0-4.314,29.444-5.226,31.27c-2.021,4.049-14.422,16.38-14.422,16.38 s37.953,17.829,49.317,17.829c11.365,0,7.381-22.796,7.381-22.796s-8.012-4.494-9.603-7.676 c-2.362-4.724-6.024-26.162-6.024-26.162L493.021,154.857z"/>
      <path style="fill:#F7A281;" d="M518.887,189.966c-4.634-0.893-9.213-2.066-13.676-3.6c-0.807-0.27-1.604-0.567-2.399-0.869 c-1.824-0.874-3.62-1.785-5.37-2.803c-0.646-0.376-4.014-2.663-4.23-2.668c-1.131-0.973-2.228-1.985-3.3-3.018 c-0.091-0.088-0.192-0.161-0.284-0.248c1.535-9.233,3.391-21.903,3.391-21.903l21.423,8.845c0,0,3.662,21.438,6.024,26.162 c0.065,0.13,0.157,0.266,0.243,0.401C519.925,190.141,519.184,190.023,518.887,189.966z"/>
      <g>
        <path style="fill:#CFCFCF;" d="M587.644,263.193l13.534-12.329l11.854,13.214l-11.427,10.907 C601.604,274.985,592.917,267.778,587.644,263.193z"/>
        <path style="fill:#454545;" d="M593.494,251.378c-2.022,1.947-6.465,6.734-8.114,8.384l-30.951-47.176 c0,0-6.368-2.75-12.092,6.193c-6.561,10.25,1.819,42.586,1.819,42.586s8.415,10.658,20.912,21.652 c0.828,0.729,14.216,13.071,22.795,6.122c5.164-4.183,15.785-13.248,20.385-18.175 C603.325,264.805,596.49,258.58,593.494,251.378z"/>
      </g>
      <path style="fill:#FFFFFF;" d="M512.636,374.965c13.228-0.551,28.612-1.329,41.387-4.621 c-0.208-40.484-1.727-112.886-2.908-121.524c-1.838-13.445-3.325-31.814-3.325-31.814l-15.829-20.204l-14.72,12.604 l-37.997-16.693l-16.554,15.471c13.581,53.819-1.404,107.964,0,163.327C471.456,372.444,477.053,376.446,512.636,374.965z"/>
      <path style="fill:#348EC9;" d="M520.071,220.225c0,0,10.24,80.252,10.24,90.161c0,4.445-10.371,16.093-10.371,16.093 s-10.159-12.076-10.644-16.093c-0.484-4.016,3.995-89.715,3.995-89.715L520.071,220.225z"/>
      <polygon style="fill:#348EC9;" points="526.176,208.16 520.071,220.225 513.291,220.709 503.121,205.213 517.968,204.607 &#9;&#9;"/>
      <g>
        <path style="fill:#454545;" d="M529.549,196.801c0,0,9.563,33.791,2.779,68.963c-1.934,10.03-1.401,43.662-1.401,43.662 s-1.182,49.881,1.034,57.092c2.215,7.211,1.172,15.071,15.243,14.958c13.351-0.107,16.354-7.238,16.354-7.238 s-4.654-59.329-5.272-78.035c-0.619-18.705,0.194-77.542-3.857-83.618C551.251,207.819,529.549,196.801,529.549,196.801z"/>
        <path style="fill:#313131;" d="M526.693,195.105c0,0,3.737,9.903,3.737,14.783c0,4.88,1.308,29.933,1.219,47.719 c-0.043,8.568-0.708,34.356-0.708,34.356s10.463-40.981,11.567-46.659c1.371-7.049,1.269-11.216,0.262-14.038 c-1.06-2.969-6.572-8.347-6.572-8.347s2.662-9.482,3.549-12.144c0.887-2.662-2.277-5.644-4.636-9.101 C533.209,198.887,526.693,195.105,526.693,195.105z"/>
        <g>
          <path style="fill:#454545;" d="M479.244,192.712c0,0,17.95,34.406,20.082,44.713c6.159,29.769,8.768,53.714,8.768,53.714 s6.937,66.106,3.665,78.216c-3.594,13.298-8.154,15.365-24.875,15.674c-17.781,0.328-34.878-7.837-34.878-7.837 s0-45.463,0-66.083c0-20.62-7.417-95.415-7.417-95.415L479.244,192.712z"/>
        </g>
        <path style="fill:#313131;" d="M479.053,192.546c0,0,17.551,23.231,20.607,30.95c3.056,7.719,7.5,28.146,8.433,67.643 c0,0-6.006-21.951-10.232-31.059c-6.056-13.051-10.367-19.732-9.953-21.802c0.594-2.972,4.543-5.905,5.561-9.281 c0,0-6.312-0.998-9.69-5.018c-3.378-4.02-8.626-18.728-9.148-23.432C474.108,195.843,479.053,192.546,479.053,192.546z"/>
        <rect x="469.305" y="331.296" transform="matrix(-1 -1.224647e-16 1.224647e-16 -1 964.1864 666.8138)" style="fill:#313131;" width="25.575" height="4.223"/>
        <rect x="537.672" y="331.296" transform="matrix(-1 -1.224647e-16 1.224647e-16 -1 1094.7606 666.8138)" style="fill:#313131;" width="19.416" height="4.223"/>
      </g>
      <polygon style="fill:#FFFFFF;" points="485.431,188.769 517.968,204.607 502.149,217.804 479.244,192.712 &#9;&#9;"/>
      <polygon style="fill:#FFFFFF;" points="517.968,204.607 528.564,214.898 530.311,196.679 523.703,192.899 &#9;&#9;"/>
      <line style="fill:none;stroke:#313131;stroke-width:0.7087;stroke-miterlimit:10;" x1="557.865" y1="285.677" x2="555.295" y2="233.014"/>
      <g>
        <path style="fill:#FEC4AD;" d="M565.067,241.842c0,0,0.519-4.39,3.816-7.225c3.298-2.835,8.435-7.049,11.859-9.684 c3.425-2.636,9.54-7.165,11.742-7.13c2.202,0.036,3.425,16.914,3.425,16.914l-9.247,8.816c0,0-13.025,2.107-15.948,4.333 s-4.966,3.511-4.966,3.511L565.067,241.842z"/>
        <path style="fill:#A7AFCC;" d="M593.831,241.353L593.831,241.353c-0.693,0.298-1.497-0.023-1.794-0.717l-15.139-35.28 c-0.298-0.693,0.023-1.497,0.717-1.794l0,0c0.693-0.298,1.497,0.023,1.794,0.717l15.139,35.28 C594.845,240.252,594.524,241.055,593.831,241.353z"/>
        <path style="fill:#FFFFFF;" d="M563.802,257.175c5.151-4.141,8.466-6.829,8.466-6.829l-2.977-18.8c0,0-4.493,2.86-11.426,7.105 C559.383,244.996,561.333,251.217,563.802,257.175z"/>
        <path style="fill:#454545;" d="M560.353,235.372c-8.66,5.639-18.692,11.73-29.023,17.057c-13.5,6.96-22.884,11.201-22.884,11.201 s-38.363-44.158-48.793-48.732c-7.963-3.492-12.056-2.095-15.064,0.796c-6.255,6.01-4.381,21.132,1.31,30.822 c6.397,10.894,22.138,28.161,32.758,36.903c16.725,13.767,24.16,20.42,31.217,16.7c20.413-10.76,42.885-27.76,59.009-40.905 C565.566,251.484,562.852,243.456,560.353,235.372z"/>
        <path style="fill:none;stroke:#313131;stroke-width:0.7087;stroke-miterlimit:10;" d="M557.984,236.551 c-15.879,10.227-32.026,20.502-49.64,26.373c-1.468,0-2.936-1.468-2.936-1.468c-13.211-19.082-27.89-33.761-45.754-46.559"/>
        <path style="fill:none;stroke:#313131;stroke-width:0.7087;stroke-miterlimit:10;" d="M445.899,246.516 c6.397,10.894,22.138,28.161,32.758,36.903c16.725,13.767,24.16,20.42,31.217,16.7c26.718-14.084,57.008-38.886,71.905-51.698"/>
        <g>
          <path id="XMLID_24_" style="fill:#A7AFCC;" d="M564.042,273.818l21.681,8.64c3.758,1.475,8.441-0.075,10.476-3.453 l36.291-62.237c2.017-3.349,0.653-7.263-3.062-8.752l-21.335-8.755c-6.73-1.331-10.253-0.339-12.329,3.096l-36.318,61.635 C557.351,267.457,557.762,270.069,564.042,273.818z"/>
          <path id="XMLID_23_" style="fill:#C0C9EB;" d="M566.089,274.812l21.856,8.729c3.781,1.486,8.487-0.063,10.528-3.453 l36.467-62.572c2.023-3.359,0.644-7.288-3.096-8.783l-21.527-8.808c-3.92-1.567-8.808-0.039-10.899,3.421l-36.697,62.32 C560.612,269.157,562.128,273.255,566.089,274.812z"/>
        </g>
        <g>
          <path style="fill:#FEC4AD;" d="M619.174,247.022c-2.293-0.322-6.815-0.828-7.956-0.224c-2.312,1.224-2.059,3.684,0.417,4.845 c2.754,1.292,5.884,1.677,7.872,0.679C621.496,251.323,621.437,247.34,619.174,247.022z"/>
          <path style="fill:#FEC4AD;" d="M617.371,252.564c-2.468-0.372-8.611-0.947-9.76-0.153c-1.636,1.13-0.915,3.423,1.766,4.643 c2.982,1.357,6.35,1.811,8.463,0.848C619.954,256.94,619.807,252.932,617.371,252.564z"/>
          <path style="fill:#FEC4AD;" d="M615.724,257.65c-1.971-0.603-6.913-1.831-7.926-1.358c-1.443,0.674-1.083,2.556,0.977,3.848 c2.292,1.438,4.987,2.219,6.802,1.736C617.393,261.393,617.669,258.246,615.724,257.65z"/>
          <path style="fill:#FEC4AD;" d="M613.874,261.198c-1.53-0.413-5.387-1.179-6.235-0.653c-1.208,0.749-1.068,2.491,0.479,3.545 c1.721,1.173,3.815,1.696,5.306,1.098C614.914,264.59,615.383,261.605,613.874,261.198z"/>
        </g>
      </g>
      <path style="fill:#313131;" d="M527.355,125.879c5.069,4.365,6.253,11.428,5.293,16.171c-0.96,4.742-4.433,15.305-4.433,15.305 s-3.719-16.2-6.19-21.927c-2.471-5.727-6.55-13.26-6.55-13.26L527.355,125.879z"/>
      <path style="fill:#FEC4AD;" d="M520.359,125.232c3.217,1.802,8.751,5.634,9.047,8.55c0.297,2.915,1.635,11.441,1.301,16.458 c-0.333,5.017,0.628,14.792-0.138,20.655c-0.766,5.862-1.135,11.898-8.964,15.443c-7.231,3.274-15.407-1.375-21.167-5.279 c-6.701-4.542-9.188-8.546-8.808-21.079c0,0-4.371-23.028-3.138-26.493c2.994-8.421,20.385-4.849,25.355-5.593 C518.818,127.147,520.359,125.232,520.359,125.232z"/>
      <path style="fill:#313131;" d="M490.354,132.94c-1.668,2.733,3.789,6.112,4.222,8.609c0.866,4.995-0.418,10.823-0.418,10.823 l-1.864,4.784c0,0,0.225,8.647-1.606,13.694c-0.997,2.746-17.607-16.779-12.713-37.735c2.118-9.07,10.35-6.385,10.35-6.385 c1.366-9.278,5.541-13.058,23.667-12.631c18.127,0.427,21.273,15.087,21.273,15.087c-3.046,1.985-1.295,7.704-10.796,8.301 c-17.417,1.093-20.059-6.318-26.95-7.514C494.052,129.717,492.022,130.208,490.354,132.94z"/>
      <path style="fill:#FEC4AD;" d="M494.035,158.85c0,0-1.443-4.071-4.07-6.676c-2.217-2.199-5.548-2.248-6.401,1.239 c-1.039,4.246,2.759,6.95,2.973,9.441c0.24,2.796,3.792,5.829,5.639,4.908L494.035,158.85z"/>
      <path style="opacity:0.52;fill:#965545;" d="M487.965,154.519c-1.604-0.991-2.796,0.358-3.048,1.832 c-0.253,1.474,0.183,0.602,1.191-0.363c1.009-0.965,2.46,1.031,2.524,2.424c0.089,1.922,1.095,4.201,2.768,4.102 c1.673-0.098,0.734-0.552,0.23-2.536c-0.504-1.984,0.092-0.028-0.687-1.928C490.165,156.151,489.345,155.372,487.965,154.519z"/>
      <path style="fill:#313131;" d="M530.685,156.195c0,0,0.167,6.317-0.834,10.71c-0.501,2.197-0.751,5.701-1.52,6.43 c-0.769,0.728-3.512-3.396-5.331-5.223c0,0,0.005,0.008,0.005,0.009c-0.282-0.294-0.575-0.559-0.877-0.761 c-1.907-1.278-6.534-2.317-10.478,0.109c-4.696,2.888-6.079,7.908-9.559,6.903c-3.037-0.877-4.308-2.189-5.978-8.107 c-1.354-4.8-1.956-13.892-1.956-13.892l-1.992,1.236c0,0-1.243,10.019-0.428,15.679c0.677,4.702,0.375,10.493,8.616,15.028 c7.059,3.885,10.689,5.711,15.187,4.64c-0.011,0.006-0.03,0.016-0.03,0.016c12.724-1.147,15.103-9.538,15.364-15.879 C531.134,166.753,530.685,156.195,530.685,156.195z M508.195,177.958c0.268-1.19,1.492-4.993,4.626-7.04 c2.721-1.777,5.939-1.95,8.6-0.957c2.513,0.938,5.025,6.803,2.649,8.574c-3.139,2.34-3.255-0.573-6.375,0.353 C510.771,180.942,507.927,179.148,508.195,177.958z"/>
    </g>
    <g>
      <g>
        <polygon style="fill:#AD6454;" points="133.811,407.67 135.613,400.577 115.261,391.82 111.351,398.006 &#9;&#9;&#9;"/>
        <polygon style="fill:#AD6454;" points="152.183,364.972 148.087,371.587 127.735,362.83 129.723,355.308 &#9;&#9;&#9;"/>
        <path style="fill:#AD6454;" d="M226.002,421.507l0.069-0.161c1.38-3.207-0.596-6.892-4.042-7.453 c-0.065-0.01-0.129-0.021-0.194-0.031c-4.131-0.652-8.154-1.869-11.925-3.679c-7.488-3.595-14.633-7.17-23.377-10.774 c-10.09-4.159-43.656-17.695-43.656-17.695l-2.854,6.634c0,0,32.908,15.067,42.865,19.533c8.629,3.871,16.137,6.601,23.896,9.566 c3.906,1.493,7.556,3.578,10.87,6.129c0.052,0.04,0.104,0.08,0.156,0.119C220.588,425.813,224.622,424.714,226.002,421.507z"/>
        <path style="fill:#FFD17A;" d="M178.492,396.124c-1.143,2.738-2.421,5.417-3.711,8.09c1.441,0.655,2.805,1.273,4.031,1.829 c1.096-2.822,2.269-5.609,3.556-8.34C181.184,397.219,179.874,396.686,178.492,396.124z"/>
        <path style="fill:#FFD17A;" d="M208.074,409.298c-6.769-3.266-13.393-6.518-21.317-9.795c-1.317,2.777-2.508,5.615-3.621,8.487 c7.74,3.461,14.589,6.015,21.536,8.654C205.774,414.181,206.913,411.734,208.074,409.298z"/>
        <path style="fill:#C38469;" d="M154.518,365.977L154.518,365.977c-0.569,1.323-2.103,1.933-3.425,1.364l-22.342-9.613 c-1.322-0.569-1.933-2.102-1.364-3.425l0,0c0.569-1.323,2.102-1.933,3.425-1.364l22.342,9.613 C154.477,363.121,155.087,364.654,154.518,365.977z"/>
        <path style="fill:#C38469;" d="M150.284,373.526l-11.832,27.5c-0.476,1.106-1.759,1.617-2.866,1.141l-21.461-9.234 c-1.107-0.476-1.618-1.759-1.142-2.866l11.832-27.499c0.476-1.107,1.759-1.618,2.866-1.142l21.461,9.234 C150.249,371.137,150.76,372.42,150.284,373.526z"/>
        <rect x="133.337" y="358.177" transform="matrix(0.3952 -0.9186 0.9186 0.3952 -259.6016 349.7668)" style="fill:#FFD17A;" width="4.99" height="27.725"/>
        <path style="fill:#C38469;" d="M210.164,407.438L210.164,407.438c1.079,0.464,1.577,1.715,1.113,2.793l-3.517,8.175 c-0.464,1.079-1.715,1.577-2.793,1.113l0,0c-1.534-0.66-2.242-2.439-1.582-3.973l2.808-6.526 C206.851,407.487,208.63,406.778,210.164,407.438z"/>
        <rect x="124.817" y="377.293" transform="matrix(0.3952 -0.9186 0.9186 0.3952 -282.1352 353.7686)" style="fill:#FFD17A;" width="5.58" height="27.725"/>
        <path style="fill:#C38469;" d="M135.897,409.254L135.897,409.254c0.569-1.323-0.042-2.856-1.364-3.425l-22.342-9.613 c-1.323-0.569-2.856,0.042-3.425,1.364l0,0c-0.569,1.323,0.042,2.856,1.364,3.425l22.342,9.613 C133.794,411.188,135.328,410.577,135.897,409.254z"/>
      </g>
      <g>
        <path style="fill:#C38469;" d="M141.463,410.856h-36.325c-1.449,0-2.624,1.175-2.624,2.624v4.366h41.573v-4.366 C144.087,412.031,142.912,410.856,141.463,410.856z"/>
        <path style="fill:#AD6454;" d="M145.234,414.352h-43.867c-2.265,0-4.101,1.836-4.101,4.101v5.736h52.068v-5.736 C149.335,416.188,147.499,414.352,145.234,414.352z"/>
      </g>
    </g>
    <g>
      <rect x="67.537" y="435.477" style="fill:#8F5345;" width="614.925" height="64.523"/>
      <g>
        <polygon style="fill:#C38469;" points="645.204,500 641.759,500 641.759,469.155 108.242,469.155 108.242,500 104.796,500 &#10;&#9;&#9;&#9;&#9;104.796,466.321 645.204,466.321 &#9;&#9;&#9;"/>
      </g>
      <g>
        <rect x="61.78" y="423.076" style="fill:#AD6454;" width="626.44" height="22.304"/>
        <rect x="46.99" y="423.076" style="fill:#C38469;" width="656.02" height="14.807"/>
      </g>
    </g>
    <g>
      <polyline style="fill:none;stroke:#FDAC00;stroke-width:0.7087;stroke-miterlimit:10;" points="667.445,380.164 651.87,332.287 &#10;&#9;&#9;&#9;637.229,380.164 &#9;&#9;"/>
      <line style="fill:none;stroke:#FDAC00;stroke-width:0.7087;stroke-miterlimit:10;" x1="651.87" y1="326.808" x2="651.87" y2="381.121"/>
      <g>
        <path style="fill:#FDAC00;" d="M663.036,385.183c-3.343,0-18.056,0-21.399,0c-2.436,0-4.409-1.975-4.409-4.412v-0.608h30.216 c0,0,0,0.236,0,0.607C667.446,383.207,665.473,385.183,663.036,385.183z"/>
        <path style="fill:#C38469;" d="M608.867,321.213l6.788-1.905c7.605-2.134,15.641-2.202,23.282-0.199l13.84,3.63 c0,0-0.191-2.755,2.121-2.383c2.159,0.348,2.118,4.006-1.962,3.663l-13.849-2.441c-7.738-1.364-15.699-0.652-23.073,2.063 l-6.969,2.567L608.867,321.213z"/>
        <path style="fill:#FDAC00;" d="M651.87,326.808L651.87,326.808c-0.354,0-0.642-0.287-0.642-0.642v-3.618 c0-0.354,0.287-0.642,0.642-0.642l0,0c0.355,0,0.642,0.288,0.642,0.642v3.618C652.512,326.52,652.224,326.808,651.87,326.808z"/>
        <path style="fill:#FDCB56;" d="M667.997,382.078H636.8c-0.529,0-0.957-0.428-0.957-0.957v-0.957h33.111v0.957 C668.954,381.65,668.525,382.078,667.997,382.078z"/>
      </g>
      <polyline style="fill:none;stroke:#FDAC00;stroke-width:0.7087;stroke-miterlimit:10;" points="551.799,380.164 567.374,332.287 &#10;&#9;&#9;&#9;582.015,380.164 &#9;&#9;"/>
      <line style="fill:none;stroke:#FDAC00;stroke-width:0.7087;stroke-miterlimit:10;" x1="567.374" y1="326.808" x2="567.374" y2="381.121"/>
      <g>
        <path style="fill:#FDAC00;" d="M556.207,385.183c3.343,0,18.056,0,21.399,0c2.436,0,4.409-1.975,4.409-4.412v-0.608h-30.216 c0,0,0,0.236,0,0.607C551.798,383.207,553.771,385.183,556.207,385.183z"/>
        <path style="fill:#C38469;" d="M610.376,321.213l-9.25-2.273c-7.498-1.842-15.348-1.699-22.774,0.415l-11.886,3.384 c0,0,0.191-2.755-2.121-2.383c-2.159,0.348-2.118,4.006,1.962,3.663l11.482-2.326c7.539-1.527,15.346-1.072,22.656,1.322 l9.753,3.194L610.376,321.213z"/>
        <path style="fill:#FDAC00;" d="M567.374,326.808L567.374,326.808c0.355,0,0.642-0.287,0.642-0.642v-3.618 c0-0.354-0.287-0.642-0.642-0.642l0,0c-0.355,0-0.642,0.288-0.642,0.642v3.618C566.732,326.52,567.019,326.808,567.374,326.808z"/>
        <path style="fill:#FDCB56;" d="M551.247,382.078h31.196c0.529,0,0.957-0.428,0.957-0.957v-0.957H550.29v0.957 C550.29,381.65,550.718,382.078,551.247,382.078z"/>
      </g>
      <polygon style="fill:#C38469;" points="611.451,305.695 607.457,305.695 607.485,320.074 606.403,389.36 612.505,389.36 &#10;&#9;&#9;&#9;611.423,320.074 &#9;&#9;"/>
      <path style="fill:#AD6454;" d="M605.108,323.137c0,2.712,1.946,4.91,4.346,4.91c2.4,0,4.346-2.198,4.346-4.91 c0-2.712-1.946-4.91-4.346-4.91C607.053,318.227,605.108,320.426,605.108,323.137z"/>
      <path style="fill:#AD6454;" d="M603.807,417.599H615.1v-28.085c0-1.336-1.083-2.419-2.419-2.419h-6.455 c-1.336,0-2.419,1.083-2.419,2.419V417.599z"/>
      <path style="fill:#C38469;" d="M599.031,418.741h20.846v-1.077c0-0.668-0.541-1.209-1.209-1.209H600.24 c-0.668,0-1.209,0.541-1.209,1.209V418.741z"/>
      <path style="fill:#AD6454;" d="M590.244,423.281h38.42v-2.177c0-1.305-1.058-2.362-2.362-2.362h-33.695 c-1.305,0-2.362,1.058-2.362,2.362V423.281z"/>
      <path style="fill:#AD6454;" d="M609.454,309.204c1.326,0,2.458-0.943,2.713-2.244c0.159-0.809,0.25-1.678,0.142-2.406 c-0.022-0.147-0.058-0.303-0.104-0.465c-0.328-1.148-1.431-1.904-2.625-1.904h-0.252c-1.194,0-2.297,0.756-2.625,1.904 c-0.046,0.162-0.082,0.317-0.104,0.465c-0.108,0.726-0.017,1.596,0.142,2.405C606.996,308.261,608.128,309.204,609.454,309.204 L609.454,309.204z"/>
    </g>
  </g>
</svg>