<svg xmlns="http://www.w3.org/2000/svg" viewBox="0 0 46.68 49.74"><defs><style>.cls-1{fill:#c41731;}.cls-2{fill:#de0833;}</style></defs><title>Recurso 7</title><g id="Capa_2" data-name="Capa 2"><g id="Capa_1-2" data-name="Capa 1"><path class="cls-1" d="M45,7.32C38.81,5.14,31.26,2.06,24.63.14A5.9,5.9,0,0,0,23.55,0l-.22,4.93S33.52,27.84,38,37.9c-3.86.3-5.3.43-5.3.43l-3-7.38H23.77c-.24,10.1-.14,18.77-.14,18.77a3.65,3.65,0,0,0,1.13-.3c5.29-2.85,11.57-6.33,16.64-9.3a4.64,4.64,0,0,0,2.05-3c1.17-9,2.12-18.05,3.19-27.08A2.15,2.15,0,0,0,45,7.32Z"/><path class="cls-2" d="M17,30.94l-3,7.38s-1.44-.13-5.3-.43L23.35,5l0-.06L23.55,0A4.76,4.76,0,0,0,21.8.22C15.09,2.53,8.43,5,1.71,7.31A2.15,2.15,0,0,0,0,10c1.07,9,2,18.07,3.2,27.08a4.66,4.66,0,0,0,2,3c5.35,3.13,10.84,6,16.22,9.09a3.25,3.25,0,0,0,2.37.48c0-.51.2-9,.1-18.73Z"/><path class="cls-1" d="M27.35,26h-4V16.23C24.83,19.78,26,22.73,27.35,26Z"/><path class="cls-2" d="M23.37,16.23V26h-4Z"/></g></g></svg>