<svg xmlns="http://www.w3.org/2000/svg" viewBox="0 0 58.76 35.21"><defs><style>.cls-1{fill:#f4991b;}.cls-2{fill:#273140;}.cls-3{fill:#f59b21;}</style></defs><title>Recurso 2</title><g id="Capa_2" data-name="Capa 2"><g id="Capa_1-2" data-name="Capa 1"><path class="cls-1" d="M52.32,28.11a40.22,40.22,0,0,1-13.56,5.71c-2.11.51-7.67,1.39-8.33,1.39h-3a84.48,84.48,0,0,1-10.48-2A44.14,44.14,0,0,1,1.2,24.83C.7,24.41-.15,24.14,0,23.16c.86-.36,1.39.3,2,.61,15.81,8.09,32,9.15,48.73,3,.23-.08.44-.24.67-.3.6-.17,1.3-.69,1.74.14S52.85,27.75,52.32,28.11Z"/><path class="cls-2" d="M25.12,13.76c1-4.22,2-7.84,2.76-11.5C28.16,1,28.71.46,30,.43A1.89,1.89,0,0,1,32.2,2.17c.86,3.82,1.81,7.62,2.85,12,1.18-4.4,2.28-8.23,3.21-12.1a1.82,1.82,0,0,1,2-1.63C41.6.4,42.14.8,41.7,2.17Q39.42,9.3,37.22,16.43c-.4,1.29-1.31,1.48-2.49,1.45s-1.65-.65-1.9-1.78c-.78-3.51-1.7-7-2.57-10.5-.81.07-.72.73-.83,1.22-.7,2.94-1.36,5.89-2.08,8.83-.27,1.1-.46,2.21-2.1,2.24a2.32,2.32,0,0,1-2.6-2c-1.28-4.39-2.71-8.74-4-13.14-.2-.69-1.4-2,.47-2.25C20.37.31,21.6.27,22,2c.75,3.35,1.66,6.66,2.52,10C24.61,12.39,24.77,12.75,25.12,13.76Z"/><path class="cls-2" d="M17.24,15.87c-1.38-3-.62-6.14-.79-9.22C16.3,4.19,16,1.76,13.33.75A11.42,11.42,0,0,0,4,1.37a1.55,1.55,0,0,0-.56,2c.32,1,1.14.43,1.65.26a12,12,0,0,1,4.34-.83c2.72.13,3.83,1.43,3.69,4.13-.05,1-.26,1.16-1.29.95a10.58,10.58,0,0,0-6.32.3,5.26,5.26,0,0,0-3.21,6,4.84,4.84,0,0,0,4.9,4,7.38,7.38,0,0,0,6.06-2.46c.48.65.83,1.11,1.16,1.57a1,1,0,0,0,1.67.21C16.62,17.05,17.67,16.8,17.24,15.87Zm-8.8-.3a2.49,2.49,0,0,1-2.73-2.78c0-2,1.42-2.85,4.55-2.81,1.59,0,2.87.43,2.87,1.63C13.13,14,11.13,15.63,8.44,15.57Z"/><path class="cls-2" d="M50.12,0a12.17,12.17,0,0,1,4.23.91,1.7,1.7,0,0,1,.73,2.34c-.4.93-1.14.13-1.68,0A9.09,9.09,0,0,0,49,2.79c-1.09.17-2.12.59-2.24,1.91a2.13,2.13,0,0,0,1.64,2.2c1.29.51,2.65.85,4,1.32,2.27.81,3.89,2.15,3.8,4.8A5.41,5.41,0,0,1,51.78,18a12.31,12.31,0,0,1-7-.47c-1.25-.4-1.82-1.28-1.4-2.43.48-1.3,1.36-.23,2-.06a11.47,11.47,0,0,0,5.13.43c1.18-.22,2.23-.71,2.31-2.16S52,11.4,50.94,11s-2-.66-3-1c-3.08-1-4.74-3-4.47-5.38S45.87.41,49.05.09Z"/><path class="cls-3" d="M53.77,32.73c.77-2.35,1.39-4,1.86-5.73.53-1.89-.13-3-2.26-3-1.8.07-3.6.2-5.62.31.74-1.75,2.28-2,3.6-2.21,2.32-.42,5.28-1.3,6.79.61S58,27.26,57,29.39A6.65,6.65,0,0,1,53.77,32.73Z"/></g></g></svg>