<?xml version="1.0" standalone="no"?>
<!DOCTYPE svg PUBLIC "-//W3C//DTD SVG 1.1//EN" "http://www.w3.org/Graphics/SVG/1.1/DTD/svg11.dtd">
<svg xmlns="http://www.w3.org/2000/svg" viewBox="0 0 300.75 50" width="300.75" height="107">
    <defs>
        <style>.cls-1{fill:#484648;}.cls-2{fill:#ea5a22;}</style>
    </defs>
    <g id="Layer_2" data-name="Layer 2">
        <g id="Capa_1" data-name="Capa 1">
            <g id="Grupo_3289" data-name="Grupo 3289">
                <path id="Trazado_7832" data-name="Trazado 7832" class="cls-1" d="M168.06,35.24c-2.23,0-4.35,0-6.48,0-.33,0-.74-.47-.94-.82q-6.21-10.61-12.36-21.24c-.16-.28-.34-.55-.66-1.09V35.18H141.4V.6c2.81,0,5.56,0,8.31,0,.28,0,.64.4.8.71q5.36,9.2,10.67,18.43c.17.3.37.6.68,1.08V.65h6.19Z"/>
                <path id="Trazado_7833" data-name="Trazado 7833" class="cls-1" d="M175.19.58c2.8,0,5.48,0,8.17,0,.31,0,.72.4.9.72q5.34,9.15,10.62,18.33c.19.34.39.66.72,1.18V.65h6.15v34.6c-1.11,0-2.22,0-3.33,0a8.11,8.11,0,0,1-3.5-.22c-.88-.5-1.27-1.88-1.85-2.88q-5.52-9.49-11-19a2.15,2.15,0,0,0-.78-.83c.06.8.15,1.61.16,2.41q0,9.86,0,19.71c0,.27-.35.77-.54.78-1.86.06-3.71,0-5.66,0Z"/>
                <path id="Trazado_7834" data-name="Trazado 7834" class="cls-1" d="M77,35.16V.68A1.37,1.37,0,0,1,77.34.6C82,.65,86.58.53,91.18.81a15.13,15.13,0,0,1,13.93,13A20.54,20.54,0,0,1,103.32,27a14.45,14.45,0,0,1-12.88,8.16c-4.32.16-8.64,0-13,.05A4.17,4.17,0,0,1,77,35.16ZM85.11,6.83a1.84,1.84,0,0,0-.15.43l0,20.91c0,.56.28.66.75.66,1,0,1.93,0,2.9,0a7.46,7.46,0,0,0,7-4.34,14.34,14.34,0,0,0-.32-13.91,6.35,6.35,0,0,0-4.66-3.4c-1.78-.27-3.62-.23-5.43-.33Z"/>
                <path id="Trazado_7835" data-name="Trazado 7835" class="cls-1" d="M235.82,11.94l-7.56,1c-.24-.86-.42-1.63-.69-2.37a5.28,5.28,0,0,0-4.69-3.87,5.53,5.53,0,0,0-5.79,3,15.84,15.84,0,0,0-1.64,7.1A18.54,18.54,0,0,0,216.57,25a6.17,6.17,0,0,0,7.81,3.9h0l.54-.21a5.18,5.18,0,0,0,3.18-5.46h-6.44V16.82h14.16V35.23c-1.1,0-2.23,0-3.33,0-.18,0-.4-.45-.48-.73-.32-1-.58-2-.91-3.13-.37.35-.64.58-.87.84-4.85,5.47-15.23,4.7-19.53-1.49a19,19,0,0,1-3.34-9.14,26,26,0,0,1,1.35-12.15A13.86,13.86,0,0,1,223,.05,12.93,12.93,0,0,1,235.82,11.94Z"/>
                <path id="Trazado_7836" data-name="Trazado 7836" class="cls-1" d="M240.72,18.49a22,22,0,0,1,2.84-11.84C246.62,1.57,251.28-.26,257,.09a12.48,12.48,0,0,1,11.23,8.08,22.32,22.32,0,0,1-1.29,21.94,11.89,11.89,0,0,1-10.11,5.63,19.62,19.62,0,0,1-5.51-.48c-4.59-1.15-7.2-4.5-9-8.64A21.41,21.41,0,0,1,240.72,18.49Zm8.55-.61c0,.83-.06,1.66,0,2.48a13.23,13.23,0,0,0,1.85,6.52,5.17,5.17,0,0,0,5.45,2.26,5.55,5.55,0,0,0,4.46-4.43,25.64,25.64,0,0,0,.72-9.75,13.29,13.29,0,0,0-1.46-5.52,4.92,4.92,0,0,0-4-2.75,5.29,5.29,0,0,0-6,4,34.46,34.46,0,0,0-1,7.22Z"/>
                <path id="Trazado_7837" data-name="Trazado 7837" class="cls-1" d="M272.42,26.19l7.22-1.63c.09.09.15.13.17.19A7.63,7.63,0,0,0,289.7,29h0l.4-.17a5,5,0,0,0,1.65-1.24,2.75,2.75,0,0,0-.09-3.89h0a2.69,2.69,0,0,0-.71-.5,42.26,42.26,0,0,0-4.9-1.56c-2.21-.7-4.48-1.24-6.61-2.13-4.17-1.77-5.74-5-5.26-9.6a10.78,10.78,0,0,1,10-9.73,18.32,18.32,0,0,1,9.57,1.2,11.17,11.17,0,0,1,6,6.78l-6.85,2.3A5.37,5.37,0,0,0,289,6.67a14.49,14.49,0,0,0-4.41,0A2.75,2.75,0,0,0,282,9.32a2.86,2.86,0,0,0,2.15,3c1.79.58,3.66.94,5.48,1.42,1.35.35,2.71.68,4,1.14a10.15,10.15,0,0,1,4,16.94,13.2,13.2,0,0,1-8.81,3.89A18.52,18.52,0,0,1,278.12,34a11.36,11.36,0,0,1-5.59-6.83,3.9,3.9,0,0,1-.13-.57A1.45,1.45,0,0,1,272.42,26.19Z"/>
                <path id="Trazado_7838" data-name="Trazado 7838" class="cls-1" d="M137.49,35.24c-2.86,0-5.58,0-8.3,0-.22,0-.55-.42-.63-.7-.58-1.84-1.13-3.68-1.63-5.53a1,1,0,0,0-1-.84h-.07q-4.83,0-9.67,0a.92.92,0,0,0-1,.77h0c-.53,1.82-1.13,3.61-1.61,5.43a1.06,1.06,0,0,1-1.18.91h-.07c-2,0-4,0-6.12,0,.59-1.87,1.13-3.62,1.69-5.37Q112.4,15.63,117,1.41c.1-.33.49-.79.76-.79,3-.06,5.9,0,8.91,0C130.25,12.12,133.85,23.61,137.49,35.24ZM121.16,9.85l-.23,0-3.57,11.8h7.38L121.16,9.85Z"/>
            </g>
            <g id="Grupo_3669" data-name="Grupo 3669">
                <g id="Grupo_3288" data-name="Grupo 3288">
                    <path id="Trazado_7843" data-name="Trazado 7843" class="cls-1" d="M134.6,72.22h-2.51V53.53l-.26-.08c-.13.29-.28.58-.4.88-2.12,5.68-4.25,11.35-6.33,17a1.23,1.23,0,0,1-1.36.93c-.79,0-1-.36-1.23-1q-3.17-8.48-6.35-16.93l-.37-1-.26.05V72.22h-2.16V50.1c1.23,0,2.45-.05,3.66,0,.24,0,.52.53.64.87q3,7.85,5.94,15.7c.11.29.24.57.46,1.12l.66-1.78c1.85-5,3.72-10,5.53-15a1.21,1.21,0,0,1,1.41-1h0c1,.07,1.9,0,2.89,0Z"/>
                    <path id="Trazado_7844" data-name="Trazado 7844" class="cls-1" d="M199.55,62.07l4.31,10.2a19.22,19.22,0,0,1-2.4,0,1.26,1.26,0,0,1-.77-.71c-1.17-2.66-2.32-5.34-3.43-8a1.13,1.13,0,0,0-1.25-.84c-1.82.06-3.63,0-5.53,0V72.2H188v-22a1.35,1.35,0,0,1,.34-.11c3.25,0,6.51-.06,9.75.13a5.88,5.88,0,0,1,5.49,5,5.79,5.79,0,0,1-3.63,6.58A2.88,2.88,0,0,0,199.55,62.07Zm-9.06-1.67c2.16,0,4.25,0,6.32,0a3.93,3.93,0,0,0,4.06-3.8h0v-.29a3.65,3.65,0,0,0-3.48-3.81h0a4.87,4.87,0,0,0-.54,0c-1.85,0-3.71,0-5.57,0a6.93,6.93,0,0,0-.78.1Z"/>
                    <path id="Trazado_7845" data-name="Trazado 7845" class="cls-1" d="M93.45,55.06,91,55.81A4.71,4.71,0,0,0,88,52.43a6.05,6.05,0,0,0-5.64.25,3.11,3.11,0,0,0-1.67,3,2.67,2.67,0,0,0,1.84,2.6c1.77.63,3.62,1.05,5.44,1.56.74.18,1.47.39,2.18.64a5.54,5.54,0,0,1,3.94,4.69,6.18,6.18,0,0,1-2.91,6.31,9.83,9.83,0,0,1-13.5-3.33h0A10.23,10.23,0,0,1,77.15,67a5.5,5.5,0,0,1-.16-.58l2.24-.53c.13.1.2.12.22.17,1.55,4,5.14,4.84,8.75,4.06a3.77,3.77,0,0,0,3.08-4.36,2,2,0,0,0-.08-.35,4.13,4.13,0,0,0-3.34-2.66c-2-.57-4-1-6-1.63a5.12,5.12,0,0,1-3.55-3.73,5.63,5.63,0,0,1,3.47-7,9.7,9.7,0,0,1,7.93.16A7.41,7.41,0,0,1,93.45,55.06Z"/>
                    <path id="Trazado_7847" data-name="Trazado 7847" class="cls-1" d="M170,72.22c-2.7.19-2.7.19-3.54-2.21-.4-1.16-.82-2.31-1.18-3.48a1,1,0,0,0-1.07-.78c-2.23,0-4.45,0-6.68,0a.92.92,0,0,0-1,.76h0v0c-.55,1.9-1.16,3.8-1.74,5.7h-2.25c.45-1.45.88-2.83,1.33-4.2,1.83-5.63,3.68-11.26,5.48-16.91a1.26,1.26,0,0,1,1.42-1.07h0c2.07.06,2.06,0,2.69,2q3.13,9.63,6.26,19.27C169.85,71.57,169.93,71.85,170,72.22Zm-8.9-18.85-.25,0c-1.11,3.43-2.23,6.87-3.36,10.38h6.9Z"/>
                    <path id="Trazado_7849" data-name="Trazado 7849" class="cls-1" d="M220.6,52.51V50.16c.33,0,.65-.07,1-.07,4.48,0,9,0,13.44,0,1.1,0,1,.53,1.05,1.28s-.05,1.24-1,1.19c-1.71-.08-3.44,0-5.32,0V72.23H227c0-.4-.06-.79-.06-1.18,0-5.8,0-11.6,0-17.4,0-.93-.27-1.19-1.18-1.15C224.09,52.56,222.4,52.51,220.6,52.51Z"/>
                </g>
            </g>
            <path id="Intersección_21" data-name="Intersección 21" class="cls-2" d="M9.09,106.7c-.78-.71-7.12-7.24-7.8-8A3.58,3.58,0,0,1,0,96.41V50.77a3.6,3.6,0,0,1,1.29-2.31c.67-.74,7-7.26,7.8-8a1.21,1.21,0,0,1,1.71.17,1.22,1.22,0,0,1,.28.76v64.37A1.29,1.29,0,0,1,9.83,107,1.09,1.09,0,0,1,9.09,106.7Z"/>
            <path id="Intersección_22" data-name="Intersección 22" class="cls-1" d="M56.5,66.66c.79-.71,7.13-7.24,7.8-8a3.53,3.53,0,0,0,1.3-2.31V10.74a3.57,3.57,0,0,0-1.3-2.32c-.66-.73-7-7.26-7.8-8a1.21,1.21,0,0,0-1.7.17,1.19,1.19,0,0,0-.28.76V65.74A1.27,1.27,0,0,0,55.76,67,1.07,1.07,0,0,0,56.5,66.66Z"/>
            <path id="Intersección_20" data-name="Intersección 20" class="cls-1" d="M22.72,93.07c-.78-.71-7.12-7.24-7.8-8a3.55,3.55,0,0,1-1.29-2.31V37.15a3.55,3.55,0,0,1,1.3-2.32c.67-.74,7-7.26,7.8-8a1.21,1.21,0,0,1,2,.93V92.15a1.26,1.26,0,0,1-1.24,1.22A1.09,1.09,0,0,1,22.72,93.07Z"/>
            <path id="Intersección_13" data-name="Intersección 13" class="cls-2" d="M42.88,81.15c.78-.72,7.12-7.25,7.8-8A3.6,3.6,0,0,0,52,70.85V25.22a3.6,3.6,0,0,0-1.29-2.32c-.67-.73-7-7.26-7.8-8a1.23,1.23,0,0,0-2,.93V80.22a1.27,1.27,0,0,0,1.25,1.22A1.13,1.13,0,0,0,42.88,81.15Z"/>
            <path id="Intersección_16" data-name="Intersección 16" class="cls-1" d="M36.35,54.74c-.78-.71-7.12-7.24-7.8-8a3.6,3.6,0,0,1-1.29-2.31V25.22A1.22,1.22,0,0,1,28.49,24a1.16,1.16,0,0,1,.75.28c.79.71,7.13,7.24,7.8,8a3.53,3.53,0,0,1,1.3,2.31V53.82A1.28,1.28,0,0,1,37.09,55,1.07,1.07,0,0,1,36.35,54.74Z"/>
            <path id="Intersección_19" data-name="Intersección 19" class="cls-2" d="M36.35,80.29c-.78-.71-7.12-7.24-7.8-8A3.55,3.55,0,0,1,27.26,70V50.78a1.22,1.22,0,0,1,2-.93c.79.71,7.13,7.24,7.8,8a3.57,3.57,0,0,1,1.3,2.31V79.38a1.27,1.27,0,0,1-1.25,1.21A1.07,1.07,0,0,1,36.35,80.29Z"/>
        </g>
    </g>
</svg>