<?xml version="1.0" encoding="UTF-8"?>
<!-- Generator: Adobe Illustrator 27.9.0, SVG Export Plug-In . SVG Version: 6.00 Build 0)  -->
<svg xmlns="http://www.w3.org/2000/svg" xmlns:xlink="http://www.w3.org/1999/xlink" version="1.1" id="Capa_1" x="0px" y="0px" viewBox="0 0 620.3 144.2" style="enable-background:new 0 0 620.3 144.2;" xml:space="preserve">
<style type="text/css">
	.st0{fill:#004136;}
</style>
<g>
	<g>
		<g>
			<path class="st0" d="M200.8,22.9v3.2h-13.2v10.3h10.7v3.2h-10.7v13.7h-4V22.9H200.8z"></path>
			<path class="st0" d="M210.7,22.9v19.3c0,2.7,0.7,4.7,2,6c1.3,1.3,3.2,2,5.5,2c2.3,0,4.2-0.7,5.5-2c1.3-1.3,2-3.3,2-6V22.9h4v19.2     c0,2.5-0.5,4.7-1.5,6.4c-1,1.7-2.4,3-4.1,3.9c-1.7,0.8-3.7,1.3-5.8,1.3c-2.2,0-4.1-0.4-5.8-1.3c-1.7-0.8-3.1-2.1-4.1-3.9     c-1-1.7-1.5-3.9-1.5-6.4V22.9H210.7z"></path>
			<path class="st0" d="M262.1,53.4h-4l-16-24.2v24.2h-4V22.9h4l16,24.2V22.9h4V53.4z"></path>
			<path class="st0" d="M288.9,24.8c2.4,1.2,4.3,3,5.6,5.3c1.3,2.3,1.9,5,1.9,8.1s-0.6,5.8-1.9,8.1c-1.3,2.3-3.2,4-5.6,5.2     c-2.4,1.2-5.3,1.8-8.6,1.8h-9.5V22.9h9.5C283.6,22.9,286.5,23.5,288.9,24.8z M289.3,47c2.1-2.1,3.1-5,3.1-8.8     c0-3.8-1-6.7-3.1-8.9c-2.1-2.1-5.1-3.2-9-3.2h-5.5v23.9h5.5C284.2,50.1,287.2,49,289.3,47z"></path>
			<path class="st0" d="M319.6,46.6h-13.3l-2.4,6.8h-4.2l11-30.3h4.6l11,30.3H322L319.6,46.6z M318.5,43.3L313,28l-5.5,15.4H318.5z"></path>
			<path class="st0" d="M331.5,30.1c1.3-2.4,3.2-4.2,5.5-5.6s4.9-2,7.7-2c3.3,0,6.2,0.8,8.7,2.4c2.5,1.6,4.3,3.9,5.4,6.8H354     c-0.8-1.8-2.1-3.2-3.6-4.2c-1.6-1-3.5-1.5-5.7-1.5c-2.1,0-4,0.5-5.7,1.5c-1.7,1-3,2.4-4,4.2c-1,1.8-1.4,4-1.4,6.4     c0,2.4,0.5,4.5,1.4,6.4c1,1.8,2.3,3.2,4,4.2c1.7,1,3.6,1.5,5.7,1.5c2.2,0,4.1-0.5,5.7-1.5c1.6-1,2.8-2.4,3.6-4.2h4.8     c-1.1,2.9-2.9,5.2-5.4,6.7c-2.5,1.6-5.4,2.4-8.7,2.4c-2.8,0-5.4-0.7-7.7-2c-2.3-1.3-4.1-3.2-5.5-5.5c-1.3-2.4-2-5-2-8     C329.5,35.1,330.2,32.5,331.5,30.1z"></path>
			<path class="st0" d="M369.9,22.9v30.4h-4V22.9H369.9z"></path>
			<path class="st0" d="M384.6,51.7c-2.3-1.3-4.2-3.2-5.5-5.5c-1.4-2.4-2-5-2-8c0-3,0.7-5.6,2-8c1.4-2.4,3.2-4.2,5.5-5.5     c2.3-1.3,4.9-2,7.7-2c2.9,0,5.4,0.7,7.8,2c2.3,1.3,4.2,3.2,5.5,5.5c1.3,2.4,2,5,2,8s-0.7,5.7-2,8c-1.3,2.4-3.2,4.2-5.5,5.5     c-2.3,1.3-4.9,2-7.8,2C389.5,53.7,386.9,53,384.6,51.7z M398.1,48.7c1.7-1,3-2.4,4-4.2c1-1.8,1.5-4,1.5-6.4     c0-2.4-0.5-4.6-1.5-6.4c-1-1.8-2.3-3.2-4-4.2c-1.7-1-3.6-1.5-5.8-1.5s-4.1,0.5-5.8,1.5c-1.7,1-3,2.4-4,4.2c-1,1.8-1.5,4-1.5,6.4     c0,2.4,0.5,4.5,1.5,6.4c1,1.8,2.3,3.2,4,4.2c1.7,1,3.6,1.5,5.7,1.5S396.4,49.7,398.1,48.7z M396.7,16.3l-9.3,5v-3l9.3-5.5V16.3z"></path>
			<path class="st0" d="M438.6,53.4h-4l-16-24.2v24.2h-4V22.9h4l16,24.2V22.9h4V53.4z"></path>
		</g>
	</g>
	<g>
		<g>
			<g>
				<polygon class="st0" points="106.3,22.9 94.6,40.9 114.8,40.9 114.8,107 94.7,107 94.7,125 132.8,125 132.8,22.9     "></polygon>
				<polygon class="st0" points="33.5,107 33.5,40.9 35.3,40.9 67.9,82.1 78.3,66.1 44,22.9 15.4,22.9 15.4,125 40.1,125 51.8,107           "></polygon>
			</g>
		</g>
	</g>
	<g>
		<path class="st0" d="M234.6,73v50.2c0,0.4-0.3,0.7-0.7,0.7h-7c-0.4,0-0.7-0.3-0.7-0.7V88.6l-15.5,34.9c-0.1,0.3-0.4,0.4-0.7,0.4    H205c-0.3,0-0.5-0.2-0.7-0.4l-15.6-34.9v34.6c0,0.4-0.3,0.7-0.7,0.7h-7c-0.4,0-0.7-0.3-0.7-0.7V73c0-0.4,0.3-0.7,0.7-0.7h7.9    c0.3,0,0.5,0.2,0.7,0.4l17.9,40l17.9-40c0.1-0.3,0.4-0.4,0.7-0.4h7.9C234.3,72.3,234.6,72.6,234.6,73z"></path>
		<path class="st0" d="M282,83.7v39.5c0,0.4-0.3,0.7-0.7,0.7h-7c-0.4,0-0.7-0.3-0.7-0.7v-4.1c-1.3,1.7-3.1,3-5.2,4    c-2.2,1-4.4,1.4-6.9,1.4c-3.2,0-6.1-0.7-8.7-2c-2.5-1.3-4.6-3.3-6-5.9c-1.5-2.6-2.2-5.8-2.2-9.5V83.7c0-0.4,0.3-0.7,0.7-0.7h6.9    c0.4,0,0.7,0.3,0.7,0.7v22.1c0,3.7,0.9,6.5,2.7,8.4c1.8,2,4.3,2.9,7.5,2.9c3.2,0,5.7-1,7.5-2.9c1.9-2,2.8-4.8,2.8-8.4V83.7    c0-0.4,0.3-0.7,0.7-0.7h7C281.7,83,282,83.3,282,83.7z"></path>
		<path class="st0" d="M356.2,83.7v39.5c0,0.4-0.3,0.7-0.7,0.7h-7c-0.4,0-0.7-0.3-0.7-0.7v-4.1c-1.3,1.7-3.1,3-5.2,4    c-2.2,1-4.4,1.4-6.9,1.4c-3.2,0-6.1-0.7-8.7-2c-2.5-1.3-4.6-3.3-6-5.9c-1.5-2.6-2.2-5.8-2.2-9.5V83.7c0-0.4,0.3-0.7,0.7-0.7h6.9    c0.4,0,0.7,0.3,0.7,0.7v22.1c0,3.7,0.9,6.5,2.7,8.4c1.8,2,4.3,2.9,7.5,2.9c3.2,0,5.7-1,7.5-2.9c1.9-2,2.8-4.8,2.8-8.4V83.7    c0-0.4,0.3-0.7,0.7-0.7h7C355.9,83,356.2,83.3,356.2,83.7z"></path>
		<path class="st0" d="M448,83.7v39.5c0,0.4-0.3,0.7-0.7,0.7h-7c-0.4,0-0.7-0.3-0.7-0.7V83.7c0-0.4,0.3-0.7,0.7-0.7h7    C447.7,83,448,83.3,448,83.7z"></path>
		<path class="st0" d="M448.2,67.9v7.4c0,0.4-0.3,0.7-0.7,0.7h-7.4c-0.4,0-0.7-0.3-0.7-0.7v-7.4c0-0.4,0.3-0.7,0.7-0.7h7.4    C447.9,67.2,448.2,67.5,448.2,67.9z"></path>
		<path class="st0" d="M457.8,92.4c1.7-3.2,4-5.6,7-7.4c2.9-1.8,6.2-2.6,9.8-2.6c2.7,0,5.3,0.6,7.9,1.7c2.6,1.2,4.7,2.7,6.2,4.6v-19    c0-0.4,0.3-0.7,0.7-0.7h7.1c0.4,0,0.7,0.3,0.7,0.7v53.5c0,0.4-0.3,0.7-0.7,0.7h-7.1c-0.4,0-0.7-0.3-0.7-0.7v-5.4    c-1.4,2-3.3,3.6-5.8,4.9s-5.3,1.9-8.4,1.9c-3.6,0-6.8-0.9-9.8-2.7c-2.9-1.8-5.3-4.3-7-7.6c-1.7-3.2-2.6-6.9-2.6-11    S456.1,95.5,457.8,92.4z M487,96.1c-1.2-2.1-2.7-3.7-4.6-4.8c-1.9-1.1-3.9-1.6-6.1-1.6c-2.2,0-4.2,0.5-6.1,1.6    c-1.9,1.1-3.4,2.6-4.6,4.7c-1.2,2.1-1.7,4.5-1.7,7.3c0,2.8,0.6,5.3,1.7,7.4c1.2,2.1,2.7,3.7,4.6,4.9c1.9,1.1,3.9,1.7,6.1,1.7    c2.2,0,4.2-0.5,6.1-1.6c1.9-1.1,3.4-2.7,4.6-4.8c1.2-2.1,1.7-4.6,1.7-7.4C488.7,100.6,488.1,98.1,487,96.1z"></path>
		<path class="st0" d="M557.9,92.4c1.7-3.2,4-5.6,7-7.4c2.9-1.8,6.2-2.6,9.8-2.6c2.7,0,5.3,0.6,7.9,1.7c2.6,1.2,4.7,2.7,6.2,4.6v-19    c0-0.4,0.3-0.7,0.7-0.7h7.1c0.4,0,0.7,0.3,0.7,0.7v53.5c0,0.4-0.3,0.7-0.7,0.7h-7.1c-0.4,0-0.7-0.3-0.7-0.7v-5.4    c-1.4,2-3.3,3.6-5.8,4.9s-5.3,1.9-8.4,1.9c-3.6,0-6.8-0.9-9.8-2.7c-2.9-1.8-5.3-4.3-7-7.6c-1.7-3.2-2.6-6.9-2.6-11    S556.2,95.5,557.9,92.4z M587.1,96.1c-1.2-2.1-2.7-3.7-4.6-4.8c-1.9-1.1-3.9-1.6-6.1-1.6c-2.2,0-4.2,0.5-6.1,1.6    c-1.9,1.1-3.4,2.6-4.6,4.7c-1.2,2.1-1.7,4.5-1.7,7.3c0,2.8,0.6,5.3,1.7,7.4c1.2,2.1,2.7,3.7,4.6,4.9c1.9,1.1,3.9,1.7,6.1,1.7    c2.2,0,4.2-0.5,6.1-1.6c1.9-1.1,3.4-2.7,4.6-4.8c1.2-2.1,1.7-4.6,1.7-7.4C588.8,100.6,588.2,98.1,587.1,96.1z"></path>
		<g>
			<path class="st0" d="M312.3,89.9c0.4,0,0.7-0.3,0.7-0.7v-5.4c0-0.4-0.3-0.7-0.7-0.7h-9.2v-9.4c0-0.4-0.3-0.7-0.7-0.7h-7.1     c-0.4,0-0.7,0.3-0.7,0.7V83H289c-0.4,0-0.7,0.3-0.7,0.7v5.4c0,0.4,0.3,0.7,0.7,0.7h5.6v22.6c0,4,1,6.9,3,8.7     c2,1.8,4.9,2.7,8.8,2.7h6c0.4,0,0.7-0.3,0.7-0.7v-5.6c0-0.4-0.3-0.7-0.7-0.7h-4.5h-4.8v-4.3v-1.1V89.9H312.3z"></path>
		</g>
		<path class="st0" d="M410.2,116.8h-4.6v-33c0-0.4-0.3-0.7-0.7-0.7h-7.1c-0.4,0-0.7,0.3-0.7,0.7v5.2c-1.4-1.9-3.4-3.5-5.8-4.7    c-2.4-1.3-5.2-1.9-8.4-1.9c-3.6,0-6.8,0.9-9.8,2.6c-2.9,1.8-5.3,4.2-7,7.4c-1.7,3.2-2.6,6.8-2.6,10.9s0.9,7.8,2.6,11    c1.7,3.2,4,5.8,6.9,7.6c2.9,1.8,6.1,2.7,9.7,2.7c3.2,0,6-0.6,8.5-1.9c2.5-1.3,4.4-2.9,5.9-4.8h0.4c-0.1,2.7,2.4,6.1,5.6,6.1h1.8    h5.4c0.4,0,0.7-0.3,0.7-0.7v-5.7C410.9,117.1,410.6,116.8,410.2,116.8z M395.3,110.8c-1.2,2.1-2.7,3.7-4.6,4.8    c-1.9,1.1-3.9,1.6-6.1,1.6c-2.1,0-4.1-0.6-6.1-1.7c-1.9-1.1-3.4-2.7-4.6-4.9c-1.2-2.1-1.7-4.6-1.7-7.4c0-2.8,0.6-5.3,1.7-7.3    c1.2-2.1,2.7-3.6,4.6-4.7c1.9-1.1,3.9-1.6,6.1-1.6c2.2,0,4.2,0.5,6.1,1.6c1.9,1.1,3.4,2.7,4.6,4.8c1.2,2.1,1.7,4.5,1.7,7.4    C397,106.2,396.4,108.7,395.3,110.8z"></path>
		<g>
			<path class="st0" d="M424.6,111.4v-11.2V89.9V83V69.3c0-0.4-0.3-0.7-0.7-0.7h-7.1c-0.4,0-0.7,0.3-0.7,0.7V83v6.9v6.4v16.2     c0,4,1,6.9,3,8.7c2,1.8,4.9,2.7,8.8,2.7h6c0.4,0,0.7-0.3,0.7-0.7v-5.6c0-0.4-0.3-0.7-0.7-0.7h-4.5h-4.8v-4.3V111.4z"></path>
		</g>
		<path class="st0" d="M551.1,116.8h-4.6v-33c0-0.4-0.3-0.7-0.7-0.7h-7.1c-0.4,0-0.7,0.3-0.7,0.7v5.2c-1.4-1.9-3.4-3.5-5.8-4.7    c-2.4-1.3-5.2-1.9-8.4-1.9c-3.6,0-6.8,0.9-9.8,2.6c-2.9,1.8-5.3,4.2-7,7.4c-1.7,3.2-2.6,6.8-2.6,10.9s0.9,7.8,2.6,11    c1.7,3.2,4,5.8,6.9,7.6c2.9,1.8,6.1,2.7,9.7,2.7c3.2,0,6-0.6,8.5-1.9c2.5-1.3,4.4-2.9,5.9-4.8h0.4c-0.1,2.7,2.4,6.1,5.6,6.1h1.8    h5.4c0.4,0,0.7-0.3,0.7-0.7v-5.7C551.9,117.1,551.5,116.8,551.1,116.8z M536.2,110.8c-1.2,2.1-2.7,3.7-4.6,4.8    c-1.9,1.1-3.9,1.6-6.1,1.6c-2.1,0-4.1-0.6-6.1-1.7c-1.9-1.1-3.4-2.7-4.6-4.9c-1.2-2.1-1.7-4.6-1.7-7.4c0-2.8,0.6-5.3,1.7-7.3    c1.2-2.1,2.7-3.6,4.6-4.7c1.9-1.1,3.9-1.6,6.1-1.6c2.2,0,4.2,0.5,6.1,1.6c1.9,1.1,3.4,2.7,4.6,4.8c1.2,2.1,1.7,4.5,1.7,7.4    C538,106.2,537.4,108.7,536.2,110.8z"></path>
	</g>
</g>
</svg>
