<svg viewBox="0 1.198 123.492 37.158" xmlns="http://www.w3.org/2000/svg">
  <defs>
    <style>.cls-1 { fill: rgb(1, 150, 203); }
.cls-2 { fill: rgb(228, 53, 23); }
.cls-3 { fill: rgb(14, 118, 168); }
.cls-4 { fill: rgb(2, 4, 6); }
.cls-5 { fill: rgb(14, 178, 216); }
.cls-6 { fill: rgb(103, 193, 221); }
.cls-7 { fill: rgb(189, 225, 233); }
.cls-8 { fill: rgb(4, 51, 71); }
.cls-9 { fill: rgb(6, 82, 114); }
.cls-10 { font-size: 13.93px; fill: rgb(26, 150, 204); font-family: Arial; font-style: oblique; }
.cls-11 { font-size: 13.79px; fill: rgb(55, 64, 67); font-family: Arial; }</style>
  </defs>
  <g id="Capa_2" data-name="Capa 2">
    <g id="Capa_1-2" data-name="Capa 1">
      <polygon class="cls-1" points="6.84 23.81 5.01 7.46 19.42 14.61 6.84 23.81"></polygon>
      <polygon class="cls-2" points="19.53 1.18 19.42 14.61 5.05 7.54 19.53 1.18"></polygon>
      <path class="cls-3" d="M19.42,14.61s.07-8.95.11-13.43a97.94,97.94,0,0,1,10,11.7C27,13.61,19.42,14.61,19.42,14.61Z"></path>
      <polygon class="cls-4" points="19.42 14.61 29.49 12.88 22.27 26.33 19.42 14.61"></polygon>
      <path class="cls-5" d="M5.05,7.54c.47,5.25,1.79,16.27,1.79,16.27L0,13,5,7.46Z"></path>
      <polygon class="cls-6" points="19.55 1.12 5.07 7.48 5.88 2.14 19.55 1.12"></polygon>
      <polygon class="cls-7" points="5.9 2.14 5.07 7.48 0 13.03 5.9 2.14"></polygon>
      <path class="cls-8" d="M6.84,23.81S21,25.67,22.27,26.33c-2.94,0-10.33.05-13.27.05Z"></path>
      <path class="cls-9" d="M6.84,23.81c3.29-3,12.58-9.2,12.58-9.2l2.85,11.72S7,24,6.84,23.81Z"></path>
      <text class="cls-10" style="font-weight: 500; white-space: pre; font-size: 13.9px;" x="32.192" y="11.718">fundación</text>
      <text class="cls-11" style="font-weight: 600; white-space: pre; font-size: 13.8px;" x="31.865" y="25.379">MUTUALIDAD</text>
      <text class="cls-11" style="font-weight: 600; white-space: pre; font-size: 13.8px;" x="32.322" y="37.682">ABOGACÍA</text>
    </g>
  </g>
</svg>