<svg viewBox="0 0 534.62 190.32" xmlns="http://www.w3.org/2000/svg">
  <defs>
    <style>.cls-1 { fill: rgb(128, 186, 40); }
.cls-2 { font-size: 79.11px; }
.cls-2, .cls-5 { fill: rgb(127, 186, 39); }
.cls-2, .cls-6 { font-weight: 700; }
.cls-3 { letter-spacing: 0.01em; }
.cls-4 { letter-spacing: -0.03em; }
.cls-5 { font-size: 81.97px; font-family: Oswald-Regular, "Oswald Regular"; }
.cls-6 { font-size: 71.14px; }
.cls-11, .cls-6 { fill: rgb(255, 255, 255); }
.cls-7 { letter-spacing: -0.04em; }
.cls-8 { letter-spacing: -0.01em; }
.cls-9 { letter-spacing: -0.04em; }
.cls-10 { letter-spacing: 0.01em; }</style>
  </defs>
  <title>Recurso 4</title>
  <g id="Capa_2" data-name="Capa 2">
    <g id="Capa_1-2" data-name="Capa 1">
      <path class="cls-1" d="M448.39,181.62a61.83,61.83,0,0,1-17.65-2.29,16.41,16.41,0,0,1-2.12-.69c-2.41-1.07-4.75-2.39-4.58-5.45s2.27-4.62,5.09-5.34c4.93-1.26,9.93-2.3,14.78-3.81,20.24-6.28,37.23-16.95,47.85-36,3.8-6.81,5.65-14.11,4.07-21.75-2.28-11.09-10.6-16-20.81-17.94-16.85-3.16-33.14-.39-49,5.6-13.74,5.17-27.95,8.14-42.66,7.6-11.8-.44-23.1-2.73-32.74-10.5-13.58-11-17.13-25.31-12.31-41.62,4.24-14.36,13.54-25.28,24.17-35.28a70.17,70.17,0,0,1,16.37-12C383.89-.47,389-.85,394.06,1.9c8.32,4.5,9.88,13.53,3.06,20.12-5.36,5.18-10.82,10.21-14.6,16.7-3.95,6.78-8,13.46-7.86,21.81.21,9.79,5,17,14.18,20.61s19,3.73,28.88,3.07c12.27-.82,23.52-5.27,35-9a100.85,100.85,0,0,1,38.67-4.74c11.82.85,22.75,4.28,31.56,12.67,11.4,10.86,14,24,9.71,38.79-4.24,14.62-13.45,25.75-24.88,35.4-14.48,12.21-30.49,21.1-49.55,23.66C455,181.43,451.67,181.42,448.39,181.62Z"></path>
      <text class="cls-5" style="white-space: pre; font-size: 82px;" x="246.489" y="96.621">’</text>
      <text class="cls-6" transform="translate(0 171.04)" style="fill: rgb(0, 0, 0); white-space: pre; font-family: Arial, sans-serif;"><tspan>PR</tspan><tspan style="letter-spacing: -2.8456px;" x="91.28" y="0">O</tspan><tspan style="letter-spacing: -0.7114px;" x="137.45" y="0">T</tspan><tspan style="letter-spacing: -2.8456px;" x="180.48" y="0">O</tspan><tspan style="letter-spacing: 0.7114px;" x="226.65" y="0">T</tspan><tspan x="271.21" y="0">YPE</tspan></text>
      <circle class="cls-11" cx="405.18" cy="59.84" r="17.62" style="fill: rgb(0, 0, 0);"></circle>
      <text style="fill: rgb(128, 186, 40); font-family: Arial, sans-serif; font-size: 79px; font-weight: 700; letter-spacing: -10.8px; white-space: pre;" x="105.267" y="98.539">L E T</text>
      <text style="fill: rgb(128, 186, 40); font-family: Arial, sans-serif; font-size: 79px; font-weight: 700; letter-spacing: -10.8px; white-space: pre;" x="270.253" y="97.405">S</text>
    </g>
  </g>
</svg>