<svg xmlns="http://www.w3.org/2000/svg" viewBox="0 0 1065.47 497.91"><defs><style>.cls-1,.cls-2{fill:#4257a3;}.cls-2{font-size:166.83px;font-family:TripSans-Bold, Trip Sans;font-weight:700;letter-spacing:0.13em;}.cls-3{letter-spacing:0.1em;}.cls-4{letter-spacing:0.15em;}.cls-5{letter-spacing:0.12em;}.cls-6{letter-spacing:0.15em;}.cls-7{letter-spacing:0.14em;}</style></defs><title>LexA</title><g id="Capa_2" data-name="Capa 2"><g id="Capa_1-2" data-name="Capa 1"><polygon class="cls-1" points="488.57 75.94 466.03 98.48 511.12 98.48 488.57 75.94"/><polygon class="cls-1" points="571.07 98.48 616.15 98.48 593.61 75.94 571.07 98.48"/><path class="cls-1" d="M519.27,92.79l21.82-36.7,21.82,36.7L586.4,69.3c-9-7.06-22.48-13.43-45.31-13.43-24.33,0-36.24,5.64-45.42,13.32Z"/><path class="cls-1" d="M541.09,0A129.58,129.58,0,1,0,670.67,129.58,129.58,129.58,0,0,0,541.09,0Zm85.3,199.54H455.79l23.71-39.87a42,42,0,0,1-28.63-58.33l1.19-2.61-.07-.06.17-.17v0h0l30.41-30.41,0,0c.93-.93,1.86-1.84,2.81-2.72l.45-.44h0c12.7-11.69,27.23-18.79,55.28-18.79,29.29,0,45.43,10,55.26,18.81l0,0,1,1c.78.73,1.52,1.45,2.22,2.15l0,0L630,98.48h0v0l.17.17-.07.06,1.19,2.61a42,42,0,0,1-28.63,58.33Z"/><path class="cls-1" d="M551,118.76a41.66,41.66,0,0,1,3.76-17.41l.79-1.74L541.09,75.24,526.6,99.62l.79,1.73a42,42,0,0,1-37.16,59.41l-17.23,29H609.19l-17.24-29A42.06,42.06,0,0,1,551,118.76Z"/><text class="cls-2" transform="translate(0 449.36)">L<tspan class="cls-3" x="107.52" y="0">e</tspan><tspan class="cls-4" x="217.74" y="0">x</tspan><tspan class="cls-5" x="330.8" y="0">A</tspan><tspan class="cls-6" x="462.76" y="0">dvi</tspan><tspan class="cls-7" x="763.18" y="0">s</tspan><tspan class="cls-6" x="859.71" y="0">or</tspan></text><path class="cls-1" d="M560.82,118.71a32.24,32.24,0,1,0,62.73-10.5h-61A32,32,0,0,0,560.82,118.71Zm15.33-2.26H610a18.57,18.57,0,1,1-33.81,0Z"/><path class="cls-1" d="M456.79,118.71a32.24,32.24,0,1,0,62.73-10.5h-61A32,32,0,0,0,456.79,118.71Zm15.33-2.26h33.81a18.57,18.57,0,1,1-33.81,0Z"/></g></g></svg>