<svg xmlns="http://www.w3.org/2000/svg" viewBox="0 0 100.77 15.56"><defs><style>.cls-1{fill:#020304;}.cls-2{fill:#308cac;}.cls-3{fill:none;}</style></defs><title>Ozonia</title><g id="Capa_2" data-name="Capa 2"><g id="Capa_1-2" data-name="Capa 1"><path class="cls-1" d="M25.72,13H32a.6.6,0,0,0,.4-.12.94.94,0,0,0,.23-.44h.28v3.1H32.6a1,1,0,0,0-.23-.44A.6.6,0,0,0,32,15H21.47v-.61l7-9.41h-6A.66.66,0,0,0,22,5.1a.86.86,0,0,0-.22.44h-.29V2.44h.29a.94.94,0,0,0,.23.44.61.61,0,0,0,.41.12H32.78v.5Z"/><path class="cls-1" d="M45.15,2.79a7.08,7.08,0,0,1,5,1.7,5.94,5.94,0,0,1,1.94,4.59,5.94,5.94,0,0,1-.93,3.21q-1.83,2.93-6,2.92a7,7,0,0,1-5-1.69,6,6,0,0,1-1.49-2.18,6.35,6.35,0,0,1,.47-5.64Q41,2.85,45.15,2.79Zm0,2a4.12,4.12,0,0,0-2.86,1A4,4,0,0,0,40.94,9a4,4,0,0,0,1.36,3.15,4.55,4.55,0,0,0,5.74,0,3.93,3.93,0,0,0,1-1.48,4.28,4.28,0,0,0,.32-1.61A4,4,0,0,0,48,5.85,4.29,4.29,0,0,0,45.16,4.83Z"/><path class="cls-1" d="M60.78,6.78v7.3a.56.56,0,0,0,.13.41.9.9,0,0,0,.43.23V15H57.82v-.28a.94.94,0,0,0,.44-.23.61.61,0,0,0,.12-.41V3.92a.63.63,0,0,0-.12-.41.94.94,0,0,0-.44-.23V3H61.9v.28c-.25.07-.38.2-.38.41a.69.69,0,0,0,.25.46L68.38,11V3.92a.63.63,0,0,0-.12-.41.94.94,0,0,0-.44-.23V3h3.53v.28a.94.94,0,0,0-.44.23.63.63,0,0,0-.13.41V14.08a.61.61,0,0,0,.13.41.94.94,0,0,0,.44.23V15H67.57v-.28c.24-.05.37-.18.37-.38s-.15-.32-.43-.61Z"/><path class="cls-1" d="M77.94,14.08V3.92a.63.63,0,0,0-.12-.41.94.94,0,0,0-.44-.23V3h3.74v.28a.86.86,0,0,0-.44.23.63.63,0,0,0-.12.41V14.08a.56.56,0,0,0,.13.41.79.79,0,0,0,.43.23V15H77.38v-.28a.94.94,0,0,0,.44-.23A.61.61,0,0,0,77.94,14.08Z"/><path class="cls-1" d="M95.93,11.94H90.48l-.81,1.69a1.38,1.38,0,0,0-.16.55c0,.26.19.44.58.54V15h-4v-.28a1.05,1.05,0,0,0,.53-.25,2,2,0,0,0,.42-.68L91.5,4.57a1.8,1.8,0,0,0,.21-.71c0-.26-.17-.46-.51-.58V3h4.25v.28c-.34.1-.52.28-.52.52a1.3,1.3,0,0,0,.17.58l4.57,9.25a2.9,2.9,0,0,0,.51.8,1.1,1.1,0,0,0,.59.29V15H96.35v-.28c.39-.07.58-.25.58-.55a1.32,1.32,0,0,0-.17-.54Zm-.75-1.64L93.24,6l-2,4.28Z"/><path class="cls-1" d="M15.94,6.51H13a5.32,5.32,0,0,1,.27,1.7A4.88,4.88,0,0,1,13,9.94a4.65,4.65,0,0,1-1.11,1.59,4.44,4.44,0,0,1-3.07,1.08,4.46,4.46,0,0,1-3.07-1.08A4.29,4.29,0,0,1,4.25,8.16a4.84,4.84,0,0,1,.28-1.65H1.61a6.3,6.3,0,0,0-.2,1.64,6.63,6.63,0,0,0,.47,2.51A6.36,6.36,0,0,0,3.48,13a7.48,7.48,0,0,0,5.29,1.81q4.44,0,6.38-3.12a6.4,6.4,0,0,0,1-3.43A6.46,6.46,0,0,0,15.94,6.51Z"/><path class="cls-2" d="M14.54,2A8.24,8.24,0,0,0,8.75,0Q3.89.06,1.83,3.38A7.21,7.21,0,0,0,1,5.43H4.16A4.43,4.43,0,0,1,5.44,3.55,4.8,4.8,0,0,1,8.76,2.37a5.06,5.06,0,0,1,3.36,1.18,4.23,4.23,0,0,1,1.27,1.88h3.19A6.66,6.66,0,0,0,14.54,2Z"/><polyline class="cls-3" points="17.4 5.43 16.35 5.43 13.16 5.43 3.93 5.43 0.75 5.43 0 5.43"/></g></g></svg>