<svg xmlns="http://www.w3.org/2000/svg" viewBox="0 0 99.39 32.87"><defs><style>.cls-1{fill:#13273e;}</style></defs><title>Recurso 6</title><g id="Capa_2" data-name="Capa 2"><g id="Capa_1-2" data-name="Capa 1"><path class="cls-1" d="M11.48,3.13H7.16V14.87H4.26V3.13H0V.77H11.48Z"/><path class="cls-1" d="M16.91,15.06a5.16,5.16,0,0,1-3.75-1.41,5,5,0,0,1-1.45-3.77V9.61a6.42,6.42,0,0,1,.61-2.82,4.55,4.55,0,0,1,1.73-1.92A5,5,0,0,1,16.6,4.2,4.32,4.32,0,0,1,20,5.56,5.46,5.46,0,0,1,21.22,9.4v1.14H14.55a2.59,2.59,0,0,0,.82,1.65,2.48,2.48,0,0,0,1.73.62,3,3,0,0,0,2.52-1.17L21,13.17a4.13,4.13,0,0,1-1.71,1.39A5.46,5.46,0,0,1,16.91,15.06Zm-.32-8.6A1.78,1.78,0,0,0,15.24,7a3,3,0,0,0-.66,1.61h3.89V8.41A2.07,2.07,0,0,0,18,7,1.82,1.82,0,0,0,16.59,6.46Z"/><path class="cls-1" d="M28.88,14.87a2.9,2.9,0,0,1-.28-.94A3.38,3.38,0,0,1,26,15.06a3.71,3.71,0,0,1-2.55-.89,2.86,2.86,0,0,1-1-2.24,3,3,0,0,1,1.23-2.56,6.18,6.18,0,0,1,3.57-.9h1.29v-.6a1.77,1.77,0,0,0-.37-1.16,1.47,1.47,0,0,0-1.18-.44,1.71,1.71,0,0,0-1.11.34,1.16,1.16,0,0,0-.4.93h-2.8a2.8,2.8,0,0,1,.56-1.68,3.81,3.81,0,0,1,1.59-1.22,5.87,5.87,0,0,1,2.31-.44,4.61,4.61,0,0,1,3.07,1,3.41,3.41,0,0,1,1.14,2.74v4.54a4.9,4.9,0,0,0,.41,2.25v.17Zm-2.32-1.95a2.4,2.4,0,0,0,1.14-.27,1.86,1.86,0,0,0,.78-.74v-1.8H27.43c-1.4,0-2.14.48-2.23,1.45v.16a1.09,1.09,0,0,0,.37.86A1.39,1.39,0,0,0,26.56,12.92Z"/><path class="cls-1" d="M36.06,4.4l.09,1.17a3.67,3.67,0,0,1,3-1.37,2.78,2.78,0,0,1,2.77,1.6,3.6,3.6,0,0,1,3.15-1.6,3.14,3.14,0,0,1,2.54,1,4.62,4.62,0,0,1,.83,3v6.69H45.64V8.17a1.94,1.94,0,0,0-.35-1.3,1.52,1.52,0,0,0-1.23-.41,1.75,1.75,0,0,0-1.74,1.2v7.21h-2.8V8.18a2.06,2.06,0,0,0-.35-1.32A1.57,1.57,0,0,0,38,6.46a1.82,1.82,0,0,0-1.73,1v7.42H33.44V4.4Z"/><path class="cls-1" d="M53.69,12.54h6.16v2.33H50.78V.77h2.91Z"/><path class="cls-1" d="M67.4,14.87a3.17,3.17,0,0,1-.28-.94,3.37,3.37,0,0,1-2.64,1.13,3.67,3.67,0,0,1-2.55-.89,2.83,2.83,0,0,1-1-2.24,3,3,0,0,1,1.23-2.56,6.14,6.14,0,0,1,3.57-.9H67v-.6a1.72,1.72,0,0,0-.38-1.16,1.45,1.45,0,0,0-1.17-.44,1.71,1.71,0,0,0-1.11.34,1.16,1.16,0,0,0-.4.93h-2.8a2.8,2.8,0,0,1,.56-1.68A3.75,3.75,0,0,1,63.3,4.64a5.82,5.82,0,0,1,2.3-.44,4.64,4.64,0,0,1,3.08,1,3.43,3.43,0,0,1,1.13,2.74v4.54a5,5,0,0,0,.42,2.25v.17Zm-2.31-1.95a2.46,2.46,0,0,0,1.14-.27,1.86,1.86,0,0,0,.78-.74v-1.8H66c-1.4,0-2.15.48-2.24,1.45v.16a1.12,1.12,0,0,0,.36.86A1.42,1.42,0,0,0,65.09,12.92Z"/><path class="cls-1" d="M81.4,9.73a6.36,6.36,0,0,1-1.07,3.92,3.57,3.57,0,0,1-3,1.41,3.25,3.25,0,0,1-2.72-1.3l-.13,1.11H72V0h2.8V5.33A3.2,3.2,0,0,1,77.31,4.2a3.58,3.58,0,0,1,3,1.41,6.32,6.32,0,0,1,1.09,4Zm-2.8-.21a4.16,4.16,0,0,0-.5-2.33,1.7,1.7,0,0,0-1.5-.73,1.85,1.85,0,0,0-1.84,1.09V11.7a1.87,1.87,0,0,0,1.86,1.11,1.73,1.73,0,0,0,1.78-1.34A6.81,6.81,0,0,0,78.6,9.52Z"/><path class="cls-1" d="M88.8,12a.88.88,0,0,0-.51-.8,5.5,5.5,0,0,0-1.63-.53q-3.73-.78-3.74-3.18a2.86,2.86,0,0,1,1.16-2.32,4.62,4.62,0,0,1,3-.94,5,5,0,0,1,3.19.94,3,3,0,0,1,1.2,2.44h-2.8a1.34,1.34,0,0,0-.39-1,1.64,1.64,0,0,0-1.21-.39A1.68,1.68,0,0,0,86,6.51a1,1,0,0,0-.39.82.87.87,0,0,0,.44.75,4.65,4.65,0,0,0,1.49.49A12.83,12.83,0,0,1,89.3,9a2.89,2.89,0,0,1,2.22,2.82,2.74,2.74,0,0,1-1.23,2.32,5.32,5.32,0,0,1-3.18.88,5.47,5.47,0,0,1-2.34-.47,3.94,3.94,0,0,1-1.6-1.28,3.07,3.07,0,0,1-.58-1.77h2.65a1.44,1.44,0,0,0,.56,1.14,2.15,2.15,0,0,0,1.37.4,2,2,0,0,0,1.22-.31A1,1,0,0,0,88.8,12Z"/><path class="cls-1" d="M94.2,16.08H92.12L97.31.77h2.08Z"/><path class="cls-1" d="M49.07,21.28H45.78v3.3h-.6v-7h4.37V18H45.78v2.75h3.29Z"/><path class="cls-1" d="M53.74,22.6h-3.2l-.72,2h-.63l2.67-7h.57l2.66,7h-.61Zm-3-.51h2.82l-1.41-3.84Z"/><path class="cls-1" d="M61.07,22.38a2.51,2.51,0,0,1-.8,1.7,2.6,2.6,0,0,1-1.8.59,2.48,2.48,0,0,1-1.38-.39,2.57,2.57,0,0,1-.94-1.11,4.07,4.07,0,0,1-.33-1.64v-.92a4,4,0,0,1,.33-1.67,2.61,2.61,0,0,1,1-1.12,2.59,2.59,0,0,1,1.42-.39,2.52,2.52,0,0,1,1.79.61,2.59,2.59,0,0,1,.76,1.69h-.6a1.8,1.8,0,0,0-1.95-1.8,1.85,1.85,0,0,0-1.53.72,3.11,3.11,0,0,0-.57,2v.86a3.12,3.12,0,0,0,.56,2,1.76,1.76,0,0,0,1.49.73,2,2,0,0,0,1.41-.45,2.12,2.12,0,0,0,.59-1.34Z"/><path class="cls-1" d="M66.41,21.2h-3.3v2.87H66.9v.51H62.52v-7h4.36V18H63.11v2.66h3.3Z"/><path class="cls-1" d="M75.16,18H72.74v6.55h-.59V18H69.74v-.5h5.42Z"/><path class="cls-1" d="M81.52,24.58h-.6V21.2h-4v3.38H76.3v-7h.59v3.16h4V17.53h.6Z"/><path class="cls-1" d="M87.21,21.2h-3.3v2.87H87.7v.51H83.31v-7h4.37V18H83.91v2.66h3.3Z"/><path class="cls-1" d="M60.08,32.87h-.6l-4-6v6h-.6v-7h.6l4.06,6v-6h.59Z"/><path class="cls-1" d="M65.76,29.49H62.47v2.88h3.79v.5H61.87v-7h4.36v.51H62.47V29h3.29Z"/><path class="cls-1" d="M69.66,28.81l2-3h.71L70,29.3l2.41,3.57h-.72l-2-3.08-2.07,3.08h-.7L69.3,29.3,67,25.82h.71Z"/><path class="cls-1" d="M78.36,26.33H76v6.54h-.6V26.33H72.94v-.51h5.42Z"/></g></g></svg>