<?xml version="1.0" encoding="UTF-8"?>
<svg version="1.1" xmlns="http://www.w3.org/2000/svg" width="257" height="257">
<path d="M0 0 C26.78516849 22.95752455 45.26635011 53.04680044 48.36523438 88.66064453 C50.5147431 126.04340501 40.79808659 159.65689305 15.80273438 187.91064453 C14.32990925 189.49987851 12.85109627 191.08359256 11.36523438 192.66064453 C10.75421875 193.33611328 10.14320313 194.01158203 9.51367188 194.70751953 C-9.64210174 215.0860021 -40.75149946 228.89486016 -68.60748291 230.0451355 C-72.0135818 230.12843711 -75.41546829 230.12945099 -78.82226562 230.09814453 C-79.89918671 230.09308395 -79.89918671 230.09308395 -80.99786377 230.08792114 C-92.8915291 230.00731127 -104.20159501 229.11389836 -115.63476562 225.66064453 C-116.81135742 225.30655518 -116.81135742 225.30655518 -118.01171875 224.9453125 C-151.53229605 214.45491391 -178.39192375 192.05977667 -194.94726562 161.22314453 C-201.33338745 148.9341419 -205.18457871 136.30222571 -207.63476562 122.66064453 C-207.82039062 121.63583984 -208.00601563 120.61103516 -208.19726562 119.55517578 C-210.00981688 103.42023287 -209.50692278 86.4568924 -205.63476562 70.66064453 C-205.47379395 70.00128906 -205.31282227 69.34193359 -205.14697266 68.66259766 C-200.73166237 51.40853209 -192.69135868 35.56546246 -181.63476562 21.66064453 C-181.20437988 21.10683105 -180.77399414 20.55301758 -180.33056641 19.98242188 C-159.64401925 -6.48746104 -129.48202064 -22.07466282 -96.43261719 -26.51489258 C-62.34544006 -30.60298753 -26.80087749 -21.95782764 0 0 Z " fill="#4157A3" transform="translate(208.634765625,27.33935546875)"/>
<path d="M0 0 C1.17820312 0.35191406 2.35640625 0.70382813 3.5703125 1.06640625 C16.39366134 5.26238325 27.36193769 12.24128069 36.09375 22.578125 C40.5658469 27.736728 45.40167857 32.5102518 50.25 37.3125 C51.1471875 38.20517578 52.044375 39.09785156 52.96875 40.01757812 C54.62286712 41.66302846 56.27801551 43.30744327 57.93457031 44.95043945 C58.61616211 45.62679443 59.29775391 46.30314941 60 47 C60.55204102 47.51167725 61.10408203 48.02335449 61.67285156 48.55053711 C66.402077 53.71562383 66.55004347 61.14869626 66.5 67.75 C66.49427979 68.62889893 66.48855957 69.50779785 66.48266602 70.41333008 C66.17534532 81.6579564 61.95490997 90.99910789 54 99 C48.22604829 103.71674928 42.66776058 108 35 108 C37.32797681 111.98445874 39.65754806 115.96797946 41.98852539 119.95068359 C42.77931618 121.30232235 43.56969014 122.65420507 44.35961914 124.00634766 C45.50294051 125.96322787 46.64768106 127.91927004 47.79296875 129.875 C48.16163055 130.50575439 48.53029236 131.13650879 48.91012573 131.78637695 C50.88761443 135.15621151 52.92377359 138.47283264 55.05078125 141.75 C57 145 57 145 57 148 C2.22 148 -52.56 148 -109 148 C-108.08029843 143.40149215 -107.17529609 141.23613657 -104.796875 137.359375 C-104.14589844 136.28816406 -103.49492188 135.21695313 -102.82421875 134.11328125 C-102.13972656 133.00339844 -101.45523438 131.89351562 -100.75 130.75 C-99.41009154 128.55812662 -98.07152535 126.36543206 -96.734375 124.171875 C-96.09693359 123.12708984 -95.45949219 122.08230469 -94.80273438 121.00585938 C-92.43477808 117.05755521 -90.18781449 113.05044847 -88 109 C-88.60859863 108.83169678 -89.21719727 108.66339355 -89.84423828 108.48999023 C-99.9673377 105.60209811 -107.6350701 98.93911933 -113.21875 90.0625 C-119.7846064 77.72664858 -120.3666295 66.55794408 -116.55859375 53.23828125 C-112.0892915 43.95243772 -102.84129734 36.6229148 -95.63110352 29.39086914 C-93.69534736 27.44538679 -91.7705498 25.48947186 -89.84570312 23.53320312 C-65.98078679 -0.53595921 -33.24070076 -10.11850182 0 0 Z " fill="#EDF0F8" transform="translate(155,50)"/>
<path d="M0 0 C0.66 0 1.32 0 2 0 C4.57116892 3.23138592 6.64629459 6.8017533 8.8125 10.3125 C9.76672852 11.74819336 9.76672852 11.74819336 10.74023438 13.21289062 C15.14844112 20.39860634 15.14844112 20.39860634 14.73388672 24.87084961 C14.1911179 26.73416098 13.58623478 28.58050936 12.9206543 30.40356445 C11.55560596 34.2532831 11.46369792 37.88618782 11.5 41.9375 C11.50644531 42.70964844 11.51289063 43.48179688 11.51953125 44.27734375 C11.88023737 55.66806346 16.89784466 65.06752331 25 73 C31.41004458 77.820272 38.80842842 81.88310358 46.921875 82.109375 C49.44141915 82.40676859 50.63434423 82.65134728 52.48583984 84.41674805 C53.84184453 86.36694826 54.99678047 88.34734966 56.125 90.4375 C56.54313965 91.16018066 56.9612793 91.88286133 57.39208984 92.62744141 C58.22659925 94.07244166 59.05059173 95.52357327 59.86328125 96.98095703 C61.37239226 99.66144415 62.99935173 102.26399418 64.625 104.875 C67 108.74585635 67 108.74585635 67 111 C23.44 111 -20.12 111 -65 111 C-63.55468564 107.3867141 -62.15395336 104.32691721 -60.25 100.98828125 C-59.7240625 100.06595703 -59.198125 99.14363281 -58.65625 98.19335938 C-58.1096875 97.24267578 -57.563125 96.29199219 -57 95.3125 C-56.4534375 94.35021484 -55.906875 93.38792969 -55.34375 92.39648438 C-54.8178125 91.47802734 -54.291875 90.55957031 -53.75 89.61328125 C-53.27046875 88.77579346 -52.7909375 87.93830566 -52.296875 87.07543945 C-50.52798319 84.24461316 -49.59801392 83.15037269 -46.3125 82.32421875 C-45.219375 82.11410156 -44.12625 81.90398437 -43 81.6875 C-32.00392841 79.22912717 -24.11889467 74.89158386 -17 66 C-15.0093139 62.77605958 -13.39381748 59.52092848 -12 56 C-11.63390625 55.09378906 -11.2678125 54.18757813 -10.890625 53.25390625 C-9.76421983 49.13857507 -9.66978012 45.37068385 -9.6875 41.125 C-9.66333008 39.97837891 -9.66333008 39.97837891 -9.63867188 38.80859375 C-9.6351953 34.7131913 -10.03302482 31.49086115 -11.58203125 27.6796875 C-13.23108004 23.40033774 -13.23108004 23.40033774 -12 20 C-11.22424363 18.47123321 -10.39625638 16.96837915 -9.53125 15.48828125 C-9.04269531 14.64845703 -8.55414063 13.80863281 -8.05078125 12.94335938 C-7.28314453 11.64108398 -7.28314453 11.64108398 -6.5 10.3125 C-5.73236328 8.99282227 -5.73236328 8.99282227 -4.94921875 7.64648438 C-1.15603258 1.15603258 -1.15603258 1.15603258 0 0 Z " fill="#4358A4" transform="translate(128,77)"/>
<path d="M0 0 C19.8 0 39.6 0 60 0 C62.93361649 5.86723299 61.81496105 15.40667752 59.90625 21.48046875 C55.46259926 30.80504438 49.77351115 37.11986864 40.1640625 41.1171875 C31.94744939 43.409724 22.61866394 43.43008547 14.98828125 39.3203125 C7.94217626 34.64136655 3.52605485 29.70878388 0 22 C-0.433125 21.071875 -0.86625 20.14375 -1.3125 19.1875 C-2.73918331 12.57287737 -3.04559531 6.09119063 0 0 Z " fill="#495EA7" transform="translate(48,108)"/>
<path d="M0 0 C19.8 0 39.6 0 60 0 C63.26557756 8.16394391 62.72895653 15.11437215 59.453125 23.2578125 C54.54768935 32.51484429 46.84913094 38.71695635 37 42 C27.54574001 42.80217964 20.03431917 42.46696154 12 37 C11.41734375 36.61585938 10.8346875 36.23171875 10.234375 35.8359375 C4.78344286 31.78903333 1.02440507 25.40910303 -1 19 C-1.16324948 16.24966132 -1.23498063 13.61888088 -1.1875 10.875 C-1.18685547 10.15957031 -1.18621094 9.44414063 -1.18554688 8.70703125 C-1.15897902 5.54840896 -1.00523113 3.01569338 0 0 Z " fill="#4A5FA7" transform="translate(150,108)"/>
<path d="M0 0 C11.22 0 22.44 0 34 0 C36.12544229 4.25088458 35.66543949 9.79834593 34.31640625 14.26171875 C32.09983244 19.09035464 29.32856852 21.96079232 25 25 C18.9658316 27.01138947 12.23494967 27.07756502 6.5 24.3125 C1.01219472 19.23628012 -1.72782649 14.94651585 -2.25 7.375 C-2 4 -2 4 0 0 Z " fill="#EEF2F9" transform="translate(61,116)"/>
<path d="M0 0 C4.82380802 -0.0246519 9.64757967 -0.04283693 14.47143555 -0.05493164 C16.11369464 -0.05997174 17.75594923 -0.06680378 19.39819336 -0.07543945 C21.75375479 -0.08751926 24.10925709 -0.09323139 26.46484375 -0.09765625 C27.20339096 -0.10281754 27.94193817 -0.10797882 28.7028656 -0.11329651 C30.46898088 -0.1134925 32.23497146 -0.06194719 34 0 C35.77714844 1.77714844 35.21450494 4.28270998 35.25 6.6875 C35.17362276 12.55466083 34.63244047 16.36755953 30.34765625 20.65234375 C25.18999971 25.28660174 21.39971972 26.31724879 14.49609375 26.20703125 C9.14709202 25.76337383 6.14153887 23.36231769 2.6875 19.5 C-0.42424238 15.77570991 -1.13933211 12.81559006 -1.125 8 C-1.12757813 7.13375 -1.13015625 6.2675 -1.1328125 5.375 C-1 3 -1 3 0 0 Z " fill="#F0F3FA" transform="translate(163,116)"/>
<path d="M0 0 C-4.02205881 8.37975535 -8.48055202 16.35144408 -13.375 24.25 C-14.33599609 25.81427734 -14.33599609 25.81427734 -15.31640625 27.41015625 C-16.87320605 29.9428604 -18.4344208 32.47271705 -20 35 C-23.56764285 33.48623919 -25.83706287 31.39486871 -28.546875 28.6484375 C-29.39121094 27.79765625 -30.23554687 26.946875 -31.10546875 26.0703125 C-32.41451172 24.73613281 -32.41451172 24.73613281 -33.75 23.375 C-34.63816406 22.4778125 -35.52632813 21.580625 -36.44140625 20.65625 C-38.63216969 18.44192996 -40.81812763 16.22307565 -43 14 C-40.41269325 8.27925896 -35.53272908 6.55136211 -30 4 C-20.04711473 0.26047663 -10.53971355 -0.11924828 0 0 Z " fill="#465BA5" transform="translate(128,57)"/>
<path d="M0 0 C15.90178504 -0.53904356 29.56542585 3.55171972 43 12 C41.91286132 15.26141605 41.31971975 15.79115163 38.75 17.875 C32.45909851 23.19012298 26.77874426 29.14197419 21 35 C17.73573893 32.00020245 15.60088994 28.93598606 13.3984375 25.09765625 C12.74359375 23.96005859 12.08875 22.82246094 11.4140625 21.65039062 C11.07922852 21.06104736 10.74439453 20.4717041 10.39941406 19.86450195 C9.37781089 18.06744451 8.34601382 16.27655679 7.3125 14.48632812 C1.83597039 4.92404767 1.83597039 4.92404767 0 0 Z " fill="#4459A4" transform="translate(130,57)"/>
<path d="M0 0 C1.47265625 1.3984375 1.47265625 1.3984375 3.0625 3.375 C10.11922187 12.28160238 10.11922187 12.28160238 19 19 C19 19.66 19 20.32 19 21 C5.47 21 -8.06 21 -22 21 C-19.38151294 15.76302588 -15.68112722 12.35162215 -11.5625 8.25 C-10.78583984 7.45722656 -10.00917969 6.66445312 -9.20898438 5.84765625 C-8.0865332 4.72423828 -8.0865332 4.72423828 -6.94140625 3.578125 C-6.25763916 2.89137695 -5.57387207 2.20462891 -4.86938477 1.49707031 C-3 0 -3 0 0 0 Z " fill="#485DA6" transform="translate(182,77)"/>
<path d="M0 0 C3.45116902 1.4844314 5.68859241 3.44333067 8.328125 6.09765625 C9.12734375 6.89880859 9.9265625 7.69996094 10.75 8.52539062 C11.9875 9.78125977 11.9875 9.78125977 13.25 11.0625 C14.09046875 11.90361328 14.9309375 12.74472656 15.796875 13.61132812 C22 19.85976816 22 19.85976816 22 21 C8.47 21 -5.06 21 -19 21 C-17.19522505 17.3904501 -15.88074534 15.64371929 -13.0859375 12.890625 C-12.32539062 12.13652344 -11.56484375 11.38242188 -10.78125 10.60546875 C-9.9871875 9.82816406 -9.193125 9.05085938 -8.375 8.25 C-7.57320312 7.45722656 -6.77140625 6.66445312 -5.9453125 5.84765625 C-3.96797154 3.89385507 -1.98611091 1.94487897 0 0 Z " fill="#485DA6" transform="translate(76,77)"/>
<path d="M0 0 C1.11503906 0.00644531 2.23007813 0.01289062 3.37890625 0.01953125 C4.53777344 0.03628906 5.69664063 0.05304687 6.890625 0.0703125 C8.65212891 0.08384766 8.65212891 0.08384766 10.44921875 0.09765625 C13.34656036 0.12121187 16.24348941 0.15410598 19.140625 0.1953125 C19.140625 0.5253125 19.140625 0.8553125 19.140625 1.1953125 C16.170625 1.1953125 13.200625 1.1953125 10.140625 1.1953125 C10.470625 2.5153125 10.800625 3.8353125 11.140625 5.1953125 C9.490625 5.5253125 7.840625 5.8553125 6.140625 6.1953125 C6.470625 4.8753125 6.800625 3.5553125 7.140625 2.1953125 C1.530625 2.1953125 -4.079375 2.1953125 -9.859375 2.1953125 C-5.83976339 0.18550669 -4.32745128 -0.04415767 0 0 Z " fill="#CDD3E9" transform="translate(119.859375,55.8046875)"/>
<path d="M0 0 C2 1 2 1 2 1 Z M-17 15 C-16.01 15.33 -15.02 15.66 -14 16 C-15.375 17.5 -15.375 17.5 -17 19 C-17.66 19 -18.32 19 -19 19 C-18.34 17.68 -17.68 16.36 -17 15 Z " fill="#4C60A8" transform="translate(180,78)"/>
</svg>
